<?xml version="1.0" standalone="no"?>
<!DOCTYPE svg PUBLIC "-//W3C//DTD SVG 1.1//EN" "http://www.w3.org/Graphics/SVG/1.1/DTD/svg11.dtd" >
<svg xmlns="http://www.w3.org/2000/svg">
<metadata></metadata>
<defs>
<font id="bc_reformulate_rbregular" horiz-adv-x="600" >
<font-face units-per-em="1000" ascent="759" descent="-241" />
<missing-glyph horiz-adv-x="500" />
<glyph unicode="ff" d="M188 349h108v202q0 41 -21 70.5t-63 29.5q-24 0 -24 -88v-214zM105 -230v520h-65q-14 0 -14 8q0 12 18.5 30t38.5 18h22v193q0 69 45 119t109 50q58 0 93 -42q44 42 98 42q57 0 89.5 -35.5t32.5 -83.5q0 -12 -28 -29.5t-46 -17.5q-11 0 -11 9q0 41 -21 70.5t-63 29.5 q-23 0 -23 -88v-214h108q14 0 14 -9q0 -13 -24.5 -31.5t-48.5 -18.5h-49v-231h129q15 0 15 -9q0 -14 -25.5 -32t-50.5 -18h-207q-15 0 -15 9q0 13 23 30t47 20v231h-108v-482q0 -13 -26.5 -31t-44.5 -18q-12 0 -12 11z" />
<glyph unicode="fi" d="M17 9q0 12 20.5 29.5t43.5 20.5h34v468q0 74 56 127.5t133 53.5q59 0 96.5 -41.5t37.5 -90.5q0 -12 -28.5 -29.5t-46.5 -17.5q-11 0 -11 9q0 47 -30 79t-73 34q-27 -3 -39 -24t-12 -68v-210h107q15 0 15 -9q0 -11 -18.5 -27t-39.5 -20h-64v-232h81q15 0 15 -9 q0 -14 -25.5 -33t-50.5 -19h-186q-15 0 -15 9zM384 9l13 408q0 11 28.5 29t43.5 18q12 0 12 -12l-12 -391h93q15 0 15 -9q0 -14 -25.5 -33t-50.5 -19h-102q-15 0 -15 9z" />
<glyph unicode="fl" d="M380 643h-119q-50 -6 -50 -84v-210h87q14 0 14 -9q0 -11 -19.5 -27.5t-40.5 -20.5h-41v-231h55q15 0 15 -9q0 -14 -26 -33t-50 -19h-148q-15 0 -15 9q0 12 21 29t44 21h20v465q0 74 55.5 125t133.5 51h134q13 0 13 -9v-630h57q15 0 15 -9q0 -14 -26 -33t-50 -19h-147 q-15 0 -15 9q0 11 19 27t40 20l24 1v586z" />
<glyph unicode="&#xd;" horiz-adv-x="0" />
<glyph unicode=" " />
<glyph unicode="!" d="M235 5v83q0 19 41.5 43t69.5 24q18 0 18 -13v-83q0 -19 -41 -43t-69 -24q-19 0 -19 13zM251 222l-9 430q-1 16 37 36t63 20q15 0 15 -10l-7 -433q0 -16 -31.5 -35t-53.5 -19q-14 0 -14 11z" />
<glyph unicode="&#x22;" d="M187 447l-11 221q-1 17 42 35q44 18 49 5v-3l-8 -224q-1 -16 -33 -33q-36 -17 -39 -1zM340 447l-7 221q-1 17 42 35t49 5v-3l-13 -224q-1 -16 -34 -33q-34 -16 -37 -1z" />
<glyph unicode="#" d="M239 5l69 212h-108l-58 -179q-8 -23 -51 -39q-37 -14 -37 2q0 2 1 4l69 212h-108q-14 0 -14 7q0 14 36.5 35t65.5 21h40l47 144h-118q-14 0 -14 7q0 14 36 35.5t65 21.5h52l57 173q9 24 50 41q37 15 38 -1q0 -3 -1 -6l-67 -207h108l57 173q9 25 51 41q35 14 37 -1 q0 -3 -1 -6l-68 -207h103q14 0 14 -7q0 -14 -36 -35.5t-65 -21.5h-37l-47 -144h114q14 0 14 -7q0 -14 -36 -35t-65 -21h-48l-58 -179q-8 -23 -51 -39q-37 -14 -37 2q0 2 1 4zM268 424l-47 -144h108l47 144h-108z" />
<glyph unicode="$" d="M66 228q-1 16 30 34.5t53 18.5q13 0 13 -10q0 -51 45 -99t122 -49q94 5 94 82q0 36 -18 57t-60 38l-138 59q-101 43 -101 127q0 49 39 88.5t101 55.5v48q0 15 31.5 34.5t53.5 19.5q15 0 15 -12v-82q61 -9 99.5 -48.5t38.5 -90.5q0 -15 -30 -32.5t-51 -17.5q-13 0 -14 9 q-1 54 -36.5 88.5t-91.5 36.5q-59 -7 -59 -67q0 -56 69 -84l150 -62q102 -45 102 -124q0 -70 -49 -113.5t-125 -58.5v-53q0 -15 -31.5 -34t-53.5 -19q-16 0 -16 12v86q-78 4 -128 52t-54 110z" />
<glyph unicode="%" d="M32 441v149q0 50 38 84t84 34q47 0 72 -28.5t25 -64.5v-147q0 -47 -36.5 -82.5t-90.5 -35.5q-41 0 -66.5 28.5t-25.5 62.5zM103 466q0 -30 17 -51.5t41 -24.5q19 3 19 51v151q0 31 -16.5 54t-39.5 24q-13 -1 -17 -13t-4 -40v-151zM341 83v149q0 50 38 84t84 34 q47 0 72 -28.5t25 -64.5v-147q0 -47 -37 -82.5t-90 -35.5q-41 0 -66.5 28.5t-25.5 62.5zM411 108q0 -29 17 -51t41 -25q19 3 19 51v151q0 31 -16 54t-40 24q-13 -1 -17 -13t-4 -40v-151zM64 4l373 667q9 16 32.5 27t42.5 11q18 0 11 -13l-373 -667q-10 -16 -33.5 -27 t-42.5 -11q-18 0 -10 13z" />
<glyph unicode="&#x26;" d="M48 156q0 57 32 101.5t91 88.5l-10 13q-38 44 -55 80.5t-17 86.5q0 74 57.5 128t132.5 54q53 0 92 -41.5t39 -99.5q0 -63 -32.5 -108t-90.5 -89l151 -179q24 65 -9 154q-4 11 14.5 27.5t40.5 25.5t25 1q54 -136 -27 -258l74 -87q7 -8 -12 -26.5t-44 -29.5t-33 -2l-56 66 q-83 -70 -185 -70q-77 0 -127.5 47t-50.5 117zM137 204q0 -66 40 -108t105 -42q53 0 99 44l-178 211q-66 -55 -66 -105zM178 564q0 -67 59 -135l18 -22q67 58 67 121q0 45 -27.5 80.5t-75.5 39.5q-41 -6 -41 -84z" />
<glyph unicode="'" d="M263 447l-11 221q-1 17 43.5 35t50.5 5q1 -1 1 -3l-9 -224q-1 -16 -35 -33q-37 -16 -40 -1z" />
<glyph unicode="(" d="M145 248q0 74 15 142t46 129.5t86 105.5t128 62q17 4 17 -9q0 -12 -15 -23q-16 -12 -38 -20.5t-42 -23.5q-51 -33 -80.5 -120t-29.5 -204q0 -306 196 -405q16 -8 -12 -26q-39 -25 -72 -18q-2 1 -5 2q-104 49 -149 162t-45 246z" />
<glyph unicode=")" d="M362 228q0 307 -196 404q-16 8 12 27q39 25 72 18q2 -1 5 -2q72 -34 117.5 -105t61 -145t15.5 -158q0 -74 -15 -142t-46 -129.5t-86 -105.5t-128 -62q-18 -5 -17 9q1 12 15 22q16 13 38.5 21.5t41.5 22.5q51 34 80.5 121t29.5 204z" />
<glyph unicode="*" d="M284 482l-30 -45q-17 -28 -56 -40q-12 -2 -17 0t1 13l72 100l-121 42q-8 2 0 12t20 20q33 27 55 18l54 -20l-2 69q-1 16 38 35t42 5l-3 -124l108 38q10 5 18.5 1.5t0.5 -16.5q-9 -16 -51 -32l-61 -21l67 -89q6 -9 -12 -25t-38.5 -23t-30.5 1z" />
<glyph unicode="+" d="M61 326q0 16 28.5 37t56.5 21h105v142q0 18 41 39q46 23 56 9q2 -3 2 -6v-184h172q18 0 18 -10q0 -15 -29 -36.5t-56 -21.5h-105v-142q0 -18 -41 -39q-46 -23 -56 -8q-2 2 -2 6v183h-173q-17 0 -17 10z" />
<glyph unicode="," d="M258 58q-2 17 23.5 32.5t49.5 17.5t30 -7q9 -59 -19.5 -135t-64.5 -111q-15 -16 -28 -11.5t-4 26.5q26 65 13 188z" />
<glyph unicode="-" d="M143 218q0 16 29 37t57 21h211q17 0 17 -10q0 -16 -28.5 -37t-56.5 -21h-211q-18 0 -18 10z" />
<glyph unicode="." d="M235 5v83q0 19 41.5 43t69.5 24q18 0 18 -13v-83q0 -19 -41 -43t-69 -24q-19 0 -19 13z" />
<glyph unicode="/" d="M86 -99l345 869q9 17 32 29.5t41 12.5q16 0 11 -13l-345 -868q-9 -18 -32 -30.5t-42 -12.5q-15 0 -10 13z" />
<glyph unicode="0" d="M96 170v326q0 86 69.5 149t169.5 63q76 0 122.5 -52.5t46.5 -125.5v-324q0 -88 -69.5 -151t-170.5 -63q-73 0 -120.5 52t-47.5 126zM196 215q0 -68 38 -111.5t99 -48.5q28 4 49 31.5t21 63.5v341q0 64 -39 107.5t-97 46.5q-29 -3 -50 -31t-21 -66v-333z" />
<glyph unicode="1" d="M496 0h-384q-16 0 -16 9q0 15 27.5 35.5t53.5 20.5h109l15 512l-180 -225q-28 -36 -65 -36q-11 0 -13 7t7 18l264 331q10 14 34 25t40 11q17 0 17 -14l-18 -629h175q16 0 16 -10q0 -15 -28 -35t-54 -20z" />
<glyph unicode="2" d="M451 0h-351q-11 0 -11 11q-3 67 13 118.5t45 83.5t64.5 57.5t71.5 47.5t66 45.5t49 59t19 81.5q0 51 -43 94.5t-103 46.5q-22 -2 -38 -18t-22.5 -36.5t-9 -35t-2.5 -22.5q0 -15 -35.5 -35.5t-58.5 -20.5q-15 0 -15 11q0 87 77 153.5t175 66.5q69 0 122.5 -52.5 t53.5 -122.5q0 -54 -18 -96.5t-46 -69t-62 -49.5t-68 -45.5t-61.5 -48.5t-44 -66.5t-14.5 -92.5h329q14 0 17 -7t-7 -20l-102 -113q-30 -33 -60 -33q-11 0 -14 6.5t5 16.5z" />
<glyph unicode="3" d="M69 190q0 15 32 34.5t54 20.5q14 0 14 -11q0 -67 45 -121t119 -58q37 7 58 42.5t21 85.5q0 60 -41.5 106.5t-124.5 46.5q-13 0 -13 8q0 15 31.5 34t59.5 21q29 4 49.5 35t20.5 66q0 16 -6.5 37t-20 46t-42 42.5t-66.5 19.5q-23 -4 -43.5 -38.5t-20.5 -72.5 q0 -16 -35.5 -37t-58.5 -20q-14 0 -14 11q0 92 73 156t167 64q74 0 121 -53.5t47 -114.5q0 -55 -29 -97.5t-66 -58.5q44 -9 78.5 -54t34.5 -100q0 -114 -74 -176t-170 -62q-92 0 -146 63.5t-54 134.5z" />
<glyph unicode="4" d="M95 9q0 15 28 35.5t54 20.5h121v227h-268q-10 0 -12.5 8t3.5 16l288 356q11 14 34 25t40 11q16 0 16 -14v-337h139q16 0 16 -9q0 -15 -27.5 -35.5t-53.5 -20.5h-74v-227h123q16 0 16 -10q0 -15 -27.5 -35t-53.5 -20h-346q-16 0 -16 9zM116 357h182v222z" />
<glyph unicode="5" d="M451 636h-183l-55 -240h157q83 0 133 -53.5t50 -121.5q0 -102 -70 -165.5t-168 -63.5q-84 0 -139.5 61.5t-55.5 135.5q0 16 32.5 35.5t54.5 19.5q14 0 14 -10q0 -72 43.5 -122t115.5 -57q32 6 52 34t20 75q0 77 -44.5 122.5t-113.5 45.5h-171q-21 0 -17 19l65 294 q5 18 31.5 36.5t50.5 18.5h263q16 0 16 -9q0 -15 -27.5 -35t-53.5 -20z" />
<glyph unicode="6" d="M282 -8q-76 0 -131 51t-55 118v285q0 58 26.5 116.5t85.5 102t136 43.5q71 0 117.5 -48.5t46.5 -118.5q0 -16 -32.5 -35.5t-54.5 -19.5q-14 0 -14 11q0 56 -37.5 98.5t-93.5 46.5q-79 -6 -79 -161v-144q62 46 146 46q75 0 129 -51t54 -121q0 -94 -77.5 -156.5 t-166.5 -62.5zM346 55q40 3 60 35t20 79q0 60 -45.5 104t-107.5 47q-39 -3 -57.5 -37t-18.5 -77q0 -60 45 -104t104 -47z" />
<glyph unicode="7" d="M112 7l146 310h-138q-17 0 -17 10q0 15 28 35t54 20h103l122 253h-323q-17 0 -17 9q0 15 28 35.5t54 20.5h374q8 0 13.5 -4.5t2.5 -11.5l-143 -302h122q17 0 17 -9q0 -15 -28 -35.5t-54 -20.5h-88l-129 -272q-10 -21 -47 -37t-66 -16q-9 0 -13 5t-1 10z" />
<glyph unicode="8" d="M272 -8q-80 0 -134 54t-54 122q0 65 29 110t71 69q-42 20 -68.5 58t-26.5 90q0 84 69 148.5t168 64.5q72 0 124 -49.5t52 -116.5q0 -47 -25.5 -92t-69.5 -75q108 -46 108 -166q0 -85 -65 -151t-178 -66zM333 55q35 3 58 31.5t23 68.5q0 60 -41.5 112t-106.5 58 q-34 -3 -57.5 -32t-23.5 -68q0 -62 42 -112.5t106 -57.5zM327 396q32 3 53.5 33t21.5 70q0 55 -40 98.5t-100 47.5q-29 -3 -50.5 -30.5t-21.5 -68.5q0 -54 37.5 -100t99.5 -50z" />
<glyph unicode="9" d="M260 -8q-81 0 -122.5 56t-35.5 131q1 16 33 36t54 20q14 0 14 -11q-4 -72 25 -117t89 -49q86 6 86 168v133q-71 -49 -147 -49t-129.5 50t-53.5 123q0 97 77.5 161t166.5 64q82 0 134 -58.5t52 -130.5v-258q0 -68 -26.5 -128t-83.5 -100.5t-133 -40.5zM326 374 q33 2 55 34.5t22 81.5q0 63 -45.5 107.5t-108.5 47.5q-37 -3 -56 -36.5t-19 -81.5q0 -62 44.5 -106t107.5 -47z" />
<glyph unicode=":" d="M235 5v83q0 19 41.5 43t69.5 24q18 0 18 -13v-83q0 -19 -41 -43t-69 -24q-19 0 -19 13zM235 283v83q0 19 41.5 43t69.5 24q18 0 18 -13v-83q0 -19 -41 -43t-69 -24q-19 0 -19 13z" />
<glyph unicode=";" d="M258 58q-2 17 23.5 32.5t49.5 17.5t30 -7q9 -59 -19.5 -135t-64.5 -111q-15 -16 -28 -11.5t-4 26.5q26 65 13 188zM241 283v83q0 19 41.5 43t69.5 24q18 0 18 -13v-83q0 -19 -41 -43t-69 -24q-19 0 -19 13z" />
<glyph unicode="&#x3c;" d="M193 372l324 -157q17 -9 -16 -40q-35 -35 -58 -32q-3 0 -5 1l-350 172q-10 6 -6.5 18t14.5 24.5t23 19.5l334 185q49 29 71 9q6 -7 -4.5 -17.5t-22.5 -16.5z" />
<glyph unicode="=" d="M61 257q0 16 28.5 37t56.5 21h377q18 0 18 -10q0 -16 -29 -37t-57 -21h-377q-17 0 -17 10zM61 396q0 15 28.5 36.5t56.5 21.5h377q18 0 18 -10q0 -16 -29 -37t-57 -21h-377q-17 0 -17 10z" />
<glyph unicode="&#x3e;" d="M408 358l-324 158q-16 8 16 39q34 35 58 33l6 -2l350 -172q14 -9 1 -30t-33 -32l-334 -184q-50 -30 -70 -10q-6 7 4 17t22 17z" />
<glyph unicode="?" d="M235 5v83q0 19 41.5 43t69.5 24q18 0 18 -13v-83q0 -19 -41.5 -43t-69.5 -24q-18 0 -18 13zM249 212q0 32 7.5 57.5t25.5 48.5t30 35t38 35q36 31 49.5 55.5t13.5 60.5q0 49 -40 93.5t-98 47.5q-60 -10 -72 -106q-1 -16 -36 -36.5t-58 -20.5q-14 0 -14 11q0 87 76.5 151 t174.5 64q69 0 120 -50.5t51 -116.5q0 -41 -18 -76.5t-37.5 -54.5t-52.5 -45q-57 -45 -57 -110q0 -16 -32.5 -35.5t-55.5 -19.5q-15 0 -15 12z" />
<glyph unicode="@" d="M279 93q-41 0 -67 26t-26 63v50q0 55 44 92t103 37q41 0 70 -26.5t29 -67.5v-101q56 32 56 107q0 68 -56 116t-136 48q-75 0 -123.5 -56.5t-48.5 -135.5q0 -95 56.5 -163.5t141.5 -68.5q74 0 159 60q24 15 36 10q14 -6 -10 -25q-110 -81 -214 -81q-102 0 -166 74.5 t-64 168.5q0 107 84.5 182t185.5 75q97 0 155 -55.5t58 -133.5q0 -94 -114 -154v-20q0 -7 -23 -18t-37 -11q-8 0 -8 6v27q-50 -25 -85 -25zM313 137q19 0 51 13v90q0 38 -21 60t-54 24q-14 -4 -23 -19.5t-10 -34.5l-1 -51q-1 -40 14.5 -61t43.5 -21z" />
<glyph unicode="A" d="M41 3l209 634q10 31 36.5 51t49.5 20q16 0 22 -19l195 -639q5 -19 -27 -38.5t-55 -19.5q-11 0 -12 6l-69 246h-199l-61 -196q-7 -20 -32.5 -38t-45.5 -18q-16 0 -11 11zM212 308h161l-75 272z" />
<glyph unicode="B" d="M122 10v634q0 16 31.5 36t54.5 20h114q44 0 78 -16.5t52 -42.5t27 -52t9 -50q0 -85 -78 -141q60 -12 101 -61t41 -115q0 -94 -74.5 -158t-178.5 -64h-163q-14 0 -14 10zM223 64h156q34 5 53.5 40t19.5 79q0 66 -48.5 115t-115.5 49h-65v-283zM223 408h93q74 8 74 105 q0 48 -35.5 86.5t-86.5 38.5h-45v-230z" />
<glyph unicode="C" d="M291 -8q-67 0 -121 50t-54 135v314q0 86 71.5 151.5t170.5 65.5q78 0 118.5 -51.5t40.5 -113.5q0 -17 -34 -39.5t-55 -22.5q-12 0 -12 10q0 57 -35.5 103.5t-94.5 50.5q-28 -4 -49 -37t-21 -72v-320q0 -65 41.5 -110t98.5 -48q32 2 56.5 39.5t24.5 96.5q0 15 38.5 37.5 t61.5 22.5q13 0 13 -10q0 -42 -17 -85.5t-48 -81t-82 -61.5t-112 -24z" />
<glyph unicode="D" d="M29 9q0 13 21.5 30.5t45.5 21.5h28v575h-62q-16 0 -16 9q0 15 27.5 35t53.5 20h212q74 0 128.5 -57t54.5 -143v-278q0 -93 -75 -157.5t-173 -64.5h-228q-17 0 -17 9zM225 64h124q32 5 52 39.5t20 75.5v288q0 64 -41.5 116t-99.5 55h-55v-574z" />
<glyph unicode="E" d="M66 327q0 15 28 35t54 20h4v262q0 15 31 35.5t56 20.5h287q16 0 16 -9q0 -15 -27.5 -35t-53.5 -20h-209v-254h196q16 0 16 -9q0 -15 -27.5 -35t-53.5 -20h-131v-253h275q16 0 16 -10q0 -15 -28 -35t-54 -20h-294q-15 0 -15 10v308h-70q-16 0 -16 9z" />
<glyph unicode="F" d="M66 327q0 15 28 35t54 20h20v262q0 15 31.5 35.5t55.5 20.5h304q16 0 16 -9q0 -15 -27.5 -35t-53.5 -20h-225v-254h222q17 0 17 -9q0 -15 -28 -35t-54 -20h-157v-271q0 -15 -32 -35t-54 -20q-15 0 -15 12v314h-86q-16 0 -16 9z" />
<glyph unicode="G" d="M262 -8q-65 0 -114 48t-49 134v317q0 86 71.5 151.5t171.5 65.5q80 0 119.5 -50t39.5 -115q0 -17 -34 -39.5t-55 -22.5q-12 0 -12 10q0 57 -35.5 103.5t-95.5 50.5q-28 -4 -49 -37t-21 -72v-323q0 -65 40.5 -110t96.5 -48q36 4 63 36t27 77v112l-45 -33q-39 -29 -58 -14 q-14 12 12 34l118 90q50 39 68 26q5 -3 5 -9v-169q0 -81 -77 -147t-187 -66z" />
<glyph unicode="H" d="M95 3v650q0 16 32 35.5t54 19.5q15 0 15 -11v-315h208v271q0 16 31.5 35.5t53.5 19.5q15 0 15 -11v-650q0 -16 -31.5 -35.5t-53.5 -19.5q-15 0 -15 11v315h-208v-271q0 -16 -31.5 -35.5t-53.5 -19.5q-16 0 -16 11z" />
<glyph unicode="I" d="M78 9q0 15 27.5 35.5t53.5 20.5h93v571h-136q-17 0 -17 9q0 14 27.5 34.5t53.5 20.5h312q16 0 16 -9q0 -15 -27.5 -35t-53.5 -20h-74v-571h151q16 0 16 -10q0 -15 -27.5 -35t-53.5 -20h-345q-16 0 -16 9z" />
<glyph unicode="J" d="M247 -8q-79 0 -133 61.5t-54 134.5q0 15 32 34.5t54 19.5q15 0 15 -12q0 -61 44 -117.5t113 -57.5q28 3 49.5 31t21.5 65v502q0 16 31.5 35.5t53.5 19.5q15 0 15 -11v-492q0 -85 -70.5 -149t-171.5 -64z" />
<glyph unicode="K" d="M124 3v650q0 16 31.5 35.5t54.5 19.5q15 0 15 -11v-294l199 260q33 45 73 45q7 0 9.5 -4t1 -9.5t-6.5 -11.5l-208 -273l282 -356q3 -3 3 -7q0 -16 -26.5 -35.5t-46.5 -19.5q-9 0 -15 7l-263 340h-2v-291q0 -16 -32 -36t-54 -20q-15 0 -15 11z" />
<glyph unicode="L" d="M136 10l13 643q1 17 32.5 36t53.5 19q15 0 15 -10l-14 -633h300q16 0 16 -10q0 -15 -27.5 -35t-53.5 -20h-320q-15 0 -15 10z" />
<glyph unicode="M" d="M88 3l3 651q0 16 29 35t50 19q10 0 14 -7l127 -315l99 270q8 21 36 36.5t53 15.5q12 0 12 -10v-651q0 -16 -28.5 -35.5t-48.5 -19.5q-14 0 -14 11l3 558l-88 -250q-4 -11 -21 -23t-29 -12q-11 0 -18 15l-99 271l8 -515q1 -16 -27 -35.5t-48 -19.5q-13 0 -13 11z" />
<glyph unicode="N" d="M95 3v649q0 16 30.5 36t51.5 20q11 0 12 -6l232 -556l-7 507q0 16 28.5 35.5t48.5 19.5q14 0 14 -11v-648q0 -17 -31 -37t-52 -20q-10 0 -12 6l-231 553l6 -503q1 -16 -27.5 -36t-49.5 -20q-13 0 -13 11z" />
<glyph unicode="O" d="M96 170v326q0 86 69.5 149t169.5 63q76 0 122.5 -52.5t46.5 -125.5v-324q0 -88 -69.5 -151t-170.5 -63q-73 0 -120.5 52t-47.5 126zM196 215q0 -68 38 -111.5t99 -48.5q28 4 49 31.5t21 63.5v341q0 64 -39 107.5t-97 46.5q-29 -3 -50 -31t-21 -66v-333z" />
<glyph unicode="P" d="M117 3v642q0 14 33.5 34.5t58.5 20.5h156q82 0 128 -55t46 -131v-40q0 -90 -78 -156t-173 -66h-70v-204q0 -16 -32 -36t-54 -20q-15 0 -15 11zM218 316h143q30 5 53.5 40t23.5 80v39q0 67 -41.5 115t-103.5 48h-75v-322z" />
<glyph unicode="Q" d="M94 170v326q0 86 69.5 149t169.5 63q76 0 122.5 -52.5t46.5 -125.5v-324q0 -79 -58 -140l63 -71q3 -3 3 -8q-1 -20 -37 -41t-49 -6l-62 71q-49 -19 -100 -19q-73 0 -120.5 52t-47.5 126zM194 215q0 -65 35.5 -108t93.5 -51l-46 53q-3 3 -3 8q0 20 36 41.5t48 5.5l39 -44 q4 18 4 30v341q0 64 -39 107.5t-97 46.5q-29 -3 -50 -31t-21 -66v-333z" />
<glyph unicode="R" d="M110 3v641q0 18 29 37t54 19h143q80 0 122.5 -51t42.5 -108q0 -71 -55 -123t-129 -64l236 -300q2 -4 2 -7q1 -15 -25.5 -35t-46.5 -20q-9 0 -15 7l-257 346v-297q0 -16 -32 -36t-54 -20q-15 0 -15 11zM211 403h117q30 4 52 35t22 72q0 51 -36 89.5t-94 38.5h-61v-235z " />
<glyph unicode="S" d="M271 -8q-66 0 -114.5 32t-69.5 74t-24 86q-1 17 31 39.5t53 22.5q12 0 12 -11q0 -66 48 -122.5t121 -57.5q40 2 67 35.5t27 73.5q0 45 -18 74t-72 60l-134 75q-96 54 -96 154q0 73 61.5 128t157.5 53q67 -1 112.5 -52t45.5 -109q0 -17 -31 -38t-51 -21q-12 0 -12 10 q-1 55 -37.5 100t-90.5 47q-27 -3 -43 -30.5t-16 -57.5q0 -69 78 -113l138 -79q108 -60 108 -159q0 -97 -72 -155.5t-179 -58.5z" />
<glyph unicode="T" d="M250 3v633h-199q-16 0 -16 9q0 15 28 35t54 20h438q17 0 17 -9q0 -15 -28 -35t-54 -20h-139v-589q0 -16 -31.5 -35.5t-54.5 -19.5q-15 0 -15 11z" />
<glyph unicode="U" d="M264 -8q-73 0 -120.5 52t-47.5 126v483q0 16 31.5 35.5t54.5 19.5q14 0 14 -11v-482q0 -68 38 -111.5t99 -48.5q28 4 49 31.5t21 63.5v503q0 16 31.5 35.5t54.5 19.5q15 0 15 -11v-491q0 -88 -69.5 -151t-170.5 -63z" />
<glyph unicode="V" d="M269 -8q-16 0 -22 19l-194 639q-6 18 26 38t55 20q9 0 12 -6l162 -572l148 522q6 20 31.5 38t45.5 18q15 0 11 -11l-178 -600q-14 -48 -40 -76.5t-57 -28.5z" />
<glyph unicode="W" d="M93 2l-7 651q0 16 29 35.5t50 19.5q12 0 12 -11l1 -537l86 235q5 15 21.5 26.5t30.5 11.5q10 0 14.5 -4.5t9.5 -18.5l84 -241v484q0 16 27.5 35.5t47.5 19.5q13 0 13 -11l-9 -650q0 -16 -29.5 -35.5t-48.5 -19.5q-9 0 -13 9l-119 323l-107 -280q-8 -22 -32 -37t-50 -15 q-11 0 -11 10z" />
<glyph unicode="X" d="M247 345l-162 306q-8 16 25.5 36.5t52.5 20.5q9 0 12 -6l139 -268l112 222q11 19 36 35.5t50 16.5q14 0 6 -17l-169 -327l171 -318q9 -17 -23 -35.5t-55 -18.5q-8 0 -13 6l-146 278l-117 -238q-9 -18 -32 -32t-46 -14q-18 0 -9 18z" />
<glyph unicode="Y" d="M112 9q0 15 28 35.5t54 20.5h58v266l-190 315q-9 15 20.5 38.5t52.5 23.5q10 0 14 -6l165 -288l144 248q11 20 34 33t42 13q22 0 12 -17l-193 -331v-295h107q16 0 16 -10q0 -15 -27.5 -35t-53.5 -20h-267q-16 0 -16 9z" />
<glyph unicode="Z" d="M59 21l330 615h-293q-16 0 -16 9q0 15 27.5 35t53.5 20h355q21 0 13 -18l-333 -617h340q16 0 16 -10q0 -15 -27.5 -35t-53.5 -20h-401q-9 0 -12.5 5.5t1.5 15.5z" />
<glyph unicode="[" d="M143 -173v811q0 17 31 36.5t56 19.5h208q17 0 17 -9q0 -15 -28 -35.5t-54 -20.5h-130v-747h196q16 0 16 -9q0 -15 -27.5 -35.5t-53.5 -20.5h-217q-14 0 -14 10z" />
<glyph unicode="\" d="M438 -105l-349 877q-4 11 11.5 21t32 11t23.5 -8l349 -875q4 -11 -11.5 -21.5t-32.5 -11.5t-23 7z" />
<glyph unicode="]" d="M145 -173q0 15 28 35t54 20h130v747h-196q-16 0 -16 10q0 15 27.5 35t53.5 20h217q14 0 14 -10v-811q0 -17 -31 -36.5t-56 -19.5h-208q-17 0 -17 10z" />
<glyph unicode="^" d="M293 610q-40 -75 -101 -180t-70 -107q-21 -23 -38 -16q-10 4 -4 16l194 353q11 19 40.5 28t36.5 -4l172 -349q6 -12 -15 -27.5t-43 -19t-31 6.5z" />
<glyph unicode="_" d="M-49 -75q0 16 29 37t57 21h595q17 0 17 -10q0 -16 -28.5 -37t-56.5 -21h-595q-18 0 -18 10z" />
<glyph unicode="`" d="M193 702q-8 9 8 25.5t35.5 22.5t29.5 -3l105 -164q6 -9 -4 -21t-23.5 -15t-22.5 4z" />
<glyph unicode="a" d="M77 103q0 62 61.5 106.5t119.5 44.5h140v23q0 48 -36 87.5t-91 42.5q-29 -2 -48.5 -27t-19.5 -56q0 -12 -35 -30.5t-58 -18.5q-15 0 -15 10q0 72 75 125.5t159 53.5q67 0 116.5 -43t49.5 -105v-275q0 -13 -30 -31t-51 -18q-14 0 -14 11v42q-40 -24 -93.5 -38.5 t-95.5 -14.5q-56 0 -95 31.5t-39 79.5zM174 143q0 -41 33.5 -66.5t75.5 -25.5q74 0 115 35v109h-163q-31 0 -46 -11t-15 -41z" />
<glyph unicode="b" d="M112 2v656q0 14 31 32t52 18q14 0 14 -11v-289q70 56 152 56q75 0 124.5 -51t49.5 -114v-93q0 -84 -75.5 -149t-168.5 -65q-48 0 -105 37l-1 -4q-6 -12 -26 -22.5t-33 -10.5q-14 0 -14 10zM209 110q88 -62 150 -62q31 2 50 23.5t24 42t5 41.5v100q0 58 -43 104.5 t-108 48.5q-42 -4 -60 -36.5t-18 -67.5v-194z" />
<glyph unicode="c" d="M94 157v92q0 87 75 151t166 64q81 0 126.5 -52t45.5 -118q0 -14 -40 -35q-48 -25 -57 -9q-1 3 -1 6q0 57 -38.5 103t-105.5 49q-36 -6 -55 -40.5t-19 -80.5v-85q0 -55 42.5 -103.5t103.5 -48.5q48 0 132 50q32 20 50 10q8 -7 3.5 -15.5t-15.5 -14.5q-143 -88 -237 -88 q-77 0 -126.5 51.5t-49.5 113.5z" />
<glyph unicode="d" d="M79 156v94q0 84 74.5 149t164.5 65q47 0 86 -27v221q0 14 31 32t52 18q15 0 15 -11v-656q0 -12 -32 -30.5t-52 -18.5q-14 0 -14 11v36q-81 -47 -152 -47q-76 0 -124.5 51t-48.5 113zM176 202q0 -55 42.5 -103.5t102.5 -48.5q29 0 83 27v178q0 57 -43 104t-107 49 q-43 -4 -60.5 -38t-17.5 -70v-98z" />
<glyph unicode="e" d="M189 205v-13q0 -49 42 -95.5t103 -46.5q55 0 139 50q32 20 51 10q8 -7 3 -15.5t-16 -14.5q-143 -88 -244 -88q-77 0 -126.5 51.5t-49.5 113.5v90q0 61 38.5 112t93 78t107.5 27q85 0 137 -54t52 -142v-13q0 -16 -34.5 -33t-54.5 -17h-241zM189 254h233q-10 73 -54 113 t-104 41q-34 -3 -54.5 -33t-20.5 -76v-45z" />
<glyph unicode="f" d="M63 9q0 14 24.5 32.5t48.5 19.5h40v466q0 73 62.5 127t143.5 54q64 0 103 -43.5t39 -95.5q0 -12 -31.5 -30t-52.5 -18q-13 0 -13 10q0 48 -30.5 83t-73.5 37q-15 -1 -25 -8.5t-15 -15.5t-7 -24.5t-2.5 -25t-0.5 -28.5v-200h216q14 0 14 -9q0 -13 -25 -32.5t-48 -19.5 h-157v-227h189q15 0 15 -9q0 -14 -26 -33t-51 -19h-322q-15 0 -15 9z" />
<glyph unicode="g" d="M276 250q-10 0 -15 7t-3.5 17.5t11.5 20.5l79 84q-39 28 -93 29q-36 -4 -56.5 -33.5t-20.5 -75.5v-87q0 -86 87 -116l134 -50q54 -19 79 -45t25 -70q0 -69 -70.5 -120.5t-169.5 -51.5q-63 0 -117 39.5t-54 96.5q0 16 40 36q46 24 56 9q2 -2 2 -6q0 -45 43 -81.5 t106 -36.5q27 2 47 21.5t20 51.5q0 61 -71 88l-139 51q-61 22 -88 60t-27 100v58q0 92 77.5 155t165.5 63q47 0 85 -20l65 69q9 9 19 9q16 0 19 -15t-11 -30l-55 -58q58 -52 58 -126v-26q-1 -106 -113 -164q-6 -3 -13 -3q-11 0 -14.5 6.5t4.5 16.5q39 28 39 136q0 50 -28 88 l-84 -88q-7 -9 -19 -9z" />
<glyph unicode="h" d="M104 3v655q0 14 30.5 32t51.5 18q15 0 15 -11v-289q70 56 152 56q75 0 124.5 -51t49.5 -114v-258q0 -12 -32 -30.5t-52 -18.5q-14 0 -14 11v252q0 58 -43 104.5t-107 48.5q-42 -3 -60 -35t-18 -67v-265q0 -12 -32 -30.5t-52 -18.5q-13 0 -13 11z" />
<glyph unicode="i" d="M81 9q0 14 26 33t50 19h132v314l-140 -87q-50 -29 -70 -19q-8 7 -2.5 15.5t19.5 16.5l227 144q32 19 54 19q10 0 10 -8v-395h153q15 0 15 -9q0 -14 -26 -33t-50 -19h-383q-15 0 -15 9zM266 553v85q0 17 43 42t70 25q19 0 19 -14v-85q0 -17 -43 -42t-70 -25q-19 0 -19 14z " />
<glyph unicode="j" d="M63 -103q0 12 31.5 30.5t51.5 18.5q14 0 14 -11q0 -46 32 -82t81 -37q58 5 58 96v462l-187 -116q-48 -30 -69 -18q-8 7 -2.5 15t18.5 16l274 174q32 19 54 19q10 0 10 -8v-509q0 -77 -66.5 -132.5t-147.5 -55.5q-65 0 -108.5 41.5t-43.5 96.5zM309 553v85q0 17 42.5 42 t69.5 25q19 0 19 -14v-85q0 -17 -43 -42t-70 -25q-18 0 -18 14z" />
<glyph unicode="k" d="M142 3v655q0 14 30.5 32t51.5 18q15 0 15 -11v-435l192 167q41 37 72 34q17 -1 6 -19q-4 -7 -11 -12l-163 -144l212 -238q6 -7 -5 -21t-30.5 -25.5t-34.5 -11.5q-9 0 -13 6l-201 227l-24 -21v-163q0 -12 -32 -30.5t-52 -18.5q-13 0 -13 11z" />
<glyph unicode="l" d="M49 9q0 14 26 33t50 19h131v578h-138q-15 0 -15 9q0 14 26 33t50 19h161q13 0 13 -9v-630h161q15 0 15 -9q0 -14 -25.5 -33t-50.5 -19h-389q-15 0 -15 9z" />
<glyph unicode="m" d="M81 1v413q0 14 23 32t39 18q12 0 12 -11v-46q16 25 43 41t58 16q58 0 74 -61q17 27 46 44t60 17q41 0 62 -28t21 -72v-331q0 -11 -24.5 -26t-41.5 -15q-11 0 -11 9v322q0 33 -18 56.5t-43 26.5q-17 -2 -29.5 -28t-12.5 -61v-284q0 -11 -24.5 -26t-41.5 -15q-11 0 -11 9 v323q0 34 -18 57t-43 26q-17 -2 -29.5 -30.5t-12.5 -66.5v-277q0 -10 -24.5 -25.5t-41.5 -15.5q-12 0 -12 9z" />
<glyph unicode="n" d="M92 3v411q0 14 30.5 32t51.5 18q15 0 15 -11v-45q68 56 152 56q75 0 124.5 -51t49.5 -114v-258q0 -12 -32 -30.5t-52 -18.5q-13 0 -13 11v252q0 58 -43 104.5t-108 48.5q-42 -3 -60 -35t-18 -67v-265q0 -12 -32 -30.5t-52 -18.5q-13 0 -13 11z" />
<glyph unicode="o" d="M89 156v94q0 84 75.5 149t170.5 65q75 0 125.5 -51t50.5 -114v-93q0 -84 -75.5 -149t-170.5 -65q-75 0 -125.5 51t-50.5 113zM186 202q0 -58 43 -105.5t107 -48.5q30 2 49 23.5t24 42t5 41.5v98q0 58 -43 105.5t-107 49.5q-43 -4 -60.5 -38t-17.5 -70v-98z" />
<glyph unicode="p" d="M103 -230v644q0 13 30.5 31.5t51.5 18.5q15 0 15 -11v-45q70 56 152 56q75 0 124.5 -51t49.5 -114v-88q0 -84 -75.5 -149t-170.5 -65h-80v-189q0 -12 -31.5 -30.5t-51.5 -18.5q-14 0 -14 11zM200 56h150q44 4 61.5 36.5t17.5 68.5v94q0 58 -43 104.5t-108 48.5 q-42 -3 -60 -35t-18 -67v-250z" />
<glyph unicode="q" d="M77 156v94q0 84 74.5 149t167.5 65q81 0 131 -52t50 -113v-491q0 -12 -32 -30.5t-52 -18.5q-14 0 -14 11v268q-85 -46 -152 -46q-75 0 -124 51t-49 113zM174 202q0 -55 42.5 -103.5t102.5 -48.5q29 0 83 27v176q0 58 -43 105.5t-107 49.5q-43 -4 -60.5 -38t-17.5 -70v-98 z" />
<glyph unicode="r" d="M48 9q0 14 26 33t50 19h43v353q0 14 30.5 32t51.5 18q15 0 15 -11v-37q58 48 114 48q59 0 100 -38.5t41 -106.5q0 -12 -31.5 -30.5t-51.5 -18.5q-14 0 -14 11q0 49 -24.5 86.5t-75.5 39.5q-24 -4 -41 -29.5t-17 -55.5v-261h236q15 0 15 -9q0 -14 -25.5 -33t-50.5 -19 h-376q-15 0 -15 9z" />
<glyph unicode="s" d="M280 -8q-84 0 -130 34.5t-59 80.5q-5 17 23.5 38t50.5 21q13 0 14 -9q12 -41 59 -75t102 -34q74 10 74 65q0 44 -74 67l-137 43q-39 12 -62.5 38.5t-23.5 60.5q0 54 65.5 98t150.5 44q61 0 100.5 -25t51.5 -66q3 -16 -27 -35.5t-51 -19.5q-11 0 -12 7q-10 35 -49 59.5 t-81 23.5q-58 -5 -58 -55q0 -43 75 -66l137 -42q94 -28 94 -100q0 -66 -71.5 -109.5t-161.5 -43.5z" />
<glyph unicode="t" d="M148 140v473q0 14 31 32t52 18q14 0 14 -11v-196h242q15 0 15 -9q0 -13 -25 -32.5t-48 -19.5h-184v-214q0 -50 33.5 -90t88.5 -43q28 2 45.5 31.5t17.5 61.5q0 12 35.5 31t58.5 19q14 0 14 -11q0 -74 -71 -131t-155 -57q-67 0 -115.5 43t-48.5 105z" />
<glyph unicode="u" d="M83 163l5 252q0 12 32 30.5t52 18.5q13 0 13 -11l-5 -246q-2 -60 33.5 -108.5t102.5 -48.5q39 0 93 27v337q0 12 31.5 31t51.5 19q14 0 14 -11v-412q0 -13 -31 -31t-52 -18q-14 0 -14 11v37q-87 -48 -162 -48q-82 0 -123.5 52t-40.5 119z" />
<glyph unicode="v" d="M276 -8q-10 0 -15 9l-177 411q-6 14 23 33t51 19q9 0 12 -6l152 -355l129 311q7 18 31.5 34t42.5 16q13 0 8 -12l-170 -402q-8 -19 -37 -38.5t-50 -19.5z" />
<glyph unicode="w" d="M119 -8q-21 0 -21 31l-6 394q-1 12 28.5 29.5t49.5 17.5q14 0 14 -11v-357l73 172q8 17 28.5 33t33.5 18q12 2 18 -11l88 -194l-1 303q0 12 29 29.5t48 17.5q14 0 14 -11l-11 -403q-1 -21 -31 -39.5t-52 -18.5q-15 0 -26 21l-106 223l-83 -191q-8 -18 -36 -35.5 t-51 -17.5z" />
<glyph unicode="x" d="M245 214l-157 193q-6 8 6 21.5t32.5 24.5t35.5 11q10 0 15 -6l135 -172l112 141q10 13 27 25t34 12q13 0 13 -13q0 -7 -6 -14l-148 -186l168 -203q6 -7 -6 -20.5t-32.5 -24.5t-35.5 -11q-9 0 -14 6l-146 182l-118 -151q-10 -13 -28 -25t-34 -12q-14 0 -14 10q0 8 9 21z " />
<glyph unicode="y" d="M82 163l4 252q0 12 32.5 30.5t52.5 18.5q13 0 13 -11l-5 -246q-2 -60 33.5 -108.5t102.5 -48.5q30 0 92 26v338q0 12 32 31t52 19q14 0 14 -11v-482q0 -89 -75.5 -150.5t-166.5 -61.5q-81 0 -185 60q-9 6 9.5 25t45 33.5t35.5 8.5q121 -71 168 -71q71 11 71 120v104 q-87 -47 -161 -47q-83 0 -124 52t-40 119z" />
<glyph unicode="z" d="M75 404q0 14 26 33t50 19h351q10 0 12.5 -7t-3.5 -15l-283 -373h282q15 0 15 -9q0 -14 -25.5 -33t-50.5 -19h-365q-10 0 -10.5 8t5.5 16l282 371h-271q-15 0 -15 9z" />
<glyph unicode="{" d="M265 271q60 -25 78.5 -86t18.5 -160q0 -46 3.5 -80t15.5 -71t39.5 -57t69.5 -20q6 0 8.5 -4t-0.5 -10q-9 -17 -36 -32.5t-53 -15.5q-36 0 -61.5 14t-38.5 34t-21 55.5t-10 63t-4.5 73t-5.5 70.5q-11 97 -50.5 139.5t-107.5 42.5q-9 3 -6.5 10t8.5 13q10 14 35.5 24.5 t53.5 10.5q39 16 54.5 74.5t21 139.5t14.5 110q21 83 75.5 125.5t123.5 42.5q11 0 11 -7q0 -13 -28 -33t-61 -20q-9 -5 -16.5 -17t-13 -30.5t-9 -36t-6 -43.5t-4 -42.5t-3 -43t-2.5 -36.5q-11 -140 -93 -197z" />
<glyph unicode="|" d="M250 -154v966q0 16 32 36t54 20q14 0 14 -11v-966q0 -16 -32 -36t-54 -20q-14 0 -14 11z" />
<glyph unicode="}" d="M336 241q-60 25 -78.5 86.5t-17.5 159.5q0 45 -3.5 79.5t-16 71.5t-40 57t-69.5 20q-15 0 -8 14q9 17 36 32.5t54 15.5q36 0 61.5 -14t38.5 -34t21 -55.5t10 -63t4.5 -73t4.5 -70.5q11 -97 50.5 -139.5t107.5 -42.5q6 0 7.5 -3t-0.5 -7t-4 -7.5t-4 -5.5 q-11 -14 -36 -24.5t-53 -10.5q-39 -15 -53 -74.5t-18 -139.5t-13 -110q-21 -83 -75.5 -125.5t-123.5 -42.5q-11 0 -11 7q0 13 28 33t61 20q9 5 16.5 17t12.5 30.5t8.5 36t5.5 43.5t3.5 42.5t2.5 43t2 36.5q5 71 25 118.5t64 78.5z" />
<glyph unicode="~" d="M366 292q-34 0 -106.5 25t-94.5 27q-35 -40 -59 -40q-13 0 -10 11q8 31 48 62t88 31q36 0 108.5 -25t93.5 -27q39 39 58 39q6 0 9 -2.5t2 -6.5q-5 -32 -46.5 -63t-90.5 -31z" />
<glyph unicode="&#xa0;" />
<glyph unicode="&#xa1;" d="M365 484v-83q0 -19 -41.5 -43t-69.5 -24q-18 0 -18 13v83q0 19 41 43t69 24q19 0 19 -13zM349 267l9 -430q1 -16 -37 -36t-63 -20q-15 0 -15 10l7 433q0 16 31.5 35t53.5 19q14 0 14 -11z" />
<glyph unicode="&#xa2;" d="M91 221v93q0 68 46 120t111 77v50q0 15 32 34.5t54 19.5q15 0 15 -12v-76q73 -6 117.5 -55.5t44.5 -114.5q0 -12 -32 -30.5t-52 -18.5q-13 0 -13 11q0 57 -41.5 104.5t-106.5 49.5q-35 -7 -56.5 -40t-21.5 -79v-87q0 -56 41.5 -104t103.5 -48q46 0 126 46q40 25 58 13 q10 -6 0 -16.5t-22 -17.5q-90 -53 -142 -69v-50q0 -15 -31.5 -34t-53.5 -19q-16 0 -16 12v77q-71 6 -116 55.5t-45 108.5z" />
<glyph unicode="&#xa3;" d="M67 327q0 15 28 35t54 20h4v113q0 84 66.5 148.5t160.5 64.5q59 0 105 -47t46 -117q0 -17 -41 -39q-46 -25 -57 -11q-2 3 -2 7q0 56 -33.5 100t-85.5 45q-35 -3 -46.5 -37t-11.5 -94v-133h183q16 0 16 -9q0 -15 -28 -35t-54 -20h-117v-150q0 -60 -54 -103h339 q17 0 17 -10q0 -15 -29 -35t-60 -20h-394q-17 0 -17 9q0 24 84 69q13 16 13 38v202h-69q-17 0 -17 9z" />
<glyph unicode="&#xa4;" d="M78 286q0 58 38 111l-74 75q-8 8 10.5 26t44 28.5t35.5 0.5l59 -59q64 41 128 41q67 0 121 -46l39 39q31 33 67 30q8 0 9.5 -4.5t-1 -9.5t-6.5 -9l-75 -77q49 -62 49 -136q0 -65 -44 -122l78 -77q8 -8 -10.5 -26t-44 -28.5t-35.5 -0.5l-63 62q-60 -37 -124 -37 q-66 0 -119 42l-40 -40q-32 -32 -68 -31q-8 0 -10 4.5t1 9.5t7 9l78 80q-50 61 -50 145zM172 302q0 -72 38.5 -122t104.5 -50q54 0 83.5 42t29.5 106q0 70 -39.5 119t-103.5 49q-51 0 -82 -40t-31 -104z" />
<glyph unicode="&#xa5;" d="M112 9q0 15 28 35.5t54 20.5h58v251h-179q-16 0 -16 9q0 15 28 35t54 20h83l-160 266q-9 15 20.5 38.5t52.5 23.5q10 0 14 -6l165 -288l144 248q11 20 34 33t42 13q22 0 12 -17l-182 -311h161q16 0 16 -9q0 -15 -27.5 -35t-53.5 -20h-107v-251h107q16 0 16 -10 q0 -15 -27.5 -35t-53.5 -20h-267q-16 0 -16 9z" />
<glyph unicode="&#xa6;" d="M250 -154v366q0 16 32 36t54 20q14 0 14 -11v-366q0 -16 -32 -36t-54 -20q-14 0 -14 11zM250 446v366q0 16 32 36t54 20q14 0 14 -11v-366q0 -16 -32 -36t-54 -20q-14 0 -14 11z" />
<glyph unicode="&#xa7;" d="M258 -63q-67 1 -111 50.5t-44 107.5q0 17 29.5 38t49.5 21q12 0 12 -10q1 -54 37.5 -98t90.5 -46q28 3 43.5 30.5t15.5 57.5q0 35 -17.5 61t-60.5 49l-136 72q-55 29 -84.5 63.5t-29.5 83.5q0 87 77 140q-9 11 -9 33q0 71 61 125.5t157 52.5q67 -1 111.5 -50.5 t44.5 -107.5q0 -17 -30 -38t-50 -21q-11 0 -12 10q-1 54 -37.5 98t-90.5 46q-27 -3 -42.5 -30.5t-15.5 -57.5q0 -35 17 -61t60 -49l136 -71q114 -61 114 -148q0 -88 -77 -140q10 -17 10 -33q0 -71 -61.5 -125.5t-157.5 -52.5zM437 200q16 24 16 52q0 42 -19.5 67.5 t-75.5 54.5l-132 68q-45 24 -66 63q-15 -24 -15 -52q0 -41 19 -66.5t75 -54.5l132 -69q44 -23 66 -63z" />
<glyph unicode="&#xa8;" d="M171 564v88q0 15 30 34t51 19q14 0 14 -10v-89q0 -15 -30.5 -34t-51.5 -19q-13 0 -13 11zM336 566v89q0 15 30 34t50 19q14 0 14 -11v-88q0 -15 -30.5 -34t-50.5 -19q-13 0 -13 10z" />
<glyph unicode="&#xa9;" d="M49 225q0 103 83 177.5t187 74.5q96 0 164 -71t68 -171q0 -105 -82 -181.5t-190 -76.5q-99 0 -164.5 72t-65.5 176zM107 246q0 -91 59 -162t152 -71q77 0 126.5 59t49.5 141q0 89 -61 158.5t-152 69.5q-75 0 -124.5 -57t-49.5 -138zM173 179l-1 54q-1 53 43 91t104 38 q41 0 69.5 -26t28.5 -63q0 -10 -21.5 -22t-36.5 -12q-10 0 -10 8q0 29 -19.5 52.5t-55.5 24.5q-15 -4 -23.5 -19t-8.5 -32v-56q0 -84 68 -84q32 0 74 25q34 21 43 11q10 -10 -17 -27q-82 -52 -136 -52q-44 0 -72.5 24.5t-28.5 64.5z" />
<glyph unicode="&#xaa;" d="M158 443q0 55 45 82t98 28h58v29q0 37 -23 57t-53 22q-14 -4 -24.5 -20t-10.5 -32q0 -17 -36 -35q-37 -19 -43 -5q-1 2 -1 4q0 55 46.5 95t110.5 40q47 0 80 -30t33 -77v-193q0 -16 -34 -34q-38 -19 -44 -5q-1 2 -1 4v27q-22 -16 -54 -27t-59 -11q-36 0 -62 22.5 t-26 58.5zM236 479q0 -26 15.5 -43.5t48.5 -17.5q31 0 59 18v73h-92q-12 -1 -17 -2t-9.5 -8t-4.5 -20z" />
<glyph unicode="&#xab;" d="M126 236l173 -193q6 -6 -4.5 -18.5t-29.5 -22.5t-34 -10q-11 0 -19 8l-163 187q-9 9 14 40l160 198q31 38 61 39q8 0 10 -3.5t-0.5 -9.5t-5.5 -11t-8 -11zM362 236l173 -193q6 -6 -4.5 -18.5t-29 -22.5t-34.5 -10q-11 0 -18 8l-163 187q-10 10 14 40l160 198q31 38 61 39 q13 -4 10 -13t-14 -22z" />
<glyph unicode="&#xac;" d="M65 326q0 16 29 37t56 21h367q18 0 18 -10v-195q0 -18 -41 -39q-46 -24 -56 -9q-2 2 -2 6v179h-353q-18 0 -18 10z" />
<glyph unicode="&#xad;" d="M143 218q0 16 29 37t57 21h211q17 0 17 -10q0 -16 -28.5 -37t-56.5 -21h-211q-18 0 -18 10z" />
<glyph unicode="&#xae;" d="M49 521q0 103 83 177.5t187 74.5q96 0 164 -71t68 -171q0 -105 -82 -181.5t-190 -76.5q-99 0 -164.5 72t-65.5 176zM107 542q0 -91 59 -162t152 -71q77 0 126.5 59t49.5 141q0 89 -61 158.5t-152 69.5q-75 0 -124.5 -57t-49.5 -138zM195 400v236q0 7 8 13t16 6h102 q37 0 58.5 -20t21.5 -47q0 -26 -20 -46.5t-43 -28.5l86 -76q6 -5 -3.5 -18.5t-23.5 -23t-19 -4.5l-112 106h-3v-77q0 -9 -20 -19t-35 -10q-13 0 -13 9zM263 533h29q37 0 37 41q0 22 -13.5 32.5t-32.5 10.5h-20v-84z" />
<glyph unicode="&#xaf;" d="M134 603q0 15 28 34.5t55 19.5h237q16 0 16 -9q0 -15 -28 -35t-55 -20h-237q-16 0 -16 10z" />
<glyph unicode="&#xb0;" d="M271 349q-65 0 -113.5 45.5t-48.5 111.5q0 82 64 142t151 60q69 0 117.5 -44.5t48.5 -111.5q0 -83 -63.5 -143t-155.5 -60zM341 401q26 5 44 35.5t18 62.5q0 63 -41 108t-105 46q-28 -5 -45 -34t-17 -64q0 -63 41.5 -108t104.5 -46z" />
<glyph unicode="&#xb1;" d="M61 10q0 16 28.5 37t56.5 21h376q18 0 18 -10q0 -16 -29 -37t-56 -21h-377q-17 0 -17 10zM61 326q0 16 28.5 37t56.5 21h103v138q0 18 41 39q46 23 56 8q2 -2 2 -6v-179h174q18 0 18 -10q0 -15 -29 -36.5t-56 -21.5h-107v-131q0 -18 -41 -39q-46 -23 -56 -8q-2 2 -2 6 v172h-171q-17 0 -17 10z" />
<glyph unicode="&#xb2;" d="M191 364q0 43 16 76t38 52t44.5 34.5t38 33t15.5 38.5q0 25 -16 46t-39 22q-18 -3 -18 -45q0 -12 -24.5 -26t-40.5 -14q-11 0 -11 8q0 46 41 82.5t94 36.5q34 0 61 -27t27 -59q0 -30 -15 -52.5t-36.5 -37t-43.5 -30t-37 -40.5t-16 -60h151q11 0 11 -7q0 -11 -20 -25.5 t-38 -14.5h-170q-12 0 -12 9z" />
<glyph unicode="&#xb3;" d="M195 439q0 12 22.5 26.5t37.5 14.5q10 0 10 -8q0 -29 18.5 -52.5t45.5 -25.5q11 1 17.5 12.5t6.5 24.5v12q0 32 -20.5 51.5t-54.5 20.5q-16 0 -2 15q21 22 55 25q12 12 12 40q0 25 -13.5 46t-39.5 22q-16 -3 -16 -40q-1 -12 -24 -26t-39 -14q-10 0 -10 8q1 47 35.5 82 t84.5 35q39 0 65.5 -28.5t26.5 -61.5q0 -44 -42 -73q51 -27 51 -76t-39 -84t-90 -35q-40 0 -69 28t-29 61z" />
<glyph unicode="&#xb4;" d="M235 583l106 164q10 9 29 3t35 -22.5t8 -25.5l-128 -151q-11 -14 -35 1.5t-15 30.5z" />
<glyph unicode="&#xb5;" d="M88 -229v640q0 13 31.5 33t51.5 20q15 0 15 -12v-252q0 -59 35.5 -104.5t100.5 -45.5q38 0 92 27v337q0 12 32 31t52 19q14 0 14 -11v-412q0 -13 -31 -31t-52 -18q-15 0 -15 11v37q-86 -48 -156 -48q-43 0 -72 18v-198q0 -15 -30.5 -34t-51.5 -19q-16 0 -16 12z" />
<glyph unicode="&#xb6;" d="M279 9v392h-102q-47 0 -86.5 36t-39.5 93q0 77 56 123.5t134 46.5h161q63 0 93.5 -29t30.5 -94v-522q0 -16 -29.5 -35.5t-52.5 -19.5h-151q-14 0 -14 9zM368 65h69v478q0 89 -69 93v-571zM141 571q0 -44 24.5 -76.5t70.5 -36.5h43v178h-105q-15 -4 -24 -23t-9 -42z" />
<glyph unicode="&#xb7;" d="M235 282v83q0 19 41.5 43t69.5 24q18 0 18 -13v-83q0 -19 -41 -43t-69 -24q-19 0 -19 13z" />
<glyph unicode="&#xb8;" d="M189 -246q0 10 23 14q42 7 72 28t30 50q0 22 -13 34t-34 12q-7 0 -20 -3.5t-20 -3.5q-9 0 -9 6.5t7 13.5q36 39 99 39q32 0 52.5 -16t20.5 -48q0 -55 -61.5 -95.5t-127.5 -42.5q-19 -2 -19 12z" />
<glyph unicode="&#xb9;" d="M188 362q0 11 20 25.5t38 14.5h39l3 229l-61 -59q-9 -10 -23.5 -16.5t-24.5 -4.5q-11 4 7 22l114 114q6 7 22.5 14.5t27.5 7.5q10 0 10 -8l-4 -299h58q11 0 11 -7q0 -11 -20 -25.5t-38 -14.5h-167q-12 0 -12 7z" />
<glyph unicode="&#xba;" d="M158 472v106q0 56 50 93t112 37q48 0 83 -30t35 -80v-106q0 -55 -49.5 -92.5t-110.5 -37.5q-49 0 -84.5 30t-35.5 80zM237 496q0 -41 21.5 -63.5t53.5 -24.5q17 3 32.5 19.5t15.5 41.5v105q0 41 -24.5 63t-57.5 24q-15 -3 -28 -19t-13 -42v-104z" />
<glyph unicode="&#xbb;" d="M247 220l-173 192q-6 7 4.5 19.5t29 22.5t34.5 10q10 0 19 -9l163 -186q8 -10 -15 -41l-160 -197q-31 -39 -60 -39q-8 0 -10 3.5t0.5 9.5t5.5 11.5t8 10.5zM483 220l-172 192q-6 7 4.5 19.5t29 22.5t34.5 10q11 0 18 -9l163 -186q9 -10 -14 -41l-160 -197 q-31 -39 -61 -39q-13 4 -10 13t14 22z" />
<glyph unicode="&#xbc;" d="M80 4l373 667q10 16 33.5 27t42.5 11q17 0 10 -13l-373 -667q-9 -16 -32.5 -27t-43.5 -11q-18 0 -10 13zM349 7q0 11 17.5 25.5t35.5 14.5h42v81h-117q-18 0 -5 19l124 179q18 25 50 30q18 4 18 -7v-174h64q11 0 11 -7q0 -10 -16 -23t-34 -16h-25v-82h60q12 0 12 -7 q0 -11 -20 -25.5t-38 -14.5h-168q-11 0 -11 7zM384 175h60v87zM18 362q0 11 20 25.5t38 14.5h39l3 229l-61 -59q-9 -10 -23.5 -16.5t-24.5 -4.5q-11 4 7 22l114 114q6 7 22.5 14.5t27.5 7.5q10 0 10 -8l-4 -299h58q11 0 11 -7q0 -11 -20 -25.5t-38 -14.5h-167q-12 0 -12 7z " />
<glyph unicode="&#xbd;" d="M80 4l373 667q10 16 33.5 27t42.5 11q17 0 10 -13l-373 -667q-9 -16 -32.5 -27t-43.5 -11q-18 0 -10 13zM341 10q0 43 16 76t38 52t44.5 34.5t38 33t15.5 38.5q0 25 -16 46t-39 22q-18 -3 -18 -45q0 -12 -24.5 -26t-40.5 -14q-11 0 -11 8q0 46 41 82.5t94 36.5 q34 0 61 -27t27 -59q0 -30 -15 -52.5t-36.5 -37t-43.5 -30t-37 -40.5t-16 -60h151q11 0 11 -7q0 -11 -20 -25.5t-38 -14.5h-170q-12 0 -12 9zM18 362q0 11 20 25.5t38 14.5h39l3 229l-61 -59q-9 -10 -23.5 -16.5t-24.5 -4.5q-11 4 7 22l114 114q6 7 22.5 14.5t27.5 7.5 q10 0 10 -8l-4 -299h58q11 0 11 -7q0 -11 -20 -25.5t-38 -14.5h-167q-12 0 -12 7z" />
<glyph unicode="&#xbe;" d="M80 4l373 667q10 16 33.5 27t42.5 11q17 0 10 -13l-373 -667q-9 -16 -32.5 -27t-43.5 -11q-18 0 -10 13zM349 7q0 11 17.5 25.5t35.5 14.5h42v81h-117q-18 0 -5 19l124 179q18 25 50 30q18 4 18 -7v-174h64q11 0 11 -7q0 -10 -16 -23t-34 -16h-25v-82h60q12 0 12 -7 q0 -11 -20 -25.5t-38 -14.5h-168q-11 0 -11 7zM384 175h60v87zM29 439q0 12 22.5 26.5t37.5 14.5q10 0 10 -8q0 -29 18.5 -52.5t45.5 -25.5q11 1 17.5 12.5t6.5 24.5v12q0 32 -20.5 51.5t-54.5 20.5q-16 0 -2 15q21 22 55 25q12 12 12 40q0 25 -13.5 46t-39.5 22 q-16 -3 -16 -40q-1 -12 -24 -26t-39 -14q-10 0 -10 8q1 47 35.5 82t84.5 35q39 0 65.5 -28.5t26.5 -61.5q0 -44 -42 -73q51 -27 51 -76t-39 -84t-90 -35q-40 0 -69 28t-29 61z" />
<glyph unicode="&#xbf;" d="M370 490v-83q0 -19 -41.5 -43t-69.5 -24q-18 0 -18 13v83q0 19 41.5 43t69.5 24q18 0 18 -13zM356 283q0 -32 -7.5 -57.5t-25.5 -48.5t-30 -35t-38 -35q-36 -31 -49.5 -55.5t-13.5 -60.5q0 -49 40 -93.5t98 -47.5q60 10 72 106q1 16 36 36.5t58 20.5q14 0 14 -11 q0 -87 -76.5 -151t-174.5 -64q-69 0 -120 50.5t-51 116.5q0 41 18 76.5t37.5 54.5t52.5 45q57 45 57 110q0 16 32.5 35.5t55.5 19.5q15 0 15 -12z" />
<glyph unicode="&#xc0;" d="M41 3l209 634q10 31 36.5 51t49.5 20q16 0 22 -19l195 -639q5 -19 -27 -38.5t-55 -19.5q-11 0 -12 6l-69 246h-199l-61 -196q-7 -20 -32.5 -38t-45.5 -18q-16 0 -11 11zM212 308h161l-75 272zM169 856q-9 8 -2.5 28t24.5 36.5t28 8.5l161 -125q14 -11 -2.5 -32.5 t-31.5 -13.5z" />
<glyph unicode="&#xc1;" d="M41 3l209 634q10 31 36.5 51t49.5 20q16 0 22 -19l195 -639q5 -19 -27 -38.5t-55 -19.5q-11 0 -12 6l-69 246h-199l-61 -196q-7 -20 -32.5 -38t-45.5 -18q-16 0 -11 11zM212 308h161l-75 272zM226 804l161 126q10 8 28 -8.5t25 -36.5t-2 -29l-178 -97q-9 -6 -21.5 3 t-16.5 21.5t4 20.5z" />
<glyph unicode="&#xc2;" d="M41 3l209 634q10 31 36.5 51t49.5 20q16 0 22 -19l195 -639q5 -19 -27 -38.5t-55 -19.5q-11 0 -12 6l-69 246h-199l-61 -196q-7 -20 -32.5 -38t-45.5 -18q-16 0 -11 11zM212 308h161l-75 272zM160 808l107 103q12 11 37 22t36 3l118 -97q7 -5 -9 -20t-39 -25t-32 -3 l-95 78l-59 -57q-26 -26 -62 -26q-22 0 -2 22z" />
<glyph unicode="&#xc3;" d="M41 3l209 634q10 31 36.5 51t49.5 20q16 0 22 -19l195 -639q5 -19 -27 -38.5t-55 -19.5q-11 0 -12 6l-69 246h-199l-61 -196q-7 -20 -32.5 -38t-45.5 -18q-16 0 -11 11zM212 308h161l-75 272zM153 810q7 31 43 65t76 34q29 0 77 -30.5t56 -33.5q54 52 68 52t10 -12 q-8 -31 -42 -65.5t-78 -34.5q-27 0 -75 30.5t-56 33.5q-53 -51 -69 -51q-14 0 -10 12z" />
<glyph unicode="&#xc4;" d="M41 3l209 634q10 31 36.5 51t49.5 20q16 0 22 -19l195 -639q5 -19 -27 -38.5t-55 -19.5q-11 0 -12 6l-69 246h-199l-61 -196q-7 -20 -32.5 -38t-45.5 -18q-16 0 -11 11zM212 308h161l-75 272zM176 785v81q0 16 31.5 35t53.5 19q17 0 17 -10v-82q0 -16 -32 -34.5 t-54 -19.5q-16 0 -16 11zM348 787v82q0 16 31.5 34.5t54.5 19.5q16 0 16 -11v-82q0 -15 -32 -34t-55 -20q-15 0 -15 11z" />
<glyph unicode="&#xc5;" d="M41 3l209 634q10 31 36.5 51t49.5 20q16 0 22 -19l195 -639q5 -19 -27 -38.5t-55 -19.5q-11 0 -12 6l-69 246h-199l-61 -196q-7 -20 -32.5 -38t-45.5 -18q-16 0 -11 11zM212 308h161l-75 272zM194 817q0 50 42.5 86.5t90.5 36.5q40 0 69 -26.5t29 -69.5q0 -45 -40 -84.5 t-87 -39.5q-45 0 -74.5 27t-29.5 70zM260 840q3 -32 24.5 -52.5t46.5 -20.5q30 5 26 58q-3 30 -23.5 49t-47.5 21q-15 -3 -21.5 -20.5t-4.5 -34.5z" />
<glyph unicode="&#xc6;" d="M-16 3l239 630q11 31 36.5 49t48.5 18h224q16 0 16 -9q0 -15 -28 -35t-54 -20h-88v-254h119q16 0 16 -9q0 -15 -27.5 -35t-53.5 -20h-54v-253h154q16 0 16 -10q0 -15 -27.5 -35t-53.5 -20h-164q-12 0 -12 8v310h-118l-99 -271q-7 -20 -34 -37.5t-45 -17.5q-15 0 -11 11z M195 380h96v258z" />
<glyph unicode="&#xc7;" d="M291 -8q-67 0 -121 50t-54 135v314q0 86 71.5 151.5t170.5 65.5q78 0 118.5 -51.5t40.5 -113.5q0 -17 -34 -39.5t-55 -22.5q-12 0 -12 10q0 57 -35.5 103.5t-94.5 50.5q-28 -4 -49 -37t-21 -72v-320q0 -65 41.5 -110t98.5 -48q32 2 56.5 39.5t24.5 96.5q0 15 38.5 37.5 t61.5 22.5q13 0 13 -10q0 -42 -17 -85.5t-48 -81t-82 -61.5t-112 -24zM217 -246q0 10 23 14q42 7 72 28t30 50q0 22 -13 34t-34 12q-7 0 -20 -3.5t-20 -3.5q-9 0 -9 6.5t7 13.5q36 39 99 39q32 0 52.5 -16t20.5 -48q0 -55 -61.5 -95.5t-127.5 -42.5q-19 -2 -19 12z" />
<glyph unicode="&#xc8;" d="M66 327q0 15 28 35t54 20h4v262q0 15 31 35.5t56 20.5h287q16 0 16 -9q0 -15 -27.5 -35t-53.5 -20h-209v-254h196q16 0 16 -9q0 -15 -27.5 -35t-53.5 -20h-131v-253h275q16 0 16 -10q0 -15 -28 -35t-54 -20h-294q-15 0 -15 10v308h-70q-16 0 -16 9zM215 856q-9 8 -2.5 28 t24.5 36.5t28 8.5l161 -125q14 -11 -2.5 -32.5t-31.5 -13.5z" />
<glyph unicode="&#xc9;" d="M66 327q0 15 28 35t54 20h4v262q0 15 31 35.5t56 20.5h287q16 0 16 -9q0 -15 -27.5 -35t-53.5 -20h-209v-254h196q16 0 16 -9q0 -15 -27.5 -35t-53.5 -20h-131v-253h275q16 0 16 -10q0 -15 -28 -35t-54 -20h-294q-15 0 -15 10v308h-70q-16 0 -16 9zM250 804l161 126 q10 8 28 -8.5t25 -36.5t-2 -29l-178 -97q-9 -6 -21.5 3t-16.5 21.5t4 20.5z" />
<glyph unicode="&#xca;" d="M66 327q0 15 28 35t54 20h4v262q0 15 31 35.5t56 20.5h287q16 0 16 -9q0 -15 -27.5 -35t-53.5 -20h-209v-254h196q16 0 16 -9q0 -15 -27.5 -35t-53.5 -20h-131v-253h275q16 0 16 -10q0 -15 -28 -35t-54 -20h-294q-15 0 -15 10v308h-70q-16 0 -16 9zM189 808l107 103 q12 11 37 22t36 3l118 -97q7 -5 -9 -20t-39 -25t-32 -3l-95 78l-59 -57q-26 -26 -62 -26q-22 0 -2 22z" />
<glyph unicode="&#xcb;" d="M66 327q0 15 28 35t54 20h4v262q0 15 31 35.5t56 20.5h287q16 0 16 -9q0 -15 -27.5 -35t-53.5 -20h-209v-254h196q16 0 16 -9q0 -15 -27.5 -35t-53.5 -20h-131v-253h275q16 0 16 -10q0 -15 -28 -35t-54 -20h-294q-15 0 -15 10v308h-70q-16 0 -16 9zM384 787v82 q0 16 31.5 34.5t54.5 19.5q16 0 16 -11v-82q0 -15 -32 -34t-55 -20q-15 0 -15 11zM212 785v81q0 16 31.5 35t53.5 19q17 0 17 -10v-82q0 -16 -32 -34.5t-54 -19.5q-16 0 -16 11z" />
<glyph unicode="&#xcc;" d="M78 9q0 15 27.5 35.5t53.5 20.5h93v571h-136q-17 0 -17 9q0 14 27.5 34.5t53.5 20.5h312q16 0 16 -9q0 -15 -27.5 -35t-53.5 -20h-74v-571h151q16 0 16 -10q0 -15 -27.5 -35t-53.5 -20h-345q-16 0 -16 9zM173 856q-9 8 -2.5 28t24.5 36.5t28 8.5l161 -125 q14 -11 -2.5 -32.5t-31.5 -13.5z" />
<glyph unicode="&#xcd;" d="M78 9q0 15 27.5 35.5t53.5 20.5h93v571h-136q-17 0 -17 9q0 14 27.5 34.5t53.5 20.5h312q16 0 16 -9q0 -15 -27.5 -35t-53.5 -20h-74v-571h151q16 0 16 -10q0 -15 -27.5 -35t-53.5 -20h-345q-16 0 -16 9zM234 804l161 126q10 8 28 -8.5t25 -36.5t-2 -29l-178 -97 q-9 -6 -21.5 3t-16.5 21.5t4 20.5z" />
<glyph unicode="&#xce;" d="M78 9q0 15 27.5 35.5t53.5 20.5h93v571h-136q-17 0 -17 9q0 14 27.5 34.5t53.5 20.5h312q16 0 16 -9q0 -15 -27.5 -35t-53.5 -20h-74v-571h151q16 0 16 -10q0 -15 -27.5 -35t-53.5 -20h-345q-16 0 -16 9zM166 808l107 103q12 11 37 22t36 3l118 -97q7 -5 -9 -20t-39 -25 t-32 -3l-95 78l-59 -57q-26 -26 -62 -26q-22 0 -2 22z" />
<glyph unicode="&#xcf;" d="M78 9q0 15 27.5 35.5t53.5 20.5h93v571h-136q-17 0 -17 9q0 14 27.5 34.5t53.5 20.5h312q16 0 16 -9q0 -15 -27.5 -35t-53.5 -20h-74v-571h151q16 0 16 -10q0 -15 -27.5 -35t-53.5 -20h-345q-16 0 -16 9zM182 785v81q0 16 31.5 35t53.5 19q17 0 17 -10v-82 q0 -16 -32 -34.5t-54 -19.5q-16 0 -16 11zM354 787v82q0 16 31.5 34.5t54.5 19.5q16 0 16 -11v-82q0 -15 -32 -34t-55 -20q-15 0 -15 11z" />
<glyph unicode="&#xd0;" d="M29 9q0 13 21.5 30.5t45.5 21.5h28v256h-75q-16 0 -16 10q0 15 27.5 35t53.5 20h10v254h-62q-16 0 -16 9q0 15 27.5 35t53.5 20h212q74 0 128.5 -57t54.5 -143v-278q0 -93 -75 -157.5t-173 -64.5h-228q-17 0 -17 9zM225 64h124q32 5 52 39.5t20 75.5v288q0 64 -41.5 116 t-99.5 55h-55v-256h111q16 0 16 -9q0 -15 -27.5 -35.5t-53.5 -20.5h-46v-253z" />
<glyph unicode="&#xd1;" d="M144 810q7 31 43 65t76 34q29 0 77 -30.5t56 -33.5q54 52 68 52t10 -12q-8 -31 -42 -65.5t-78 -34.5q-27 0 -75 30.5t-56 33.5q-53 -51 -69 -51q-14 0 -10 12zM95 3v649q0 16 30.5 36t51.5 20q11 0 12 -6l232 -556l-7 507q0 16 28.5 35.5t48.5 19.5q14 0 14 -11v-648 q0 -17 -31 -37t-52 -20q-10 0 -12 6l-231 553l6 -503q1 -16 -27.5 -36t-49.5 -20q-13 0 -13 11z" />
<glyph unicode="&#xd2;" d="M186 856q-9 8 -2.5 28t24.5 36.5t28 8.5l161 -125q14 -11 -2.5 -32.5t-31.5 -13.5zM96 170v326q0 86 69.5 149t169.5 63q76 0 122.5 -52.5t46.5 -125.5v-324q0 -88 -69.5 -151t-170.5 -63q-73 0 -120.5 52t-47.5 126zM196 215q0 -68 38 -111.5t99 -48.5q28 4 49 31.5 t21 63.5v341q0 64 -39 107.5t-97 46.5q-29 -3 -50 -31t-21 -66v-333z" />
<glyph unicode="&#xd3;" d="M215 804l161 126q10 8 28 -8.5t25 -36.5t-2 -29l-178 -97q-9 -6 -21.5 3t-16.5 21.5t4 20.5zM96 170v326q0 86 69.5 149t169.5 63q76 0 122.5 -52.5t46.5 -125.5v-324q0 -88 -69.5 -151t-170.5 -63q-73 0 -120.5 52t-47.5 126zM196 215q0 -68 38 -111.5t99 -48.5 q28 4 49 31.5t21 63.5v341q0 64 -39 107.5t-97 46.5q-29 -3 -50 -31t-21 -66v-333z" />
<glyph unicode="&#xd4;" d="M161 808l107 103q12 11 37 22t36 3l118 -97q7 -5 -9 -20t-39 -25t-32 -3l-95 78l-59 -57q-26 -26 -62 -26q-22 0 -2 22zM96 170v326q0 86 69.5 149t169.5 63q76 0 122.5 -52.5t46.5 -125.5v-324q0 -88 -69.5 -151t-170.5 -63q-73 0 -120.5 52t-47.5 126zM196 215 q0 -68 38 -111.5t99 -48.5q28 4 49 31.5t21 63.5v341q0 64 -39 107.5t-97 46.5q-29 -3 -50 -31t-21 -66v-333z" />
<glyph unicode="&#xd5;" d="M96 170v326q0 86 69.5 149t169.5 63q76 0 122.5 -52.5t46.5 -125.5v-324q0 -88 -69.5 -151t-170.5 -63q-73 0 -120.5 52t-47.5 126zM196 215q0 -68 38 -111.5t99 -48.5q28 4 49 31.5t21 63.5v341q0 64 -39 107.5t-97 46.5q-29 -3 -50 -31t-21 -66v-333zM148 810 q7 31 43 65t76 34q29 0 77 -30.5t56 -33.5q54 52 68 52t10 -12q-8 -31 -42 -65.5t-78 -34.5q-27 0 -75 30.5t-56 33.5q-53 -51 -69 -51q-14 0 -10 12z" />
<glyph unicode="&#xd6;" d="M96 170v326q0 86 69.5 149t169.5 63q76 0 122.5 -52.5t46.5 -125.5v-324q0 -88 -69.5 -151t-170.5 -63q-73 0 -120.5 52t-47.5 126zM196 215q0 -68 38 -111.5t99 -48.5q28 4 49 31.5t21 63.5v341q0 64 -39 107.5t-97 46.5q-29 -3 -50 -31t-21 -66v-333zM172 785v81 q0 16 31.5 35t53.5 19q17 0 17 -10v-82q0 -16 -32 -34.5t-54 -19.5q-16 0 -16 11zM344 787v82q0 16 31.5 34.5t54.5 19.5q16 0 16 -11v-82q0 -15 -32 -34t-55 -20q-15 0 -15 11z" />
<glyph unicode="&#xd7;" d="M282 297l-92 -93q-32 -32 -68 -31q-8 0 -9.5 4.5t1 10t6.5 9.5l129 131l-132 132q-8 8 10.5 26t44 28.5t35.5 0.5l115 -115l91 91q32 34 67 31q8 0 9.5 -4.5t-0.5 -9.5t-6 -9l-129 -130l135 -134q8 -8 -10.5 -26t-44 -28.5t-35.5 -0.5z" />
<glyph unicode="&#xd8;" d="M96 170v326q0 86 69.5 149t169.5 63q76 0 123 -54l46 75q10 17 29 31t35 14q6 0 8 -5t0 -10t-4 -9l-85 -140q17 -39 17 -80v-324q0 -88 -69.5 -151t-170.5 -63q-74 0 -121 52l-45 -73q-10 -17 -29 -31t-35 -14q-6 0 -8 5t0 10t4 9l84 138q-18 36 -18 82zM196 548v-325 l197 325q-15 42 -49 68.5t-77 28.5q-29 -3 -50 -31t-21 -66zM333 55q28 4 49 31.5t21 63.5v322l-196 -323q15 -41 48 -65.5t78 -28.5z" />
<glyph unicode="&#xd9;" d="M159 856q-9 8 -2.5 28t24.5 36.5t28 8.5l161 -125q14 -11 -2.5 -32.5t-31.5 -13.5zM264 -8q-73 0 -120.5 52t-47.5 126v483q0 16 31.5 35.5t54.5 19.5q14 0 14 -11v-482q0 -68 38 -111.5t99 -48.5q28 4 49 31.5t21 63.5v503q0 16 31.5 35.5t54.5 19.5q15 0 15 -11v-491 q0 -88 -69.5 -151t-170.5 -63z" />
<glyph unicode="&#xda;" d="M264 -8q-73 0 -120.5 52t-47.5 126v483q0 16 31.5 35.5t54.5 19.5q14 0 14 -11v-482q0 -68 38 -111.5t99 -48.5q28 4 49 31.5t21 63.5v503q0 16 31.5 35.5t54.5 19.5q15 0 15 -11v-491q0 -88 -69.5 -151t-170.5 -63zM237 804l161 126q10 8 28 -8.5t25 -36.5t-2 -29 l-178 -97q-9 -6 -21.5 3t-16.5 21.5t4 20.5z" />
<glyph unicode="&#xdb;" d="M156 808l107 103q12 11 37 22t36 3l118 -97q7 -5 -9 -20t-39 -25t-32 -3l-95 78l-59 -57q-26 -26 -62 -26q-22 0 -2 22zM264 -8q-73 0 -120.5 52t-47.5 126v483q0 16 31.5 35.5t54.5 19.5q14 0 14 -11v-482q0 -68 38 -111.5t99 -48.5q28 4 49 31.5t21 63.5v503 q0 16 31.5 35.5t54.5 19.5q15 0 15 -11v-491q0 -88 -69.5 -151t-170.5 -63z" />
<glyph unicode="&#xdc;" d="M264 -8q-73 0 -120.5 52t-47.5 126v483q0 16 31.5 35.5t54.5 19.5q14 0 14 -11v-482q0 -68 38 -111.5t99 -48.5q28 4 49 31.5t21 63.5v503q0 16 31.5 35.5t54.5 19.5q15 0 15 -11v-491q0 -88 -69.5 -151t-170.5 -63zM175 785v81q0 16 31.5 35t53.5 19q17 0 17 -10v-82 q0 -16 -32 -34.5t-54 -19.5q-16 0 -16 11zM347 787v82q0 16 31.5 34.5t54.5 19.5q16 0 16 -11v-82q0 -15 -32 -34t-55 -20q-15 0 -15 11z" />
<glyph unicode="&#xdd;" d="M112 9q0 15 28 35.5t54 20.5h58v266l-190 315q-9 15 20.5 38.5t52.5 23.5q10 0 14 -6l165 -288l144 248q11 20 34 33t42 13q22 0 12 -17l-193 -331v-295h107q16 0 16 -10q0 -15 -27.5 -35t-53.5 -20h-267q-16 0 -16 9zM243 804l161 126q10 8 28 -8.5t25 -36.5t-2 -29 l-178 -97q-9 -6 -21.5 3t-16.5 21.5t4 20.5z" />
<glyph unicode="&#xde;" d="M106 0v647q0 18 33.5 39.5t55.5 21.5q12 0 12 -8v-119h148q81 0 127 -55t46 -132v-39q0 -90 -77 -156.5t-172 -66.5h-72v-79q0 -17 -34 -39t-56 -22q-11 0 -11 8zM207 196h143q30 5 54 40.5t24 80.5v38q0 67 -41.5 115.5t-103.5 48.5h-76v-323z" />
<glyph unicode="&#xdf;" d="M115 4v342h-81q-15 0 -15 9q0 14 26 33t51 19h19v63q0 107 52.5 172.5t147.5 65.5q70 0 114.5 -46.5t44.5 -116.5q0 -44 -21 -83t-57 -64q60 -12 101.5 -58t41.5 -113q0 -102 -76.5 -164.5t-185.5 -62.5q-17 0 -8 18q11 25 43 34q9 2 19 2q53 1 82 36t29 100 q0 68 -48.5 112t-119.5 44h-61v-299q0 -15 -30 -35t-52 -20q-16 0 -16 12zM213 524v-117h97q28 2 48.5 31.5t20.5 82.5q0 47 -34 86.5t-84 40.5q-29 -3 -38.5 -31.5t-9.5 -92.5z" />
<glyph unicode="&#xe0;" d="M77 103q0 62 61.5 106.5t119.5 44.5h140v23q0 48 -36 87.5t-91 42.5q-29 -2 -48.5 -27t-19.5 -56q0 -12 -35 -30.5t-58 -18.5q-15 0 -15 10q0 72 75 125.5t159 53.5q67 0 116.5 -43t49.5 -105v-275q0 -13 -30 -31t-51 -18q-14 0 -14 11v42q-40 -24 -93.5 -38.5 t-95.5 -14.5q-56 0 -95 31.5t-39 79.5zM174 143q0 -41 33.5 -66.5t75.5 -25.5q74 0 115 35v109h-163q-31 0 -46 -11t-15 -41zM195 702q-8 9 8 25.5t35.5 22.5t29.5 -3l105 -164q6 -9 -4 -21t-23.5 -15t-22.5 4z" />
<glyph unicode="&#xe1;" d="M77 103q0 62 61.5 106.5t119.5 44.5h140v23q0 48 -36 87.5t-91 42.5q-29 -2 -48.5 -27t-19.5 -56q0 -12 -35 -30.5t-58 -18.5q-15 0 -15 10q0 72 75 125.5t159 53.5q67 0 116.5 -43t49.5 -105v-275q0 -13 -30 -31t-51 -18q-14 0 -14 11v42q-40 -24 -93.5 -38.5 t-95.5 -14.5q-56 0 -95 31.5t-39 79.5zM174 143q0 -41 33.5 -66.5t75.5 -25.5q74 0 115 35v109h-163q-31 0 -46 -11t-15 -41zM241 583l106 164q10 9 29 3t35 -22.5t8 -25.5l-128 -151q-11 -14 -35 1.5t-15 30.5z" />
<glyph unicode="&#xe2;" d="M77 103q0 62 61.5 106.5t119.5 44.5h140v23q0 48 -36 87.5t-91 42.5q-29 -2 -48.5 -27t-19.5 -56q0 -12 -35 -30.5t-58 -18.5q-15 0 -15 10q0 72 75 125.5t159 53.5q67 0 116.5 -43t49.5 -105v-275q0 -13 -30 -31t-51 -18q-14 0 -14 11v42q-40 -24 -93.5 -38.5 t-95.5 -14.5q-56 0 -95 31.5t-39 79.5zM174 143q0 -41 33.5 -66.5t75.5 -25.5q74 0 115 35v109h-163q-31 0 -46 -11t-15 -41zM169 567l102 130q11 13 35.5 25.5t32.5 2.5l101 -127q5 -7 -11 -20.5t-36.5 -22t-26.5 -0.5l-77 98l-56 -73q-8 -11 -25.5 -20t-32.5 -9 q-17 0 -6 16z" />
<glyph unicode="&#xe3;" d="M77 103q0 62 61.5 106.5t119.5 44.5h140v23q0 48 -36 87.5t-91 42.5q-29 -2 -48.5 -27t-19.5 -56q0 -12 -35 -30.5t-58 -18.5q-15 0 -15 10q0 72 75 125.5t159 53.5q67 0 116.5 -43t49.5 -105v-275q0 -13 -30 -31t-51 -18q-14 0 -14 11v42q-40 -24 -93.5 -38.5 t-95.5 -14.5q-56 0 -95 31.5t-39 79.5zM174 143q0 -41 33.5 -66.5t75.5 -25.5q74 0 115 35v109h-163q-31 0 -46 -11t-15 -41zM151 586q7 30 42 64t74 34q24 0 68 -29t55 -34q53 51 67 51q13 0 9 -11q-7 -30 -40 -64.5t-76 -34.5q-23 0 -67.5 30t-54.5 34q-52 -52 -67 -52 q-13 0 -10 12z" />
<glyph unicode="&#xe4;" d="M77 103q0 62 61.5 106.5t119.5 44.5h140v23q0 48 -36 87.5t-91 42.5q-29 -2 -48.5 -27t-19.5 -56q0 -12 -35 -30.5t-58 -18.5q-15 0 -15 10q0 72 75 125.5t159 53.5q67 0 116.5 -43t49.5 -105v-275q0 -13 -30 -31t-51 -18q-14 0 -14 11v42q-40 -24 -93.5 -38.5 t-95.5 -14.5q-56 0 -95 31.5t-39 79.5zM174 143q0 -41 33.5 -66.5t75.5 -25.5q74 0 115 35v109h-163q-31 0 -46 -11t-15 -41zM182 564v88q0 15 30 34t51 19q14 0 14 -10v-89q0 -15 -30.5 -34t-51.5 -19q-13 0 -13 11zM347 566v89q0 15 30 34t50 19q14 0 14 -11v-88 q0 -15 -30.5 -34t-50.5 -19q-13 0 -13 10z" />
<glyph unicode="&#xe5;" d="M77 103q0 62 61.5 106.5t119.5 44.5h140v23q0 48 -36 87.5t-91 42.5q-29 -2 -48.5 -27t-19.5 -56q0 -12 -35 -30.5t-58 -18.5q-15 0 -15 10q0 72 75 125.5t159 53.5q67 0 116.5 -43t49.5 -105v-275q0 -13 -30 -31t-51 -18q-14 0 -14 11v42q-40 -24 -93.5 -38.5 t-95.5 -14.5q-56 0 -95 31.5t-39 79.5zM174 143q0 -41 33.5 -66.5t75.5 -25.5q74 0 115 35v109h-163q-31 0 -46 -11t-15 -41zM192 621q0 51 42.5 87.5t90.5 36.5q40 0 69 -26.5t29 -69.5q0 -45 -39.5 -84.5t-87.5 -39.5q-45 0 -74.5 27t-29.5 69zM257 645q3 -32 25 -53 t48 -22q15 3 21.5 21t4.5 39q-3 30 -24 49.5t-48 21.5q-30 -8 -27 -56z" />
<glyph unicode="&#xe6;" d="M85 93v27q0 51 52.5 92.5t121.5 40.5v81q0 30 -15 51t-45 24q-5 0 -8 -3.5t-5 -10.5t-3.5 -14t-1.5 -17v-16v-14.5v-9.5q0 -14 -36 -33q-42 -22 -47 -6q-1 2 -1 4v41q0 53 48.5 93.5t107.5 40.5q45 0 68 -32q45 32 100 32q48 0 72.5 -29t24.5 -76v-107q0 -17 -33.5 -33.5 t-54.5 -16.5h-88v-70q0 -36 18.5 -57.5t51.5 -21.5q26 0 62 19q34 19 47 8q3 -2 3.5 -5t-1 -6t-4 -6t-6.5 -6.5t-7 -5.5t-6.5 -4.5t-4.5 -3.5q-81 -51 -141 -51q-46 0 -71 32q-58 -32 -104 -32q-40 0 -67 27t-27 74zM168 131q0 -38 21.5 -60t47.5 -25q12 0 28 7q-6 15 -6 34 v115h-73q-18 -7 -18 -39v-32zM342 254h92q1 2 1 59q0 48 -17.5 72t-58.5 25q-17 -4 -17 -39v-117z" />
<glyph unicode="&#xe7;" d="M94 157v92q0 87 75 151t166 64q81 0 126.5 -52t45.5 -118q0 -14 -40 -35q-48 -25 -57 -9q-1 3 -1 6q0 57 -38.5 103t-105.5 49q-36 -6 -55 -40.5t-19 -80.5v-85q0 -55 42.5 -103.5t103.5 -48.5q48 0 132 50q32 20 50 10q8 -7 3.5 -15.5t-15.5 -14.5q-143 -88 -237 -88 q-77 0 -126.5 51.5t-49.5 113.5zM200 -246q0 10 23 14q42 7 72 28t30 50q0 22 -13 34t-34 12q-7 0 -20 -3.5t-20 -3.5q-9 0 -9 6.5t7 13.5q36 39 99 39q32 0 52.5 -16t20.5 -48q0 -55 -61.5 -95.5t-127.5 -42.5q-19 -2 -19 12z" />
<glyph unicode="&#xe8;" d="M189 205v-13q0 -49 42 -95.5t103 -46.5q55 0 139 50q32 20 51 10q8 -7 3 -15.5t-16 -14.5q-143 -88 -244 -88q-77 0 -126.5 51.5t-49.5 113.5v90q0 61 38.5 112t93 78t107.5 27q85 0 137 -54t52 -142v-13q0 -16 -34.5 -33t-54.5 -17h-241zM189 254h233q-10 73 -54 113 t-104 41q-34 -3 -54.5 -33t-20.5 -76v-45zM193 702q-8 9 8 25.5t35.5 22.5t29.5 -3l105 -164q6 -9 -4 -21t-23.5 -15t-22.5 4z" />
<glyph unicode="&#xe9;" d="M252 583l106 164q10 9 29 3t35 -22.5t8 -25.5l-128 -151q-11 -14 -35 1.5t-15 30.5zM189 205v-13q0 -49 42 -95.5t103 -46.5q55 0 139 50q32 20 51 10q8 -7 3 -15.5t-16 -14.5q-143 -88 -244 -88q-77 0 -126.5 51.5t-49.5 113.5v90q0 61 38.5 112t93 78t107.5 27 q85 0 137 -54t52 -142v-13q0 -16 -34.5 -33t-54.5 -17h-241zM189 254h233q-10 73 -54 113t-104 41q-34 -3 -54.5 -33t-20.5 -76v-45z" />
<glyph unicode="&#xea;" d="M180 567l102 130q11 13 35.5 25.5t32.5 2.5l101 -127q5 -7 -11 -20.5t-36.5 -22t-26.5 -0.5l-77 98l-56 -73q-8 -11 -25.5 -20t-32.5 -9q-17 0 -6 16zM189 205v-13q0 -49 42 -95.5t103 -46.5q55 0 139 50q32 20 51 10q8 -7 3 -15.5t-16 -14.5q-143 -88 -244 -88 q-77 0 -126.5 51.5t-49.5 113.5v90q0 61 38.5 112t93 78t107.5 27q85 0 137 -54t52 -142v-13q0 -16 -34.5 -33t-54.5 -17h-241zM189 254h233q-10 73 -54 113t-104 41q-34 -3 -54.5 -33t-20.5 -76v-45z" />
<glyph unicode="&#xeb;" d="M193 564v88q0 15 30 34t51 19q14 0 14 -10v-89q0 -15 -30.5 -34t-51.5 -19q-13 0 -13 11zM358 566v89q0 15 30 34t50 19q14 0 14 -11v-88q0 -15 -30.5 -34t-50.5 -19q-13 0 -13 10zM189 205v-13q0 -49 42 -95.5t103 -46.5q55 0 139 50q32 20 51 10q8 -7 3 -15.5 t-16 -14.5q-143 -88 -244 -88q-77 0 -126.5 51.5t-49.5 113.5v90q0 61 38.5 112t93 78t107.5 27q85 0 137 -54t52 -142v-13q0 -16 -34.5 -33t-54.5 -17h-241zM189 254h233q-10 73 -54 113t-104 41q-34 -3 -54.5 -33t-20.5 -76v-45z" />
<glyph unicode="&#xec;" d="M81 9q0 14 26 33t50 19h132v314l-140 -87q-50 -29 -70 -19q-8 7 -2.5 15.5t19.5 16.5l227 144q32 19 54 19q10 0 10 -8v-395h153q15 0 15 -9q0 -14 -26 -33t-50 -19h-383q-15 0 -15 9zM201 702q-8 9 8 25.5t35.5 22.5t29.5 -3l105 -164q6 -9 -4 -21t-23.5 -15t-22.5 4z " />
<glyph unicode="&#xed;" d="M246 583l106 164q10 9 29 3t35 -22.5t8 -25.5l-128 -151q-11 -14 -35 1.5t-15 30.5zM81 9q0 14 26 33t50 19h132v314l-140 -87q-50 -29 -70 -19q-8 7 -2.5 15.5t19.5 16.5l227 144q32 19 54 19q10 0 10 -8v-395h153q15 0 15 -9q0 -14 -26 -33t-50 -19h-383q-15 0 -15 9z " />
<glyph unicode="&#xee;" d="M200 567l102 130q11 13 35.5 25.5t32.5 2.5l101 -127q5 -7 -11 -20.5t-36.5 -22t-26.5 -0.5l-77 98l-56 -73q-8 -11 -25.5 -20t-32.5 -9q-17 0 -6 16zM81 9q0 14 26 33t50 19h132v314l-140 -87q-50 -29 -70 -19q-8 7 -2.5 15.5t19.5 16.5l227 144q32 19 54 19q10 0 10 -8 v-395h153q15 0 15 -9q0 -14 -26 -33t-50 -19h-383q-15 0 -15 9z" />
<glyph unicode="&#xef;" d="M210 564v88q0 15 30 34t51 19q14 0 14 -10v-89q0 -15 -30.5 -34t-51.5 -19q-13 0 -13 11zM375 566v89q0 15 30 34t50 19q14 0 14 -11v-88q0 -15 -30.5 -34t-50.5 -19q-13 0 -13 10zM81 9q0 14 26 33t50 19h132v314l-140 -87q-50 -29 -70 -19q-8 7 -2.5 15.5t19.5 16.5 l227 144q32 19 54 19q10 0 10 -8v-395h153q15 0 15 -9q0 -14 -26 -33t-50 -19h-383q-15 0 -15 9z" />
<glyph unicode="&#xf0;" d="M230 526q-17 -12 -33 -12q-17 0 -20 11q-2 10 25 30l67 43q-44 29 -112 54q-16 6 15 30q39 30 62 26q2 -1 3 -1q63 -24 111 -57l71 45q19 13 35 13t17 -10q4 -13 -25 -32l-65 -42q127 -109 127 -283v-135q0 -84 -75.5 -149t-170.5 -65q-75 0 -126 51t-51 113v94 q0 84 75.5 149t170.5 65q35 0 64 -16q-27 73 -92 125zM183 202q0 -58 43 -105.5t107 -48.5q30 2 49 23.5t24 42t5 41.5v98q0 58 -43 105.5t-107 49.5q-31 -3 -49.5 -24t-23.5 -42t-5 -42v-98z" />
<glyph unicode="&#xf1;" d="M92 3v411q0 14 30.5 32t51.5 18q15 0 15 -11v-45q68 56 152 56q75 0 124.5 -51t49.5 -114v-258q0 -12 -32 -30.5t-52 -18.5q-13 0 -13 11v252q0 58 -43 104.5t-108 48.5q-42 -3 -60 -35t-18 -67v-265q0 -12 -32 -30.5t-52 -18.5q-13 0 -13 11zM143 586q7 30 42 64t74 34 q24 0 68 -29t55 -34q53 51 67 51q13 0 9 -11q-7 -30 -40 -64.5t-76 -34.5q-23 0 -67.5 30t-54.5 34q-52 -52 -67 -52q-13 0 -10 12z" />
<glyph unicode="&#xf2;" d="M89 156v94q0 84 75.5 149t170.5 65q75 0 125.5 -51t50.5 -114v-93q0 -84 -75.5 -149t-170.5 -65q-75 0 -125.5 51t-50.5 113zM186 202q0 -58 43 -105.5t107 -48.5q30 2 49 23.5t24 42t5 41.5v98q0 58 -43 105.5t-107 49.5q-43 -4 -60.5 -38t-17.5 -70v-98zM189 702 q-8 9 8 25.5t35.5 22.5t29.5 -3l105 -164q6 -9 -4 -21t-23.5 -15t-22.5 4z" />
<glyph unicode="&#xf3;" d="M250 583l106 164q10 9 29 3t35 -22.5t8 -25.5l-128 -151q-11 -14 -35 1.5t-15 30.5zM89 156v94q0 84 75.5 149t170.5 65q75 0 125.5 -51t50.5 -114v-93q0 -84 -75.5 -149t-170.5 -65q-75 0 -125.5 51t-50.5 113zM186 202q0 -58 43 -105.5t107 -48.5q30 2 49 23.5t24 42 t5 41.5v98q0 58 -43 105.5t-107 49.5q-43 -4 -60.5 -38t-17.5 -70v-98z" />
<glyph unicode="&#xf4;" d="M181 567l102 130q11 13 35.5 25.5t32.5 2.5l101 -127q5 -7 -11 -20.5t-36.5 -22t-26.5 -0.5l-77 98l-56 -73q-8 -11 -25.5 -20t-32.5 -9q-17 0 -6 16zM89 156v94q0 84 75.5 149t170.5 65q75 0 125.5 -51t50.5 -114v-93q0 -84 -75.5 -149t-170.5 -65q-75 0 -125.5 51 t-50.5 113zM186 202q0 -58 43 -105.5t107 -48.5q30 2 49 23.5t24 42t5 41.5v98q0 58 -43 105.5t-107 49.5q-43 -4 -60.5 -38t-17.5 -70v-98z" />
<glyph unicode="&#xf5;" d="M89 156v94q0 84 75.5 149t170.5 65q75 0 125.5 -51t50.5 -114v-93q0 -84 -75.5 -149t-170.5 -65q-75 0 -125.5 51t-50.5 113zM186 202q0 -58 43 -105.5t107 -48.5q30 2 49 23.5t24 42t5 41.5v98q0 58 -43 105.5t-107 49.5q-43 -4 -60.5 -38t-17.5 -70v-98zM151 586 q7 30 42 64t74 34q24 0 68 -29t55 -34q53 51 67 51q13 0 9 -11q-7 -30 -40 -64.5t-76 -34.5q-23 0 -67.5 30t-54.5 34q-52 -52 -67 -52q-13 0 -10 12z" />
<glyph unicode="&#xf6;" d="M179 564v88q0 15 30 34t51 19q14 0 14 -10v-89q0 -15 -30.5 -34t-51.5 -19q-13 0 -13 11zM344 566v89q0 15 30 34t50 19q14 0 14 -11v-88q0 -15 -30.5 -34t-50.5 -19q-13 0 -13 10zM89 156v94q0 84 75.5 149t170.5 65q75 0 125.5 -51t50.5 -114v-93q0 -84 -75.5 -149 t-170.5 -65q-75 0 -125.5 51t-50.5 113zM186 202q0 -58 43 -105.5t107 -48.5q30 2 49 23.5t24 42t5 41.5v98q0 58 -43 105.5t-107 49.5q-43 -4 -60.5 -38t-17.5 -70v-98z" />
<glyph unicode="&#xf7;" d="M61 327q0 15 28.5 36.5t56.5 21.5h377q18 0 18 -10q0 -16 -29 -37t-57 -21h-377q-17 0 -17 10zM244 135v59q0 17 35.5 39t60.5 22q17 2 17 -12v-59q0 -17 -36.5 -39t-60.5 -22q-16 0 -16 12zM247 458v59q0 17 36.5 39t61.5 22q15 0 15 -13v-58q0 -18 -36 -40t-61 -22 q-16 0 -16 13z" />
<glyph unicode="&#xf8;" d="M89 156v94q0 84 75.5 149t170.5 65q43 0 81 -19l37 54q29 43 61 43q6 0 7.5 -3.5t0.5 -9.5t-4 -11.5t-6 -10.5l-59 -87q58 -52 58 -121v-93q0 -84 -75.5 -149t-170.5 -65q-48 0 -87 22l-39 -57q-30 -42 -61 -42q-6 0 -7.5 3.5t-0.5 9.5t4 11.5t6 10.5l61 91 q-52 49 -52 115zM414 253q0 39 -22 77l-160 -236q43 -45 104 -46q30 2 49 23.5t24 42t5 41.5v98zM186 202q0 -36 17 -70l160 234q-42 39 -99 42q-43 -4 -60.5 -38t-17.5 -70v-98z" />
<glyph unicode="&#xf9;" d="M83 163l5 252q0 12 32 30.5t52 18.5q13 0 13 -11l-5 -246q-2 -60 33.5 -108.5t102.5 -48.5q39 0 93 27v337q0 12 31.5 31t51.5 19q14 0 14 -11v-412q0 -13 -31 -31t-52 -18q-14 0 -14 11v37q-87 -48 -162 -48q-82 0 -123.5 52t-40.5 119zM190 702q-8 9 8 25.5t35.5 22.5 t29.5 -3l105 -164q6 -9 -4 -21t-23.5 -15t-22.5 4z" />
<glyph unicode="&#xfa;" d="M256 583l106 164q10 9 29 3t35 -22.5t8 -25.5l-128 -151q-11 -14 -35 1.5t-15 30.5zM83 163l5 252q0 12 32 30.5t52 18.5q13 0 13 -11l-5 -246q-2 -60 33.5 -108.5t102.5 -48.5q39 0 93 27v337q0 12 31.5 31t51.5 19q14 0 14 -11v-412q0 -13 -31 -31t-52 -18 q-14 0 -14 11v37q-87 -48 -162 -48q-82 0 -123.5 52t-40.5 119z" />
<glyph unicode="&#xfb;" d="M172 567l102 130q11 13 35.5 25.5t32.5 2.5l101 -127q5 -7 -11 -20.5t-36.5 -22t-26.5 -0.5l-77 98l-56 -73q-8 -11 -25.5 -20t-32.5 -9q-17 0 -6 16zM83 163l5 252q0 12 32 30.5t52 18.5q13 0 13 -11l-5 -246q-2 -60 33.5 -108.5t102.5 -48.5q39 0 93 27v337 q0 12 31.5 31t51.5 19q14 0 14 -11v-412q0 -13 -31 -31t-52 -18q-14 0 -14 11v37q-87 -48 -162 -48q-82 0 -123.5 52t-40.5 119z" />
<glyph unicode="&#xfc;" d="M187 564v88q0 15 30 34t51 19q14 0 14 -10v-89q0 -15 -30.5 -34t-51.5 -19q-13 0 -13 11zM352 566v89q0 15 30 34t50 19q14 0 14 -11v-88q0 -15 -30.5 -34t-50.5 -19q-13 0 -13 10zM83 163l5 252q0 12 32 30.5t52 18.5q13 0 13 -11l-5 -246q-2 -60 33.5 -108.5 t102.5 -48.5q39 0 93 27v337q0 12 31.5 31t51.5 19q14 0 14 -11v-412q0 -13 -31 -31t-52 -18q-14 0 -14 11v37q-87 -48 -162 -48q-82 0 -123.5 52t-40.5 119z" />
<glyph unicode="&#xfd;" d="M82 163l4 252q0 12 32.5 30.5t52.5 18.5q13 0 13 -11l-5 -246q-2 -60 33.5 -108.5t102.5 -48.5q30 0 92 26v338q0 12 32 31t52 19q14 0 14 -11v-482q0 -89 -75.5 -150.5t-166.5 -61.5q-81 0 -185 60q-9 6 9.5 25t45 33.5t35.5 8.5q121 -71 168 -71q71 11 71 120v104 q-87 -47 -161 -47q-83 0 -124 52t-40 119zM243 583l106 164q10 9 29 3t35 -22.5t8 -25.5l-128 -151q-11 -14 -35 1.5t-15 30.5z" />
<glyph unicode="&#xfe;" d="M103 -230v892q0 14 30 30t52 16q15 0 15 -12v-287q70 55 152 55q75 0 124.5 -51t49.5 -114v-88q0 -84 -75.5 -149t-170.5 -65h-80v-189q0 -12 -31.5 -30.5t-51.5 -18.5q-14 0 -14 11zM200 54h150q31 2 50 23t24 42t5 42v94q0 58 -43 104.5t-108 48.5q-42 -3 -60 -35 t-18 -67v-252z" />
<glyph unicode="&#xff;" d="M82 163l4 252q0 12 32.5 30.5t52.5 18.5q13 0 13 -11l-5 -246q-2 -60 33.5 -108.5t102.5 -48.5q30 0 92 26v338q0 12 32 31t52 19q14 0 14 -11v-482q0 -89 -75.5 -150.5t-166.5 -61.5q-81 0 -185 60q-9 6 9.5 25t45 33.5t35.5 8.5q121 -71 168 -71q71 11 71 120v104 q-87 -47 -161 -47q-83 0 -124 52t-40 119zM186 564v88q0 15 30 34t51 19q14 0 14 -10v-89q0 -15 -30.5 -34t-51.5 -19q-13 0 -13 11zM351 566v89q0 15 30 34t50 19q14 0 14 -11v-88q0 -15 -30.5 -34t-50.5 -19q-13 0 -13 10z" />
<glyph unicode="&#x100;" d="M41 3l209 634q10 31 36.5 51t49.5 20q16 0 22 -19l195 -639q5 -19 -27 -38.5t-55 -19.5q-11 0 -12 6l-69 246h-199l-61 -196q-7 -20 -32.5 -38t-45.5 -18q-16 0 -11 11zM212 308h161l-75 272zM127 824q0 15 28.5 35t55.5 20h265q17 0 17 -9q0 -16 -28.5 -36t-55.5 -20 h-266q-16 0 -16 10z" />
<glyph unicode="&#x101;" d="M77 103q0 62 61.5 106.5t119.5 44.5h140v23q0 48 -36 87.5t-91 42.5q-29 -2 -48.5 -27t-19.5 -56q0 -12 -35 -30.5t-58 -18.5q-15 0 -15 10q0 72 75 125.5t159 53.5q67 0 116.5 -43t49.5 -105v-275q0 -13 -30 -31t-51 -18q-14 0 -14 11v42q-40 -24 -93.5 -38.5 t-95.5 -14.5q-56 0 -95 31.5t-39 79.5zM174 143q0 -41 33.5 -66.5t75.5 -25.5q74 0 115 35v109h-163q-31 0 -46 -11t-15 -41zM139 603q0 15 28 34.5t55 19.5h237q16 0 16 -9q0 -15 -28 -35t-55 -20h-237q-16 0 -16 10z" />
<glyph unicode="&#x102;" d="M41 3l209 634q10 31 36.5 51t49.5 20q16 0 22 -19l195 -639q5 -19 -27 -38.5t-55 -19.5q-11 0 -12 6l-69 246h-199l-61 -196q-7 -20 -32.5 -38t-45.5 -18q-16 0 -11 11zM212 308h161l-75 272zM179 882q0 12 25 27t42 15q12 0 12 -8q0 -33 20 -60.5t56 -30.5q25 4 25 59 q0 12 26 27t43 15q10 0 10 -8q0 -55 -45 -96t-101 -41q-49 0 -81 30t-32 71z" />
<glyph unicode="&#x103;" d="M77 103q0 62 61.5 106.5t119.5 44.5h140v23q0 48 -36 87.5t-91 42.5q-29 -2 -48.5 -27t-19.5 -56q0 -12 -35 -30.5t-58 -18.5q-15 0 -15 10q0 72 75 125.5t159 53.5q67 0 116.5 -43t49.5 -105v-275q0 -13 -30 -31t-51 -18q-14 0 -14 11v42q-40 -24 -93.5 -38.5 t-95.5 -14.5q-56 0 -95 31.5t-39 79.5zM174 143q0 -41 33.5 -66.5t75.5 -25.5q74 0 115 35v109h-163q-31 0 -46 -11t-15 -41zM181 672q0 11 25 24.5t42 14.5q12 0 12 -8q0 -35 20.5 -64t54.5 -32q28 4 28 66q0 11 25.5 25t42.5 14q11 0 11 -7q0 -55 -43.5 -99t-107.5 -44 q-44 0 -77 31.5t-33 78.5z" />
<glyph unicode="&#x104;" d="M339 -158q0 73 120 156l-69 246h-199l-61 -196q-7 -20 -32.5 -38t-45.5 -18q-16 0 -11 11l209 634q10 31 36.5 51t49.5 20q16 0 22 -19l195 -639q6 -22 -35 -43q-102 -76 -102 -133q0 -23 14 -40.5t42 -17.5q20 0 40 13q30 22 38 13q10 -13 -19 -36q-50 -46 -111 -46 q-33 0 -57 22.5t-24 59.5zM212 308h161l-75 272z" />
<glyph unicode="&#x105;" d="M276 -158q0 77 124 159v2v42q-40 -24 -93.5 -38.5t-95.5 -14.5q-56 0 -95 31.5t-39 79.5q0 62 61.5 106.5t119.5 44.5h140v23q0 48 -36 87.5t-91 42.5q-29 -2 -48.5 -27t-19.5 -56q0 -12 -35 -30.5t-58 -18.5q-15 0 -15 10q0 72 75 125.5t159 53.5q67 0 116.5 -43 t49.5 -105v-275q0 -9 -15 -21t-35 -20q-92 -72 -92 -126q0 -23 14 -40.5t42 -17.5q20 0 40 13q32 21 39 13q10 -13 -19 -37q-52 -46 -112 -46q-33 0 -57 22.5t-24 60.5zM174 143q0 -41 33.5 -66.5t75.5 -25.5q74 0 115 35v109h-163q-31 0 -46 -11t-15 -41z" />
<glyph unicode="&#x106;" d="M291 -8q-67 0 -121 50t-54 135v314q0 86 71.5 151.5t170.5 65.5q78 0 118.5 -51.5t40.5 -113.5q0 -17 -34 -39.5t-55 -22.5q-12 0 -12 10q0 57 -35.5 103.5t-94.5 50.5q-28 -4 -49 -37t-21 -72v-320q0 -65 41.5 -110t98.5 -48q32 2 56.5 39.5t24.5 96.5q0 15 38.5 37.5 t61.5 22.5q13 0 13 -10q0 -42 -17 -85.5t-48 -81t-82 -61.5t-112 -24zM234 804l161 126q10 8 28 -8.5t25 -36.5t-2 -29l-178 -97q-9 -6 -21.5 3t-16.5 21.5t4 20.5z" />
<glyph unicode="&#x107;" d="M254 583l106 164q10 9 29 3t35 -22.5t8 -25.5l-128 -151q-11 -14 -35 1.5t-15 30.5zM94 157v92q0 87 75 151t166 64q81 0 126.5 -52t45.5 -118q0 -14 -40 -35q-48 -25 -57 -9q-1 3 -1 6q0 57 -38.5 103t-105.5 49q-36 -6 -55 -40.5t-19 -80.5v-85q0 -55 42.5 -103.5 t103.5 -48.5q48 0 132 50q32 20 50 10q8 -7 3.5 -15.5t-15.5 -14.5q-143 -88 -237 -88q-77 0 -126.5 51.5t-49.5 113.5z" />
<glyph unicode="&#x108;" d="M291 -8q-67 0 -121 50t-54 135v314q0 86 71.5 151.5t170.5 65.5q78 0 118.5 -51.5t40.5 -113.5q0 -17 -34 -39.5t-55 -22.5q-12 0 -12 10q0 57 -35.5 103.5t-94.5 50.5q-28 -4 -49 -37t-21 -72v-320q0 -65 41.5 -110t98.5 -48q32 2 56.5 39.5t24.5 96.5q0 15 38.5 37.5 t61.5 22.5q13 0 13 -10q0 -42 -17 -85.5t-48 -81t-82 -61.5t-112 -24zM188 808l107 103q12 11 37 22t36 3l118 -97q7 -5 -9 -20t-39 -25t-32 -3l-95 78l-59 -57q-26 -26 -62 -26q-22 0 -2 22z" />
<glyph unicode="&#x109;" d="M182 567l102 130q11 13 35.5 25.5t32.5 2.5l101 -127q5 -7 -11 -20.5t-36.5 -22t-26.5 -0.5l-77 98l-56 -73q-8 -11 -25.5 -20t-32.5 -9q-17 0 -6 16zM94 157v92q0 87 75 151t166 64q81 0 126.5 -52t45.5 -118q0 -14 -40 -35q-48 -25 -57 -9q-1 3 -1 6q0 57 -38.5 103 t-105.5 49q-36 -6 -55 -40.5t-19 -80.5v-85q0 -55 42.5 -103.5t103.5 -48.5q48 0 132 50q32 20 50 10q8 -7 3.5 -15.5t-15.5 -14.5q-143 -88 -237 -88q-77 0 -126.5 51.5t-49.5 113.5z" />
<glyph unicode="&#x10a;" d="M267 778v84q0 19 42.5 43.5t70.5 24.5q18 0 18 -13v-84q0 -19 -42 -43.5t-70 -24.5q-19 0 -19 13zM291 -8q-67 0 -121 50t-54 135v314q0 86 71.5 151.5t170.5 65.5q78 0 118.5 -51.5t40.5 -113.5q0 -17 -34 -39.5t-55 -22.5q-12 0 -12 10q0 57 -35.5 103.5t-94.5 50.5 q-28 -4 -49 -37t-21 -72v-320q0 -65 41.5 -110t98.5 -48q32 2 56.5 39.5t24.5 96.5q0 15 38.5 37.5t61.5 22.5q13 0 13 -10q0 -42 -17 -85.5t-48 -81t-82 -61.5t-112 -24z" />
<glyph unicode="&#x10b;" d="M94 157v92q0 87 75 151t166 64q81 0 126.5 -52t45.5 -118q0 -14 -40 -35q-48 -25 -57 -9q-1 3 -1 6q0 57 -38.5 103t-105.5 49q-36 -6 -55 -40.5t-19 -80.5v-85q0 -55 42.5 -103.5t103.5 -48.5q48 0 132 50q32 20 50 10q8 -7 3.5 -15.5t-15.5 -14.5q-143 -88 -237 -88 q-77 0 -126.5 51.5t-49.5 113.5zM246 562v83q0 19 41 43t69 24q19 0 19 -13v-83q0 -19 -41 -43t-69 -24q-19 0 -19 13z" />
<glyph unicode="&#x10c;" d="M291 -8q-67 0 -121 50t-54 135v314q0 86 71.5 151.5t170.5 65.5q78 0 118.5 -51.5t40.5 -113.5q0 -17 -34 -39.5t-55 -22.5q-12 0 -12 10q0 57 -35.5 103.5t-94.5 50.5q-28 -4 -49 -37t-21 -72v-320q0 -65 41.5 -110t98.5 -48q32 2 56.5 39.5t24.5 96.5q0 15 38.5 37.5 t61.5 22.5q13 0 13 -10q0 -42 -17 -85.5t-48 -81t-82 -61.5t-112 -24zM182 872q-11 7 22 30q41 28 57 17l95 -78l58 56q26 26 62 26q22 0 2 -22l-105 -101q-12 -12 -37 -22.5t-36 -2.5z" />
<glyph unicode="&#x10d;" d="M182 681q-5 7 11.5 21t36.5 22t26 0l77 -98l56 74q8 11 26 19.5t32 8.5q17 0 6 -16l-102 -130q-10 -13 -35 -25.5t-33 -2.5zM94 157v92q0 87 75 151t166 64q81 0 126.5 -52t45.5 -118q0 -14 -40 -35q-48 -25 -57 -9q-1 3 -1 6q0 57 -38.5 103t-105.5 49q-36 -6 -55 -40.5 t-19 -80.5v-85q0 -55 42.5 -103.5t103.5 -48.5q48 0 132 50q32 20 50 10q8 -7 3.5 -15.5t-15.5 -14.5q-143 -88 -237 -88q-77 0 -126.5 51.5t-49.5 113.5z" />
<glyph unicode="&#x10e;" d="M29 9q0 13 21.5 30.5t45.5 21.5h28v575h-62q-16 0 -16 9q0 15 27.5 35t53.5 20h212q74 0 128.5 -57t54.5 -143v-278q0 -93 -75 -157.5t-173 -64.5h-228q-17 0 -17 9zM225 64h124q32 5 52 39.5t20 75.5v288q0 64 -41.5 116t-99.5 55h-55v-574zM141 872q-11 7 22 30 q41 28 57 17l95 -78l58 56q26 26 62 26q22 0 2 -22l-105 -101q-12 -12 -37 -22.5t-36 -2.5z" />
<glyph unicode="&#x10f;" d="M562 555l4 166q0 17 39 17q41 -1 47 -17q1 -3 0 -6l-45 -163q-4 -14 -15 -18.5t-20.5 1.5t-9.5 20zM79 156v94q0 84 74.5 149t164.5 65q47 0 86 -27v221q0 14 31 32t52 18q15 0 15 -11v-656q0 -12 -32 -30.5t-52 -18.5q-14 0 -14 11v36q-81 -47 -152 -47q-76 0 -124.5 51 t-48.5 113zM176 202q0 -55 42.5 -103.5t102.5 -48.5q29 0 83 27v178q0 57 -43 104t-107 49q-43 -4 -60.5 -38t-17.5 -70v-98z" />
<glyph unicode="&#x110;" d="M29 9q0 13 21.5 30.5t45.5 21.5h28v256h-75q-16 0 -16 10q0 15 27.5 35t53.5 20h10v254h-62q-16 0 -16 9q0 15 27.5 35t53.5 20h212q74 0 128.5 -57t54.5 -143v-278q0 -93 -75 -157.5t-173 -64.5h-228q-17 0 -17 9zM225 64h124q32 5 52 39.5t20 75.5v288q0 64 -41.5 116 t-99.5 55h-55v-256h111q16 0 16 -9q0 -15 -27.5 -35.5t-53.5 -20.5h-46v-253z" />
<glyph unicode="&#x111;" d="M79 156v94q0 84 74.5 149t164.5 65q47 0 86 -27v90h-126q-15 0 -15 9q0 14 27 33.5t53 19.5h61v69q0 14 31 32t52 18q15 0 15 -11v-108h95q16 0 16 -10q0 -14 -27.5 -33t-53.5 -19h-30v-486q0 -12 -32 -30.5t-52 -18.5q-14 0 -14 11v36q-81 -47 -152 -47q-76 0 -124.5 51 t-48.5 113zM176 202q0 -55 42.5 -103.5t102.5 -48.5q29 0 83 27v178q0 57 -43 104t-107 49q-43 -4 -60.5 -38t-17.5 -70v-98z" />
<glyph unicode="&#x112;" d="M66 327q0 15 28 35t54 20h4v262q0 15 31 35.5t56 20.5h287q16 0 16 -9q0 -15 -27.5 -35t-53.5 -20h-209v-254h196q16 0 16 -9q0 -15 -27.5 -35t-53.5 -20h-131v-253h275q16 0 16 -10q0 -15 -28 -35t-54 -20h-294q-15 0 -15 10v308h-70q-16 0 -16 9zM162 824q0 15 28.5 35 t55.5 20h265q17 0 17 -9q0 -16 -28.5 -36t-55.5 -20h-266q-16 0 -16 10z" />
<glyph unicode="&#x113;" d="M189 205v-13q0 -49 42 -95.5t103 -46.5q55 0 139 50q32 20 51 10q8 -7 3 -15.5t-16 -14.5q-143 -88 -244 -88q-77 0 -126.5 51.5t-49.5 113.5v90q0 61 38.5 112t93 78t107.5 27q85 0 137 -54t52 -142v-13q0 -16 -34.5 -33t-54.5 -17h-241zM189 254h233q-10 73 -54 113 t-104 41q-34 -3 -54.5 -33t-20.5 -76v-45zM151 603q0 15 28 34.5t55 19.5h237q16 0 16 -9q0 -15 -28 -35t-55 -20h-237q-16 0 -16 10z" />
<glyph unicode="&#x114;" d="M66 327q0 15 28 35t54 20h4v262q0 15 31 35.5t56 20.5h287q16 0 16 -9q0 -15 -27.5 -35t-53.5 -20h-209v-254h196q16 0 16 -9q0 -15 -27.5 -35t-53.5 -20h-131v-253h275q16 0 16 -10q0 -15 -28 -35t-54 -20h-294q-15 0 -15 10v308h-70q-16 0 -16 9zM219 882q0 12 25 27 t42 15q12 0 12 -8q0 -33 20 -60.5t56 -30.5q25 4 25 59q0 12 26 27t43 15q10 0 10 -8q0 -55 -45 -96t-101 -41q-49 0 -81 30t-32 71z" />
<glyph unicode="&#x115;" d="M189 205v-13q0 -49 42 -95.5t103 -46.5q55 0 139 50q32 20 51 10q8 -7 3 -15.5t-16 -14.5q-143 -88 -244 -88q-77 0 -126.5 51.5t-49.5 113.5v90q0 61 38.5 112t93 78t107.5 27q85 0 137 -54t52 -142v-13q0 -16 -34.5 -33t-54.5 -17h-241zM189 254h233q-10 73 -54 113 t-104 41q-34 -3 -54.5 -33t-20.5 -76v-45zM188 672q0 11 25 24.5t42 14.5q12 0 12 -8q0 -35 20.5 -64t54.5 -32q28 4 28 66q0 11 25.5 25t42.5 14q11 0 11 -7q0 -55 -43.5 -99t-107.5 -44q-44 0 -77 31.5t-33 78.5z" />
<glyph unicode="&#x116;" d="M66 327q0 15 28 35t54 20h4v262q0 15 31 35.5t56 20.5h287q16 0 16 -9q0 -15 -27.5 -35t-53.5 -20h-209v-254h196q16 0 16 -9q0 -15 -27.5 -35t-53.5 -20h-131v-253h275q16 0 16 -10q0 -15 -28 -35t-54 -20h-294q-15 0 -15 10v308h-70q-16 0 -16 9zM282 778v84 q0 19 42.5 43.5t70.5 24.5q18 0 18 -13v-84q0 -19 -42 -43.5t-70 -24.5q-19 0 -19 13z" />
<glyph unicode="&#x117;" d="M189 205v-13q0 -49 42 -95.5t103 -46.5q55 0 139 50q32 20 51 10q8 -7 3 -15.5t-16 -14.5q-143 -88 -244 -88q-77 0 -126.5 51.5t-49.5 113.5v90q0 61 38.5 112t93 78t107.5 27q85 0 137 -54t52 -142v-13q0 -16 -34.5 -33t-54.5 -17h-241zM189 254h233q-10 73 -54 113 t-104 41q-34 -3 -54.5 -33t-20.5 -76v-45zM250 562v83q0 19 41 43t69 24q19 0 19 -13v-83q0 -19 -41 -43t-69 -24q-19 0 -19 13z" />
<glyph unicode="&#x118;" d="M66 327q0 15 28 35t54 20h4v262q0 15 31 35.5t56 20.5h287q16 0 16 -9q0 -15 -27.5 -35t-53.5 -20h-209v-254h196q16 0 16 -9q0 -15 -27.5 -35t-53.5 -20h-131v-253h275q16 0 16 -10t-16 -25t-36 -23q-101 -75 -101 -133q0 -23 14 -40.5t42 -17.5q20 0 40 13q32 21 39 13 q10 -13 -19 -37q-52 -46 -112 -46q-33 0 -57 22.5t-24 60.5q0 76 122 158h-268q-15 0 -15 10v308h-70q-16 0 -16 9z" />
<glyph unicode="&#x119;" d="M189 205v-13q0 -49 42 -95.5t103 -46.5q55 0 139 50q32 20 51 10q8 -7 3 -15.5t-16 -14.5l-7 -5q-51 -44 -93 -102.5t-42 -97.5q0 -23 14 -41t42 -18q18 0 40 13q31 21 38 13q11 -13 -18 -37q-52 -46 -113 -46q-33 0 -56.5 22.5t-23.5 60.5q0 75 113 182 q-75 -32 -138 -32q-77 0 -126.5 51.5t-49.5 113.5v90q0 61 38.5 112t93 78t107.5 27q85 0 137 -54t52 -142v-13q0 -16 -34.5 -33t-54.5 -17h-241zM189 254h233q-10 73 -54 113t-104 41q-34 -3 -54.5 -33t-20.5 -76v-45z" />
<glyph unicode="&#x11a;" d="M66 327q0 15 28 35t54 20h4v262q0 15 31 35.5t56 20.5h287q16 0 16 -9q0 -15 -27.5 -35t-53.5 -20h-209v-254h196q16 0 16 -9q0 -15 -27.5 -35t-53.5 -20h-131v-253h275q16 0 16 -10q0 -15 -28 -35t-54 -20h-294q-15 0 -15 10v308h-70q-16 0 -16 9zM191 872q-11 7 22 30 q41 28 57 17l95 -78l58 56q26 26 62 26q22 0 2 -22l-105 -101q-12 -12 -37 -22.5t-36 -2.5z" />
<glyph unicode="&#x11b;" d="M179 681q-5 7 11.5 21t36.5 22t26 0l77 -98l56 74q8 11 26 19.5t32 8.5q17 0 6 -16l-102 -130q-10 -13 -35 -25.5t-33 -2.5zM189 205v-13q0 -49 42 -95.5t103 -46.5q55 0 139 50q32 20 51 10q8 -7 3 -15.5t-16 -14.5q-143 -88 -244 -88q-77 0 -126.5 51.5t-49.5 113.5v90 q0 61 38.5 112t93 78t107.5 27q85 0 137 -54t52 -142v-13q0 -16 -34.5 -33t-54.5 -17h-241zM189 254h233q-10 73 -54 113t-104 41q-34 -3 -54.5 -33t-20.5 -76v-45z" />
<glyph unicode="&#x11c;" d="M171 808l107 103q12 11 37 22t36 3l118 -97q7 -5 -9 -20t-39 -25t-32 -3l-95 78l-59 -57q-26 -26 -62 -26q-22 0 -2 22zM262 -8q-65 0 -114 48t-49 134v317q0 86 71.5 151.5t171.5 65.5q80 0 119.5 -50t39.5 -115q0 -17 -34 -39.5t-55 -22.5q-12 0 -12 10 q0 57 -35.5 103.5t-95.5 50.5q-28 -4 -49 -37t-21 -72v-323q0 -65 40.5 -110t96.5 -48q36 4 63 36t27 77v112l-45 -33q-39 -29 -58 -14q-14 12 12 34l118 90q50 39 68 26q5 -3 5 -9v-169q0 -81 -77 -147t-187 -66z" />
<glyph unicode="&#x11d;" d="M276 250q-10 0 -15 7t-3.5 17.5t11.5 20.5l79 84q-39 28 -93 29q-36 -4 -56.5 -33.5t-20.5 -75.5v-87q0 -86 87 -116l134 -50q54 -19 79 -45t25 -70q0 -69 -70.5 -120.5t-169.5 -51.5q-63 0 -117 39.5t-54 96.5q0 16 40 36q46 24 56 9q2 -2 2 -6q0 -45 43 -81.5 t106 -36.5q27 2 47 21.5t20 51.5q0 61 -71 88l-139 51q-61 22 -88 60t-27 100v58q0 92 77.5 155t165.5 63q47 0 85 -20l65 69q9 9 19 9q16 0 19 -15t-11 -30l-55 -58q58 -52 58 -126v-26q-1 -106 -113 -164q-6 -3 -13 -3q-11 0 -14.5 6.5t4.5 16.5q39 28 39 136q0 50 -28 88 l-84 -88q-7 -9 -19 -9zM156 567l102 130q11 13 35.5 25.5t32.5 2.5l101 -127q5 -7 -11 -20.5t-36.5 -22t-26.5 -0.5l-77 98l-56 -73q-8 -11 -25.5 -20t-32.5 -9q-17 0 -6 16z" />
<glyph unicode="&#x11e;" d="M262 -8q-65 0 -114 48t-49 134v317q0 86 71.5 151.5t171.5 65.5q80 0 119.5 -50t39.5 -115q0 -17 -34 -39.5t-55 -22.5q-12 0 -12 10q0 57 -35.5 103.5t-95.5 50.5q-28 -4 -49 -37t-21 -72v-323q0 -65 40.5 -110t96.5 -48q36 4 63 36t27 77v112l-45 -33q-39 -29 -58 -14 q-14 12 12 34l118 90q50 39 68 26q5 -3 5 -9v-169q0 -81 -77 -147t-187 -66zM185 882q0 12 25 27t42 15q12 0 12 -8q0 -33 20 -60.5t56 -30.5q25 4 25 59q0 12 26 27t43 15q10 0 10 -8q0 -55 -45 -96t-101 -41q-49 0 -81 30t-32 71z" />
<glyph unicode="&#x11f;" d="M276 250q-10 0 -15 7t-3.5 17.5t11.5 20.5l79 84q-39 28 -93 29q-36 -4 -56.5 -33.5t-20.5 -75.5v-87q0 -86 87 -116l134 -50q54 -19 79 -45t25 -70q0 -69 -70.5 -120.5t-169.5 -51.5q-63 0 -117 39.5t-54 96.5q0 16 40 36q46 24 56 9q2 -2 2 -6q0 -45 43 -81.5 t106 -36.5q27 2 47 21.5t20 51.5q0 61 -71 88l-139 51q-61 22 -88 60t-27 100v58q0 92 77.5 155t165.5 63q47 0 85 -20l65 69q9 9 19 9q16 0 19 -15t-11 -30l-55 -58q58 -52 58 -126v-26q-1 -106 -113 -164q-6 -3 -13 -3q-11 0 -14.5 6.5t4.5 16.5q39 28 39 136q0 50 -28 88 l-84 -88q-7 -9 -19 -9zM166 672q0 11 25 24.5t42 14.5q12 0 12 -8q0 -35 20.5 -64t54.5 -32q28 4 28 66q0 11 25.5 25t42.5 14q11 0 11 -7q0 -55 -43.5 -99t-107.5 -44q-44 0 -77 31.5t-33 78.5z" />
<glyph unicode="&#x120;" d="M243 778v84q0 19 42.5 43.5t70.5 24.5q18 0 18 -13v-84q0 -19 -42 -43.5t-70 -24.5q-19 0 -19 13zM262 -8q-65 0 -114 48t-49 134v317q0 86 71.5 151.5t171.5 65.5q80 0 119.5 -50t39.5 -115q0 -17 -34 -39.5t-55 -22.5q-12 0 -12 10q0 57 -35.5 103.5t-95.5 50.5 q-28 -4 -49 -37t-21 -72v-323q0 -65 40.5 -110t96.5 -48q36 4 63 36t27 77v112l-45 -33q-39 -29 -58 -14q-14 12 12 34l118 90q50 39 68 26q5 -3 5 -9v-169q0 -81 -77 -147t-187 -66z" />
<glyph unicode="&#x121;" d="M276 250q-10 0 -15 7t-3.5 17.5t11.5 20.5l79 84q-39 28 -93 29q-36 -4 -56.5 -33.5t-20.5 -75.5v-87q0 -86 87 -116l134 -50q54 -19 79 -45t25 -70q0 -69 -70.5 -120.5t-169.5 -51.5q-63 0 -117 39.5t-54 96.5q0 16 40 36q46 24 56 9q2 -2 2 -6q0 -45 43 -81.5 t106 -36.5q27 2 47 21.5t20 51.5q0 61 -71 88l-139 51q-61 22 -88 60t-27 100v58q0 92 77.5 155t165.5 63q47 0 85 -20l65 69q9 9 19 9q16 0 19 -15t-11 -30l-55 -58q58 -52 58 -126v-26q-1 -106 -113 -164q-6 -3 -13 -3q-11 0 -14.5 6.5t4.5 16.5q39 28 39 136q0 50 -28 88 l-84 -88q-7 -9 -19 -9zM229 562v83q0 19 41 43t69 24q19 0 19 -13v-83q0 -19 -41 -43t-69 -24q-19 0 -19 13z" />
<glyph unicode="&#x122;" d="M263 -133q-2 16 27.5 36.5t56.5 27t34 -4.5q9 -52 -20 -102.5t-77 -79.5q-29 -17 -40 -7q-7 6 3 22q25 37 16 108zM262 -8q-65 0 -114 48t-49 134v317q0 86 71.5 151.5t171.5 65.5q80 0 119.5 -50t39.5 -115q0 -17 -34 -39.5t-55 -22.5q-12 0 -12 10q0 57 -35.5 103.5 t-95.5 50.5q-28 -4 -49 -37t-21 -72v-323q0 -65 40.5 -110t96.5 -48q36 4 63 36t27 77v112l-45 -33q-39 -29 -58 -14q-14 12 12 34l118 90q50 39 68 26q5 -3 5 -9v-169q0 -81 -77 -147t-187 -66z" />
<glyph unicode="&#x123;" d="M276 250q-10 0 -15 7t-3.5 17.5t11.5 20.5l79 84q-39 28 -93 29q-36 -4 -56.5 -33.5t-20.5 -75.5v-87q0 -86 87 -116l134 -50q54 -19 79 -45t25 -70q0 -69 -70.5 -120.5t-169.5 -51.5q-63 0 -117 39.5t-54 96.5q0 16 40 36q46 24 56 9q2 -2 2 -6q0 -45 43 -81.5 t106 -36.5q27 2 47 21.5t20 51.5q0 61 -71 88l-139 51q-61 22 -88 60t-27 100v58q0 92 77.5 155t165.5 63q47 0 85 -20l65 69q9 9 19 9q16 0 19 -15t-11 -30l-55 -58q58 -52 58 -126v-26q-1 -106 -113 -164q-6 -3 -13 -3q-11 0 -14.5 6.5t4.5 16.5q39 28 39 136q0 50 -28 88 l-84 -88q-7 -9 -19 -9zM350 625q2 -16 -27.5 -36.5t-56.5 -27t-34 4.5q-9 52 20 102.5t77 79.5q29 17 40 7q7 -6 -3 -22q-25 -37 -16 -108z" />
<glyph unicode="&#x124;" d="M95 3v650q0 16 32 35.5t54 19.5q15 0 15 -11v-315h208v271q0 16 31.5 35.5t53.5 19.5q15 0 15 -11v-650q0 -16 -31.5 -35.5t-53.5 -19.5q-15 0 -15 11v315h-208v-271q0 -16 -31.5 -35.5t-53.5 -19.5q-16 0 -16 11zM162 808l107 103q12 11 37 22t36 3l118 -97q7 -5 -9 -20 t-39 -25t-32 -3l-95 78l-59 -57q-26 -26 -62 -26q-22 0 -2 22z" />
<glyph unicode="&#x125;" d="M104 3v655q0 14 30.5 32t51.5 18q15 0 15 -11v-289q70 56 152 56q75 0 124.5 -51t49.5 -114v-258q0 -12 -32 -30.5t-52 -18.5q-14 0 -14 11v252q0 58 -43 104.5t-107 48.5q-42 -3 -60 -35t-18 -67v-265q0 -12 -32 -30.5t-52 -18.5q-13 0 -13 11zM21 808l107 103 q12 11 37 22t36 3l118 -97q7 -5 -9 -20t-39 -25t-32 -3l-95 78l-59 -57q-26 -26 -62 -26q-22 0 -2 22z" />
<glyph unicode="&#x126;" d="M95 3v502h-75q-16 0 -16 9q0 15 28 34.5t54 19.5h9v85q0 16 32 35.5t54 19.5q15 0 15 -11v-129h208v85q0 16 31.5 35.5t53.5 19.5q15 0 15 -11v-129h77q16 0 16 -10q0 -15 -27.5 -34t-53.5 -19h-12v-458q0 -16 -31.5 -35.5t-53.5 -19.5q-15 0 -15 11v315h-208v-271 q0 -16 -31.5 -35.5t-53.5 -19.5q-16 0 -16 11zM196 382h208v123h-208v-123z" />
<glyph unicode="&#x127;" d="M104 3v524h-92q-16 0 -16 9q0 14 27 33.5t53 19.5h28v69q0 14 30.5 32t51.5 18q15 0 15 -11v-108h129q16 0 16 -10q0 -14 -27 -33t-53 -19h-65v-119q70 56 152 56q75 0 124.5 -51t49.5 -114v-258q0 -12 -32 -30.5t-52 -18.5q-14 0 -14 11v252q0 58 -43 104.5t-107 48.5 q-42 -3 -60 -35t-18 -67v-265q0 -12 -32 -30.5t-52 -18.5q-13 0 -13 11z" />
<glyph unicode="&#x128;" d="M78 9q0 15 27.5 35.5t53.5 20.5h93v571h-136q-17 0 -17 9q0 14 27.5 34.5t53.5 20.5h312q16 0 16 -9q0 -15 -27.5 -35t-53.5 -20h-74v-571h151q16 0 16 -10q0 -15 -27.5 -35t-53.5 -20h-345q-16 0 -16 9zM143 810q7 31 43 65t76 34q29 0 77 -30.5t56 -33.5q54 52 68 52 t10 -12q-8 -31 -42 -65.5t-78 -34.5q-27 0 -75 30.5t-56 33.5q-53 -51 -69 -51q-14 0 -10 12z" />
<glyph unicode="&#x129;" d="M81 9q0 14 26 33t50 19h132v314l-140 -87q-50 -29 -70 -19q-8 7 -2.5 15.5t19.5 16.5l227 144q32 19 54 19q10 0 10 -8v-395h153q15 0 15 -9q0 -14 -26 -33t-50 -19h-383q-15 0 -15 9zM172 586q7 30 42 64t74 34q24 0 68 -29t55 -34q53 51 67 51q13 0 9 -11 q-7 -30 -40 -64.5t-76 -34.5q-23 0 -67.5 30t-54.5 34q-52 -52 -67 -52q-13 0 -10 12z" />
<glyph unicode="&#x12a;" d="M78 9q0 15 27.5 35.5t53.5 20.5h93v571h-136q-17 0 -17 9q0 14 27.5 34.5t53.5 20.5h312q16 0 16 -9q0 -15 -27.5 -35t-53.5 -20h-74v-571h151q16 0 16 -10q0 -15 -27.5 -35t-53.5 -20h-345q-16 0 -16 9zM131 824q0 15 28.5 35t55.5 20h265q17 0 17 -9q0 -16 -28.5 -36 t-55.5 -20h-266q-16 0 -16 10z" />
<glyph unicode="&#x12b;" d="M81 9q0 14 26 33t50 19h132v314l-140 -87q-50 -29 -70 -19q-8 7 -2.5 15.5t19.5 16.5l227 144q32 19 54 19q10 0 10 -8v-395h153q15 0 15 -9q0 -14 -26 -33t-50 -19h-383q-15 0 -15 9zM151 603q0 15 28 34.5t55 19.5h237q16 0 16 -9q0 -15 -28 -35t-55 -20h-237 q-16 0 -16 10z" />
<glyph unicode="&#x12c;" d="M78 9q0 15 27.5 35.5t53.5 20.5h93v571h-136q-17 0 -17 9q0 14 27.5 34.5t53.5 20.5h312q16 0 16 -9q0 -15 -27.5 -35t-53.5 -20h-74v-571h151q16 0 16 -10q0 -15 -27.5 -35t-53.5 -20h-345q-16 0 -16 9zM182 882q0 12 25 27t42 15q12 0 12 -8q0 -33 20 -60.5t56 -30.5 q25 4 25 59q0 12 26 27t43 15q10 0 10 -8q0 -55 -45 -96t-101 -41q-49 0 -81 30t-32 71z" />
<glyph unicode="&#x12d;" d="M81 9q0 14 26 33t50 19h132v314l-140 -87q-50 -29 -70 -19q-8 7 -2.5 15.5t19.5 16.5l227 144q32 19 54 19q10 0 10 -8v-395h153q15 0 15 -9q0 -14 -26 -33t-50 -19h-383q-15 0 -15 9zM202 672q0 11 25 24.5t42 14.5q12 0 12 -8q0 -35 20.5 -64t54.5 -32q28 4 28 66 q0 11 25.5 25t42.5 14q11 0 11 -7q0 -55 -43.5 -99t-107.5 -44q-44 0 -77 31.5t-33 78.5z" />
<glyph unicode="&#x12e;" d="M192 -158q0 76 122 158h-220q-16 0 -16 9q0 15 27.5 35.5t53.5 20.5h93v571h-136q-17 0 -17 9q0 14 27.5 34.5t53.5 20.5h312q16 0 16 -9q0 -15 -27.5 -35t-53.5 -20h-74v-571h151q16 0 16 -10q0 -15 -27.5 -35t-53.5 -20h-78q-92 -70 -92 -126q0 -23 14 -40.5t42 -17.5 q20 0 40 13q32 21 39 13q10 -13 -19 -37q-52 -46 -112 -46q-33 0 -57 22.5t-24 60.5z" />
<glyph unicode="&#x12f;" d="M218 -158q0 76 122 158h-244q-15 0 -15 9q0 14 26 33t50 19h132v314l-140 -87q-50 -29 -70 -19q-8 7 -2.5 15.5t19.5 16.5l227 144q32 19 54 19q10 0 10 -8v-395h153q15 0 15 -9q0 -14 -26 -33t-50 -19h-92q-92 -70 -92 -126q0 -23 14 -40.5t42 -17.5q20 0 40 13 q32 21 39 13q10 -13 -19 -37q-52 -46 -112 -46q-33 0 -57 22.5t-24 60.5zM266 553v85q0 17 43 42t70 25q19 0 19 -14v-85q0 -17 -43 -42t-70 -25q-19 0 -19 14z" />
<glyph unicode="&#x130;" d="M78 9q0 15 27.5 35.5t53.5 20.5h93v571h-136q-17 0 -17 9q0 14 27.5 34.5t53.5 20.5h312q16 0 16 -9q0 -15 -27.5 -35t-53.5 -20h-74v-571h151q16 0 16 -10q0 -15 -27.5 -35t-53.5 -20h-345q-16 0 -16 9zM247 778v84q0 19 42.5 43.5t70.5 24.5q18 0 18 -13v-84 q0 -19 -42 -43.5t-70 -24.5q-19 0 -19 13z" />
<glyph unicode="&#x131;" d="M81 9q0 14 26 33t50 19h132v314l-140 -87q-50 -29 -70 -19q-8 7 -2.5 15.5t19.5 16.5l227 144q32 19 54 19q10 0 10 -8v-395h153q15 0 15 -9q0 -14 -26 -33t-50 -19h-383q-15 0 -15 9z" />
<glyph unicode="&#x132;" d="M-7 9q0 15 25 35t50 20h42v572h-86q-16 0 -16 9q0 14 27.5 34.5t52.5 20.5h216q16 0 16 -9q0 -15 -26 -35t-52 -20h-40v-571h102q16 0 16 -10q0 -15 -27.5 -35t-53.5 -20h-230q-16 0 -16 9zM533 700v-771q0 -70 -49.5 -120t-125.5 -50q-46 0 -78 32t-34 72q-1 19 30 39.5 t51 21.5q10 0 10 -6q4 -38 25 -63.5t56 -29.5q27 12 27 98v725q0 16 28.5 38t48.5 22q11 0 11 -8z" />
<glyph unicode="&#x133;" d="M49 9q0 14 26 33t50 19h42v314l-39 -23q-50 -29 -70 -19q-8 7 -2.5 15.5t19.5 16.5l126 80q32 19 50 19q10 0 10 -8v-395h103q15 0 15 -9q0 -14 -26 -33t-50 -19h-239q-15 0 -15 9zM144 553v85q0 17 43 42t70 25q19 0 19 -14v-85q0 -17 -43 -42t-70 -25q-19 0 -19 14z M179 -103q0 12 31.5 30.5t51.5 18.5q14 0 14 -11q0 -46 32 -82t81 -37q58 5 58 96v462l-38 -22q-48 -30 -69 -18q-8 7 -2.5 15t18.5 16l125 80q32 19 50 19q10 0 10 -8v-509q0 -77 -64.5 -132.5t-145.5 -55.5q-65 0 -108.5 41.5t-43.5 96.5zM425 553v85q0 17 42.5 42 t69.5 25q19 0 19 -14v-85q0 -17 -43 -42t-70 -25q-18 0 -18 14z" />
<glyph unicode="&#x134;" d="M247 -8q-79 0 -133 61.5t-54 134.5q0 15 32 34.5t54 19.5q15 0 15 -12q0 -61 44 -117.5t113 -57.5q28 3 49.5 31t21.5 65v502q0 16 31.5 35.5t53.5 19.5q15 0 15 -11v-492q0 -85 -70.5 -149t-171.5 -64zM284 808l107 103q12 11 37 22t36 3l118 -97q7 -5 -9 -20t-39 -25 t-32 -3l-95 78l-59 -57q-26 -26 -62 -26q-22 0 -2 22z" />
<glyph unicode="&#x135;" d="M63 -95q0 12 31.5 30.5t51.5 18.5q14 0 14 -11q0 -51 32 -88.5t81 -38.5q58 5 58 96v462l-187 -116q-48 -30 -69 -18q-8 7 -2.5 15t18.5 16l274 174q35 21 54 21q10 0 10 -8v-511q0 -77 -66.5 -132.5t-147.5 -55.5q-65 0 -108.5 43.5t-43.5 102.5zM238 567l102 130 q11 13 35.5 25.5t32.5 2.5l101 -127q5 -7 -11 -20.5t-36.5 -22t-26.5 -0.5l-77 98l-56 -73q-8 -11 -25.5 -20t-32.5 -9q-17 0 -6 16z" />
<glyph unicode="&#x136;" d="M256 -133q-2 16 27.5 36.5t56.5 27t34 -4.5q9 -52 -20 -102.5t-77 -79.5q-29 -17 -40 -7q-7 6 3 22q25 37 16 108zM124 3v650q0 16 31.5 35.5t54.5 19.5q15 0 15 -11v-294l199 260q33 45 73 45q7 0 9.5 -4t1 -9.5t-6.5 -11.5l-208 -273l282 -356q3 -3 3 -7 q0 -16 -26.5 -35.5t-46.5 -19.5q-9 0 -15 7l-263 340h-2v-291q0 -16 -32 -36t-54 -20q-15 0 -15 11z" />
<glyph unicode="&#x137;" d="M142 3v655q0 14 30.5 32t51.5 18q15 0 15 -11v-435l192 167q41 37 72 34q17 -1 6 -19q-4 -7 -11 -12l-163 -144l212 -238q6 -7 -5 -21t-30.5 -25.5t-34.5 -11.5q-9 0 -13 6l-201 227l-24 -21v-163q0 -12 -32 -30.5t-52 -18.5q-13 0 -13 11zM258 -133q-2 16 27.5 36.5 t56.5 27t34 -4.5q9 -52 -20 -102.5t-77 -79.5q-29 -17 -40 -7q-7 6 3 22q25 37 16 108z" />
<glyph unicode="&#x139;" d="M143 804l161 126q10 8 28 -8.5t25 -36.5t-2 -29l-178 -97q-9 -6 -21.5 3t-16.5 21.5t4 20.5zM136 10l13 643q1 17 32.5 36t53.5 19q15 0 15 -10l-14 -633h300q16 0 16 -10q0 -15 -27.5 -35t-53.5 -20h-320q-15 0 -15 10z" />
<glyph unicode="&#x13a;" d="M230 804l161 126q10 8 28 -8.5t25 -36.5t-2 -29l-178 -97q-9 -6 -21.5 3t-16.5 21.5t4 20.5zM49 9q0 14 26 33t50 19h131v578h-138q-15 0 -15 9q0 14 26 33t50 19h161q13 0 13 -9v-630h161q15 0 15 -9q0 -14 -25.5 -33t-50.5 -19h-389q-15 0 -15 9z" />
<glyph unicode="&#x13b;" d="M258 -133q-2 16 27.5 36.5t56.5 27t34 -4.5q9 -52 -20 -102.5t-77 -79.5q-29 -17 -40 -7q-7 6 3 22q25 37 16 108zM136 10l13 643q1 17 32.5 36t53.5 19q15 0 15 -10l-14 -633h300q16 0 16 -10q0 -15 -27.5 -35t-53.5 -20h-320q-15 0 -15 10z" />
<glyph unicode="&#x13c;" d="M236 -133q-2 16 27.5 36.5t56.5 27t34 -4.5q9 -52 -20 -102.5t-77 -79.5q-29 -17 -40 -7q-7 6 3 22q25 37 16 108zM49 9q0 14 26 33t50 19h131v578h-138q-15 0 -15 9q0 14 26 33t50 19h161q13 0 13 -9v-630h161q15 0 15 -9q0 -14 -25.5 -33t-50.5 -19h-389q-15 0 -15 9z " />
<glyph unicode="&#x13d;" d="M341 571l4 166q0 17 39 17q41 -1 47 -17q1 -3 0 -6l-45 -163q-4 -14 -15 -18.5t-20.5 1.5t-9.5 20zM136 10l13 643q1 17 32.5 36t53.5 19q15 0 15 -10l-14 -633h300q16 0 16 -10q0 -15 -27.5 -35t-53.5 -20h-320q-15 0 -15 10z" />
<glyph unicode="&#x13e;" d="M438 555l4 166q0 17 39 17q41 -1 47 -17q1 -3 0 -6l-45 -163q-4 -14 -15 -18.5t-20.5 1.5t-9.5 20zM49 9q0 14 26 33t50 19h131v578h-138q-15 0 -15 9q0 14 26 33t50 19h161q13 0 13 -9v-630h161q15 0 15 -9q0 -14 -25.5 -33t-50.5 -19h-389q-15 0 -15 9z" />
<glyph unicode="&#x13f;" d="M487 314v84q0 19 42.5 43.5t70.5 24.5q18 0 18 -13v-84q0 -19 -42 -43.5t-70 -24.5q-19 0 -19 13zM136 10l13 643q1 17 32.5 36t53.5 19q15 0 15 -10l-14 -633h300q16 0 16 -10q0 -15 -27.5 -35t-53.5 -20h-320q-15 0 -15 10z" />
<glyph unicode="&#x140;" d="M49 9q0 14 26 33t50 19h131v578h-138q-15 0 -15 9q0 14 26 33t50 19h161q13 0 13 -9v-630h161q15 0 15 -9q0 -14 -25.5 -33t-50.5 -19h-389q-15 0 -15 9zM527 331v83q0 19 41 43t69 24q19 0 19 -13v-83q0 -19 -41 -43t-69 -24q-19 0 -19 13z" />
<glyph unicode="&#x141;" d="M136 10l5 254l-72 -38q-14 -8 -28.5 -8t-19.5 10q-3 11 10.5 23.5t27.5 19.5l83 44l7 338q1 17 32.5 36t53.5 19q15 0 15 -10l-8 -329l125 67q14 8 28.5 8t19.5 -10q3 -11 -10.5 -23.5t-27.5 -19.5l-136 -73l-5 -253h300q16 0 16 -10q0 -15 -27.5 -35t-53.5 -20h-320 q-15 0 -15 10z" />
<glyph unicode="&#x142;" d="M49 9q0 14 26 33t50 19h131v222l-104 -55q-14 -7 -27.5 -8t-19.5 10q-3 11 10.5 23.5t27.5 19.5l113 60v306h-138q-15 0 -15 9q0 14 26 33t50 19h161q13 0 13 -9v-306l98 53q42 19 47 -2q3 -11 -10.5 -23.5t-27.5 -19.5l-107 -58v-274h161q15 0 15 -9q0 -14 -25.5 -33 t-50.5 -19h-389q-15 0 -15 9z" />
<glyph unicode="&#x143;" d="M236 804l161 126q10 8 28 -8.5t25 -36.5t-2 -29l-178 -97q-9 -6 -21.5 3t-16.5 21.5t4 20.5zM95 3v649q0 16 30.5 36t51.5 20q11 0 12 -6l232 -556l-7 507q0 16 28.5 35.5t48.5 19.5q14 0 14 -11v-648q0 -17 -31 -37t-52 -20q-10 0 -12 6l-231 553l6 -503 q1 -16 -27.5 -36t-49.5 -20q-13 0 -13 11z" />
<glyph unicode="&#x144;" d="M248 583l106 164q10 9 29 3t35 -22.5t8 -25.5l-128 -151q-11 -14 -35 1.5t-15 30.5zM92 3v411q0 14 30.5 32t51.5 18q15 0 15 -11v-45q68 56 152 56q75 0 124.5 -51t49.5 -114v-258q0 -12 -32 -30.5t-52 -18.5q-13 0 -13 11v252q0 58 -43 104.5t-108 48.5q-42 -3 -60 -35 t-18 -67v-265q0 -12 -32 -30.5t-52 -18.5q-13 0 -13 11z" />
<glyph unicode="&#x145;" d="M240 -133q-2 16 27.5 36.5t56.5 27t34 -4.5q9 -52 -20 -102.5t-77 -79.5q-29 -17 -40 -7q-7 6 3 22q25 37 16 108zM95 3v649q0 16 30.5 36t51.5 20q11 0 12 -6l232 -556l-7 507q0 16 28.5 35.5t48.5 19.5q14 0 14 -11v-648q0 -17 -31 -37t-52 -20q-10 0 -12 6l-231 553 l6 -503q1 -16 -27.5 -36t-49.5 -20q-13 0 -13 11z" />
<glyph unicode="&#x146;" d="M236 -133q-2 16 27.5 36.5t56.5 27t34 -4.5q9 -52 -20 -102.5t-77 -79.5q-29 -17 -40 -7q-7 6 3 22q25 37 16 108zM92 3v411q0 14 30.5 32t51.5 18q15 0 15 -11v-45q68 56 152 56q75 0 124.5 -51t49.5 -114v-258q0 -12 -32 -30.5t-52 -18.5q-13 0 -13 11v252 q0 58 -43 104.5t-108 48.5q-42 -3 -60 -35t-18 -67v-265q0 -12 -32 -30.5t-52 -18.5q-13 0 -13 11z" />
<glyph unicode="&#x147;" d="M95 3v649q0 16 30.5 36t51.5 20q11 0 12 -6l232 -556l-7 507q0 16 28.5 35.5t48.5 19.5q14 0 14 -11v-648q0 -17 -31 -37t-52 -20q-10 0 -12 6l-231 553l6 -503q1 -16 -27.5 -36t-49.5 -20q-13 0 -13 11zM164 872q-11 7 22 30q41 28 57 17l95 -78l58 56q26 26 62 26 q22 0 2 -22l-105 -101q-12 -12 -37 -22.5t-36 -2.5z" />
<glyph unicode="&#x148;" d="M171 681q-5 7 11.5 21t36.5 22t26 0l77 -98l56 74q8 11 26 19.5t32 8.5q17 0 6 -16l-102 -130q-10 -13 -35 -25.5t-33 -2.5zM92 3v411q0 14 30.5 32t51.5 18q15 0 15 -11v-45q68 56 152 56q75 0 124.5 -51t49.5 -114v-258q0 -12 -32 -30.5t-52 -18.5q-13 0 -13 11v252 q0 58 -43 104.5t-108 48.5q-42 -3 -60 -35t-18 -67v-265q0 -12 -32 -30.5t-52 -18.5q-13 0 -13 11z" />
<glyph unicode="&#x14a;" d="M93 3v649q0 16 31 36t51 20q10 0 13 -6l227 -421l-1 367q0 16 29 38t49 22q11 0 11 -8v-771q0 -70 -49.5 -120t-125.5 -50q-46 0 -78 32t-34 72q-1 19 30.5 39.5t51.5 21.5q9 0 9 -7q4 -37 25.5 -63.5t55.5 -28.5q28 5 28 81l-1 250l-236 409l5 -517q0 -16 -28.5 -36 t-48.5 -20q-14 0 -14 11z" />
<glyph unicode="&#x14b;" d="M92 3v411q0 14 30.5 32t51.5 18q15 0 15 -11v-45q68 56 152 56q75 0 124.5 -51t49.5 -114v-398q0 -51 -52.5 -96.5t-116.5 -45.5q-39 0 -73.5 25t-34.5 68q0 14 31 30.5t52 16.5q14 0 15 -8q2 -29 21 -48.5t46 -22.5q6 2 10.5 18.5t4.5 32.5v384q0 58 -43 104.5 t-108 48.5q-42 -3 -60 -35t-18 -67v-265q0 -12 -32 -30.5t-52 -18.5q-13 0 -13 11z" />
<glyph unicode="&#x14c;" d="M96 170v326q0 86 69.5 149t169.5 63q76 0 122.5 -52.5t46.5 -125.5v-324q0 -88 -69.5 -151t-170.5 -63q-73 0 -120.5 52t-47.5 126zM196 215q0 -68 38 -111.5t99 -48.5q28 4 49 31.5t21 63.5v341q0 64 -39 107.5t-97 46.5q-29 -3 -50 -31t-21 -66v-333zM128 824 q0 15 28.5 35t55.5 20h265q17 0 17 -9q0 -16 -28.5 -36t-55.5 -20h-266q-16 0 -16 10z" />
<glyph unicode="&#x14d;" d="M143 603q0 15 28 34.5t55 19.5h237q16 0 16 -9q0 -15 -28 -35t-55 -20h-237q-16 0 -16 10zM89 156v94q0 84 75.5 149t170.5 65q75 0 125.5 -51t50.5 -114v-93q0 -84 -75.5 -149t-170.5 -65q-75 0 -125.5 51t-50.5 113zM186 202q0 -58 43 -105.5t107 -48.5q30 2 49 23.5 t24 42t5 41.5v98q0 58 -43 105.5t-107 49.5q-43 -4 -60.5 -38t-17.5 -70v-98z" />
<glyph unicode="&#x14e;" d="M96 170v326q0 86 69.5 149t169.5 63q76 0 122.5 -52.5t46.5 -125.5v-324q0 -88 -69.5 -151t-170.5 -63q-73 0 -120.5 52t-47.5 126zM196 215q0 -68 38 -111.5t99 -48.5q28 4 49 31.5t21 63.5v341q0 64 -39 107.5t-97 46.5q-29 -3 -50 -31t-21 -66v-333zM176 882 q0 12 25 27t42 15q12 0 12 -8q0 -33 20 -60.5t56 -30.5q25 4 25 59q0 12 26 27t43 15q10 0 10 -8q0 -55 -45 -96t-101 -41q-49 0 -81 30t-32 71z" />
<glyph unicode="&#x14f;" d="M89 156v94q0 84 75.5 149t170.5 65q75 0 125.5 -51t50.5 -114v-93q0 -84 -75.5 -149t-170.5 -65q-75 0 -125.5 51t-50.5 113zM186 202q0 -58 43 -105.5t107 -48.5q30 2 49 23.5t24 42t5 41.5v98q0 58 -43 105.5t-107 49.5q-43 -4 -60.5 -38t-17.5 -70v-98zM184 672 q0 11 25 24.5t42 14.5q12 0 12 -8q0 -35 20.5 -64t54.5 -32q28 4 28 66q0 11 25.5 25t42.5 14q11 0 11 -7q0 -55 -43.5 -99t-107.5 -44q-44 0 -77 31.5t-33 78.5z" />
<glyph unicode="&#x150;" d="M187 795l107 136q10 8 27.5 0.5t31 -24t4.5 -24.5l-129 -124q-12 -11 -31.5 5.5t-9.5 30.5zM318 795l129 132q9 9 27 -1.5t28.5 -28t1.5 -24.5l-151 -116q-14 -10 -31 7.5t-4 30.5zM96 170v326q0 86 69.5 149t169.5 63q76 0 122.5 -52.5t46.5 -125.5v-324 q0 -88 -69.5 -151t-170.5 -63q-73 0 -120.5 52t-47.5 126zM196 215q0 -68 38 -111.5t99 -48.5q28 4 49 31.5t21 63.5v341q0 64 -39 107.5t-97 46.5q-29 -3 -50 -31t-21 -66v-333z" />
<glyph unicode="&#x151;" d="M213 578l70 167q8 10 26.5 7t35.5 -16t11 -23l-95 -159q-9 -14 -32 -3t-16 27zM322 581l96 164q9 9 27.5 4t33.5 -20t7 -24l-120 -153q-10 -13 -31 1t-13 28zM89 156v94q0 84 75.5 149t170.5 65q75 0 125.5 -51t50.5 -114v-93q0 -84 -75.5 -149t-170.5 -65 q-75 0 -125.5 51t-50.5 113zM186 202q0 -58 43 -105.5t107 -48.5q30 2 49 23.5t24 42t5 41.5v98q0 58 -43 105.5t-107 49.5q-43 -4 -60.5 -38t-17.5 -70v-98z" />
<glyph unicode="&#x152;" d="M71 173v316q0 83 66 147t153 64h236q16 0 16 -9q0 -15 -27.5 -35t-53.5 -20h-88v-254h119q16 0 16 -9q0 -15 -27.5 -35t-53.5 -20h-54v-253h154q16 0 16 -10q0 -15 -27.5 -35t-53.5 -20h-235q-68 0 -112 50.5t-44 122.5zM161 221q0 -65 32.5 -108.5t91.5 -48.5v572h-54 q-30 -3 -50 -31t-20 -67v-317z" />
<glyph unicode="&#x153;" d="M87 89v236q0 56 50 97.5t110 41.5q48 0 71 -32q49 32 101 32q48 0 72.5 -29t24.5 -76v-107q0 -17 -33.5 -33.5t-54.5 -16.5h-87v-65q0 -38 17.5 -60.5t51.5 -23.5q26 0 62 19q27 17 40 9q22 -13 -19 -38q-85 -51 -141 -51q-46 0 -72 34q-50 -34 -101 -34q-38 0 -65 25 t-27 72zM170 368v-239q0 -38 18 -61t51 -24q19 3 19 42v233q0 40 -18.5 64t-52.5 25q-17 -10 -17 -40zM341 254h91v59q0 48 -17 72t-58 25q-16 -2 -16 -37v-119z" />
<glyph unicode="&#x154;" d="M110 3v641q0 18 29 37t54 19h143q80 0 122.5 -51t42.5 -108q0 -71 -55 -123t-129 -64l236 -300q2 -4 2 -7q1 -15 -25.5 -35t-46.5 -20q-9 0 -15 7l-257 346v-297q0 -16 -32 -36t-54 -20q-15 0 -15 11zM211 403h117q30 4 52 35t22 72q0 51 -36 89.5t-94 38.5h-61v-235z M224 804l161 126q10 8 28 -8.5t25 -36.5t-2 -29l-178 -97q-9 -6 -21.5 3t-16.5 21.5t4 20.5z" />
<glyph unicode="&#x155;" d="M266 583l106 164q10 9 29 3t35 -22.5t8 -25.5l-128 -151q-11 -14 -35 1.5t-15 30.5zM48 9q0 14 26 33t50 19h43v353q0 14 30.5 32t51.5 18q15 0 15 -11v-37q58 48 114 48q59 0 100 -38.5t41 -106.5q0 -12 -31.5 -30.5t-51.5 -18.5q-14 0 -14 11q0 49 -24.5 86.5 t-75.5 39.5q-24 -4 -41 -29.5t-17 -55.5v-261h236q15 0 15 -9q0 -14 -25.5 -33t-50.5 -19h-376q-15 0 -15 9z" />
<glyph unicode="&#x156;" d="M110 3v641q0 18 29 37t54 19h143q80 0 122.5 -51t42.5 -108q0 -71 -55 -123t-129 -64l236 -300q2 -4 2 -7q1 -15 -25.5 -35t-46.5 -20q-9 0 -15 7l-257 346v-297q0 -16 -32 -36t-54 -20q-15 0 -15 11zM211 403h117q30 4 52 35t22 72q0 51 -36 89.5t-94 38.5h-61v-235z M246 -133q-2 16 27.5 36.5t56.5 27t34 -4.5q9 -52 -20 -102.5t-77 -79.5q-29 -17 -40 -7q-7 6 3 22q25 37 16 108z" />
<glyph unicode="&#x157;" d="M202 -133q-2 16 27.5 36.5t56.5 27t34 -4.5q9 -52 -20 -102.5t-77 -79.5q-29 -17 -40 -7q-7 6 3 22q25 37 16 108zM48 9q0 14 26 33t50 19h43v353q0 14 30.5 32t51.5 18q15 0 15 -11v-37q58 48 114 48q59 0 100 -38.5t41 -106.5q0 -12 -31.5 -30.5t-51.5 -18.5 q-14 0 -14 11q0 49 -24.5 86.5t-75.5 39.5q-24 -4 -41 -29.5t-17 -55.5v-261h236q15 0 15 -9q0 -14 -25.5 -33t-50.5 -19h-376q-15 0 -15 9z" />
<glyph unicode="&#x158;" d="M110 3v641q0 18 29 37t54 19h143q80 0 122.5 -51t42.5 -108q0 -71 -55 -123t-129 -64l236 -300q2 -4 2 -7q1 -15 -25.5 -35t-46.5 -20q-9 0 -15 7l-257 346v-297q0 -16 -32 -36t-54 -20q-15 0 -15 11zM211 403h117q30 4 52 35t22 72q0 51 -36 89.5t-94 38.5h-61v-235z M152 872q-11 7 22 30q41 28 57 17l95 -78l58 56q26 26 62 26q22 0 2 -22l-105 -101q-12 -12 -37 -22.5t-36 -2.5z" />
<glyph unicode="&#x159;" d="M199 681q-5 7 11.5 21t36.5 22t26 0l77 -98l56 74q8 11 26 19.5t32 8.5q17 0 6 -16l-102 -130q-10 -13 -35 -25.5t-33 -2.5zM48 9q0 14 26 33t50 19h43v353q0 14 30.5 32t51.5 18q15 0 15 -11v-37q58 48 114 48q59 0 100 -38.5t41 -106.5q0 -12 -31.5 -30.5t-51.5 -18.5 q-14 0 -14 11q0 49 -24.5 86.5t-75.5 39.5q-24 -4 -41 -29.5t-17 -55.5v-261h236q15 0 15 -9q0 -14 -25.5 -33t-50.5 -19h-376q-15 0 -15 9z" />
<glyph unicode="&#x15a;" d="M271 -8q-66 0 -114.5 32t-69.5 74t-24 86q-1 17 31 39.5t53 22.5q12 0 12 -11q0 -66 48 -122.5t121 -57.5q40 2 67 35.5t27 73.5q0 45 -18 74t-72 60l-134 75q-96 54 -96 154q0 73 61.5 128t157.5 53q67 -1 112.5 -52t45.5 -109q0 -17 -31 -38t-51 -21q-12 0 -12 10 q-1 55 -37.5 100t-90.5 47q-27 -3 -43 -30.5t-16 -57.5q0 -69 78 -113l138 -79q108 -60 108 -159q0 -97 -72 -155.5t-179 -58.5zM224 804l161 126q10 8 28 -8.5t25 -36.5t-2 -29l-178 -97q-9 -6 -21.5 3t-16.5 21.5t4 20.5z" />
<glyph unicode="&#x15b;" d="M243 583l106 164q10 9 29 3t35 -22.5t8 -25.5l-128 -151q-11 -14 -35 1.5t-15 30.5zM280 -8q-84 0 -130 34.5t-59 80.5q-5 17 23.5 38t50.5 21q13 0 14 -9q12 -41 59 -75t102 -34q74 10 74 65q0 44 -74 67l-137 43q-39 12 -62.5 38.5t-23.5 60.5q0 54 65.5 98t150.5 44 q61 0 100.5 -25t51.5 -66q3 -16 -27 -35.5t-51 -19.5q-11 0 -12 7q-10 35 -49 59.5t-81 23.5q-58 -5 -58 -55q0 -43 75 -66l137 -42q94 -28 94 -100q0 -66 -71.5 -109.5t-161.5 -43.5z" />
<glyph unicode="&#x15c;" d="M271 -8q-66 0 -114.5 32t-69.5 74t-24 86q-1 17 31 39.5t53 22.5q12 0 12 -11q0 -66 48 -122.5t121 -57.5q40 2 67 35.5t27 73.5q0 45 -18 74t-72 60l-134 75q-96 54 -96 154q0 73 61.5 128t157.5 53q67 -1 112.5 -52t45.5 -109q0 -17 -31 -38t-51 -21q-12 0 -12 10 q-1 55 -37.5 100t-90.5 47q-27 -3 -43 -30.5t-16 -57.5q0 -69 78 -113l138 -79q108 -60 108 -159q0 -97 -72 -155.5t-179 -58.5zM160 808l107 103q12 11 37 22t36 3l118 -97q7 -5 -9 -20t-39 -25t-32 -3l-95 78l-59 -57q-26 -26 -62 -26q-22 0 -2 22z" />
<glyph unicode="&#x15d;" d="M183 567l102 130q11 13 35.5 25.5t32.5 2.5l101 -127q5 -7 -11 -20.5t-36.5 -22t-26.5 -0.5l-77 98l-56 -73q-8 -11 -25.5 -20t-32.5 -9q-17 0 -6 16zM280 -8q-84 0 -130 34.5t-59 80.5q-5 17 23.5 38t50.5 21q13 0 14 -9q12 -41 59 -75t102 -34q74 10 74 65q0 44 -74 67 l-137 43q-39 12 -62.5 38.5t-23.5 60.5q0 54 65.5 98t150.5 44q61 0 100.5 -25t51.5 -66q3 -16 -27 -35.5t-51 -19.5q-11 0 -12 7q-10 35 -49 59.5t-81 23.5q-58 -5 -58 -55q0 -43 75 -66l137 -42q94 -28 94 -100q0 -66 -71.5 -109.5t-161.5 -43.5z" />
<glyph unicode="&#x15e;" d="M271 -8q-66 0 -114.5 32t-69.5 74t-24 86q-1 17 31 39.5t53 22.5q12 0 12 -11q0 -66 48 -122.5t121 -57.5q40 2 67 35.5t27 73.5q0 45 -18 74t-72 60l-134 75q-96 54 -96 154q0 73 61.5 128t157.5 53q67 -1 112.5 -52t45.5 -109q0 -17 -31 -38t-51 -21q-12 0 -12 10 q-1 55 -37.5 100t-90.5 47q-27 -3 -43 -30.5t-16 -57.5q0 -69 78 -113l138 -79q108 -60 108 -159q0 -97 -72 -155.5t-179 -58.5zM187 -246q0 10 23 14q42 7 72 28t30 50q0 22 -13 34t-34 12q-7 0 -20 -3.5t-20 -3.5q-9 0 -9 6.5t7 13.5q36 39 99 39q32 0 52.5 -16t20.5 -48 q0 -55 -61.5 -95.5t-127.5 -42.5q-19 -2 -19 12z" />
<glyph unicode="&#x15f;" d="M280 -8q-84 0 -130 34.5t-59 80.5q-5 17 23.5 38t50.5 21q13 0 14 -9q12 -41 59 -75t102 -34q74 10 74 65q0 44 -74 67l-137 43q-39 12 -62.5 38.5t-23.5 60.5q0 54 65.5 98t150.5 44q61 0 100.5 -25t51.5 -66q3 -16 -27 -35.5t-51 -19.5q-11 0 -12 7q-10 35 -49 59.5 t-81 23.5q-58 -5 -58 -55q0 -43 75 -66l137 -42q94 -28 94 -100q0 -66 -71.5 -109.5t-161.5 -43.5zM190 -246q0 10 23 14q42 7 72 28t30 50q0 22 -13 34t-34 12q-7 0 -20 -3.5t-20 -3.5q-9 0 -9 6.5t7 13.5q36 39 99 39q32 0 52.5 -16t20.5 -48q0 -55 -61.5 -95.5 t-127.5 -42.5q-19 -2 -19 12z" />
<glyph unicode="&#x160;" d="M271 -8q-66 0 -114.5 32t-69.5 74t-24 86q-1 17 31 39.5t53 22.5q12 0 12 -11q0 -66 48 -122.5t121 -57.5q40 2 67 35.5t27 73.5q0 45 -18 74t-72 60l-134 75q-96 54 -96 154q0 73 61.5 128t157.5 53q67 -1 112.5 -52t45.5 -109q0 -17 -31 -38t-51 -21q-12 0 -12 10 q-1 55 -37.5 100t-90.5 47q-27 -3 -43 -30.5t-16 -57.5q0 -69 78 -113l138 -79q108 -60 108 -159q0 -97 -72 -155.5t-179 -58.5zM159 872q-11 7 22 30q41 28 57 17l95 -78l58 56q26 26 62 26q22 0 2 -22l-105 -101q-12 -12 -37 -22.5t-36 -2.5z" />
<glyph unicode="&#x161;" d="M182 681q-5 7 11.5 21t36.5 22t26 0l77 -98l56 74q8 11 26 19.5t32 8.5q17 0 6 -16l-102 -130q-10 -13 -35 -25.5t-33 -2.5zM280 -8q-84 0 -130 34.5t-59 80.5q-5 17 23.5 38t50.5 21q13 0 14 -9q12 -41 59 -75t102 -34q74 10 74 65q0 44 -74 67l-137 43 q-39 12 -62.5 38.5t-23.5 60.5q0 54 65.5 98t150.5 44q61 0 100.5 -25t51.5 -66q3 -16 -27 -35.5t-51 -19.5q-11 0 -12 7q-10 35 -49 59.5t-81 23.5q-58 -5 -58 -55q0 -43 75 -66l137 -42q94 -28 94 -100q0 -66 -71.5 -109.5t-161.5 -43.5z" />
<glyph unicode="&#x162;" d="M250 3v633h-199q-16 0 -16 9q0 15 28 35t54 20h438q17 0 17 -9q0 -15 -28 -35t-54 -20h-139v-589q0 -16 -31.5 -35.5t-54.5 -19.5q-15 0 -15 11zM199 -246q0 10 23 14q42 7 72 28t30 50q0 22 -13 34t-34 12q-7 0 -20 -3.5t-20 -3.5q-9 0 -9 6.5t7 13.5q36 39 99 39 q32 0 52.5 -16t20.5 -48q0 -55 -61.5 -95.5t-127.5 -42.5q-19 -2 -19 12z" />
<glyph unicode="&#x163;" d="M148 140v473q0 14 31 32t52 18q14 0 14 -11v-196h242q15 0 15 -9q0 -13 -25 -32.5t-48 -19.5h-184v-214q0 -50 33.5 -90t88.5 -43q28 2 45.5 31.5t17.5 61.5q0 12 35.5 31t58.5 19q14 0 14 -11q0 -74 -71 -131t-155 -57q-67 0 -115.5 43t-48.5 105zM223 -246q0 10 23 14 q42 7 72 28t30 50q0 22 -13 34t-34 12q-7 0 -20 -3.5t-20 -3.5q-9 0 -9 6.5t7 13.5q36 39 99 39q32 0 52.5 -16t20.5 -48q0 -55 -61.5 -95.5t-127.5 -42.5q-19 -2 -19 12z" />
<glyph unicode="&#x164;" d="M250 3v633h-199q-16 0 -16 9q0 15 28 35t54 20h438q17 0 17 -9q0 -15 -28 -35t-54 -20h-139v-589q0 -16 -31.5 -35.5t-54.5 -19.5q-15 0 -15 11zM160 872q-11 7 22 30q41 28 57 17l95 -78l58 56q26 26 62 26q22 0 2 -22l-105 -101q-12 -12 -37 -22.5t-36 -2.5z" />
<glyph unicode="&#x165;" d="M351 571l4 166q0 17 39 17q41 -1 47 -17q1 -3 0 -6l-45 -163q-4 -14 -15 -18.5t-20.5 1.5t-9.5 20zM148 140v473q0 14 31 32t52 18q14 0 14 -11v-196h242q15 0 15 -9q0 -13 -25 -32.5t-48 -19.5h-184v-214q0 -50 33.5 -90t88.5 -43q28 2 45.5 31.5t17.5 61.5 q0 12 35.5 31t58.5 19q14 0 14 -11q0 -74 -71 -131t-155 -57q-67 0 -115.5 43t-48.5 105z" />
<glyph unicode="&#x166;" d="M250 3v342h-145q-16 0 -16 9q0 15 27.5 34.5t53.5 19.5h80v228h-199q-16 0 -16 9q0 15 28 35t54 20h438q17 0 17 -9q0 -15 -28 -35t-54 -20h-139v-228h143q16 0 16 -10q0 -14 -28 -33.5t-54 -19.5h-77v-298q0 -16 -31.5 -35.5t-54.5 -19.5q-15 0 -15 11z" />
<glyph unicode="&#x167;" d="M148 140v104h-85q-16 0 -16 8q0 14 27 33.5t53 19.5h21v308q0 14 31 32t52 18q14 0 14 -11v-196h242q15 0 15 -9q0 -13 -25 -32.5t-48 -19.5h-184v-90h136q16 0 16 -9q0 -14 -27 -33t-53 -19h-72v-63q0 -50 33.5 -90t88.5 -43q28 2 45.5 31.5t17.5 61.5q0 12 35.5 31 t58.5 19q14 0 14 -11q0 -74 -71 -131t-155 -57q-67 0 -115.5 43t-48.5 105z" />
<glyph unicode="&#x168;" d="M264 -8q-73 0 -120.5 52t-47.5 126v483q0 16 31.5 35.5t54.5 19.5q14 0 14 -11v-482q0 -68 38 -111.5t99 -48.5q28 4 49 31.5t21 63.5v503q0 16 31.5 35.5t54.5 19.5q15 0 15 -11v-491q0 -88 -69.5 -151t-170.5 -63zM144 810q7 31 43 65t76 34q29 0 77 -30.5t56 -33.5 q54 52 68 52t10 -12q-8 -31 -42 -65.5t-78 -34.5q-27 0 -75 30.5t-56 33.5q-53 -51 -69 -51q-14 0 -10 12z" />
<glyph unicode="&#x169;" d="M83 163l5 252q0 12 32 30.5t52 18.5q13 0 13 -11l-5 -246q-2 -60 33.5 -108.5t102.5 -48.5q39 0 93 27v337q0 12 31.5 31t51.5 19q14 0 14 -11v-412q0 -13 -31 -31t-52 -18q-14 0 -14 11v37q-87 -48 -162 -48q-82 0 -123.5 52t-40.5 119zM150 586q7 30 42 64t74 34 q24 0 68 -29t55 -34q53 51 67 51q13 0 9 -11q-7 -30 -40 -64.5t-76 -34.5q-23 0 -67.5 30t-54.5 34q-52 -52 -67 -52q-13 0 -10 12z" />
<glyph unicode="&#x16a;" d="M264 -8q-73 0 -120.5 52t-47.5 126v483q0 16 31.5 35.5t54.5 19.5q14 0 14 -11v-482q0 -68 38 -111.5t99 -48.5q28 4 49 31.5t21 63.5v503q0 16 31.5 35.5t54.5 19.5q15 0 15 -11v-491q0 -88 -69.5 -151t-170.5 -63zM130 824q0 15 28.5 35t55.5 20h265q17 0 17 -9 q0 -16 -28.5 -36t-55.5 -20h-266q-16 0 -16 10z" />
<glyph unicode="&#x16b;" d="M83 163l5 252q0 12 32 30.5t52 18.5q13 0 13 -11l-5 -246q-2 -60 33.5 -108.5t102.5 -48.5q39 0 93 27v337q0 12 31.5 31t51.5 19q14 0 14 -11v-412q0 -13 -31 -31t-52 -18q-14 0 -14 11v37q-87 -48 -162 -48q-82 0 -123.5 52t-40.5 119zM144 603q0 15 28 34.5t55 19.5 h237q16 0 16 -9q0 -15 -28 -35t-55 -20h-237q-16 0 -16 10z" />
<glyph unicode="&#x16c;" d="M264 -8q-73 0 -120.5 52t-47.5 126v483q0 16 31.5 35.5t54.5 19.5q14 0 14 -11v-482q0 -68 38 -111.5t99 -48.5q28 4 49 31.5t21 63.5v503q0 16 31.5 35.5t54.5 19.5q15 0 15 -11v-491q0 -88 -69.5 -151t-170.5 -63zM185 882q0 12 25 27t42 15q12 0 12 -8q0 -33 20 -60.5 t56 -30.5q25 4 25 59q0 12 26 27t43 15q10 0 10 -8q0 -55 -45 -96t-101 -41q-49 0 -81 30t-32 71z" />
<glyph unicode="&#x16d;" d="M83 163l5 252q0 12 32 30.5t52 18.5q13 0 13 -11l-5 -246q-2 -60 33.5 -108.5t102.5 -48.5q39 0 93 27v337q0 12 31.5 31t51.5 19q14 0 14 -11v-412q0 -13 -31 -31t-52 -18q-14 0 -14 11v37q-87 -48 -162 -48q-82 0 -123.5 52t-40.5 119zM188 672q0 11 25 24.5t42 14.5 q12 0 12 -8q0 -35 20.5 -64t54.5 -32q28 4 28 66q0 11 25.5 25t42.5 14q11 0 11 -7q0 -55 -43.5 -99t-107.5 -44q-44 0 -77 31.5t-33 78.5z" />
<glyph unicode="&#x16e;" d="M193 850q0 49 41 84t88 35q40 0 67.5 -25.5t27.5 -67.5q0 -43 -38.5 -81.5t-84.5 -38.5q-44 0 -72.5 26t-28.5 68zM257 872q3 -31 24 -51t45 -20q29 6 25 56q-3 30 -22.5 48t-45.5 20q-15 -3 -21.5 -20t-4.5 -33zM264 -8q-73 0 -120.5 52t-47.5 126v483q0 16 31.5 35.5 t54.5 19.5q14 0 14 -11v-482q0 -68 38 -111.5t99 -48.5q28 4 49 31.5t21 63.5v503q0 16 31.5 35.5t54.5 19.5q15 0 15 -11v-491q0 -88 -69.5 -151t-170.5 -63z" />
<glyph unicode="&#x16f;" d="M192 621q0 51 42.5 87.5t90.5 36.5q40 0 69 -26.5t29 -69.5q0 -45 -39.5 -84.5t-87.5 -39.5q-45 0 -74.5 27t-29.5 69zM257 645q3 -32 25 -53t48 -22q15 3 21.5 21t4.5 39q-3 30 -24 49.5t-48 21.5q-30 -8 -27 -56zM83 163l5 252q0 12 32 30.5t52 18.5q13 0 13 -11 l-5 -246q-2 -60 33.5 -108.5t102.5 -48.5q39 0 93 27v337q0 12 31.5 31t51.5 19q14 0 14 -11v-412q0 -13 -31 -31t-52 -18q-14 0 -14 11v37q-87 -48 -162 -48q-82 0 -123.5 52t-40.5 119z" />
<glyph unicode="&#x170;" d="M194 795l107 136q10 8 27.5 0.5t31 -24t4.5 -24.5l-129 -124q-12 -11 -31.5 5.5t-9.5 30.5zM325 795l129 132q9 9 27 -1.5t28.5 -28t1.5 -24.5l-151 -116q-14 -10 -31 7.5t-4 30.5zM264 -8q-73 0 -120.5 52t-47.5 126v483q0 16 31.5 35.5t54.5 19.5q14 0 14 -11v-482 q0 -68 38 -111.5t99 -48.5q28 4 49 31.5t21 63.5v503q0 16 31.5 35.5t54.5 19.5q15 0 15 -11v-491q0 -88 -69.5 -151t-170.5 -63z" />
<glyph unicode="&#x171;" d="M83 163l5 252q0 12 32 30.5t52 18.5q13 0 13 -11l-5 -246q-2 -60 33.5 -108.5t102.5 -48.5q39 0 93 27v337q0 12 31.5 31t51.5 19q14 0 14 -11v-412q0 -13 -31 -31t-52 -18q-14 0 -14 11v37q-87 -48 -162 -48q-82 0 -123.5 52t-40.5 119zM221 578l70 167q8 10 26.5 7 t35.5 -16t11 -23l-95 -159q-9 -14 -32 -3t-16 27zM330 581l96 164q9 9 27.5 4t33.5 -20t7 -24l-120 -153q-10 -13 -31 1t-13 28z" />
<glyph unicode="&#x172;" d="M264 -8q-73 0 -120.5 52t-47.5 126v483q0 16 31.5 35.5t54.5 19.5q14 0 14 -11v-482q0 -68 38 -111.5t99 -48.5q28 4 49 31.5t21 63.5v503q0 16 31.5 35.5t54.5 19.5q15 0 15 -11v-491q0 -61 -35 -112t-94 -78l-1 -1q-113 -80 -113 -141q0 -23 14 -40.5t42 -17.5 q20 0 40 13q32 21 39 13q10 -13 -19 -37q-52 -46 -112 -46q-33 0 -57 22.5t-24 60.5q0 72 114 152q-22 -2 -34 -2z" />
<glyph unicode="&#x173;" d="M83 163l5 252q0 12 32 30.5t52 18.5q13 0 13 -11l-5 -246q-2 -60 33.5 -108.5t102.5 -48.5q39 0 93 27v337q0 12 31.5 31t51.5 19q14 0 14 -11v-412q0 -15 -35 -33q-103 -75 -103 -134q0 -23 14 -40.5t42 -17.5q20 0 40 13q32 21 39 13q10 -13 -19 -37q-52 -46 -112 -46 q-33 0 -57 22.5t-24 60.5q0 76 119 156q-1 2 -1 5v37q-87 -48 -162 -48q-82 0 -123.5 52t-40.5 119z" />
<glyph unicode="&#x174;" d="M157 808l107 103q12 11 37 22t36 3l118 -97q7 -5 -9 -20t-39 -25t-32 -3l-95 78l-59 -57q-26 -26 -62 -26q-22 0 -2 22zM93 2l-7 651q0 16 29 35.5t50 19.5q12 0 12 -11l1 -537l86 235q5 15 21.5 26.5t30.5 11.5q10 0 14.5 -4.5t9.5 -18.5l84 -241v484q0 16 27.5 35.5 t47.5 19.5q13 0 13 -11l-9 -650q0 -16 -29.5 -35.5t-48.5 -19.5q-9 0 -13 9l-119 323l-107 -280q-8 -22 -32 -37t-50 -15q-11 0 -11 10z" />
<glyph unicode="&#x175;" d="M172 567l102 130q11 13 35.5 25.5t32.5 2.5l101 -127q5 -7 -11 -20.5t-36.5 -22t-26.5 -0.5l-77 98l-56 -73q-8 -11 -25.5 -20t-32.5 -9q-17 0 -6 16zM119 -8q-21 0 -21 31l-6 394q-1 12 28.5 29.5t49.5 17.5q14 0 14 -11v-357l73 172q8 17 28.5 33t33.5 18q12 2 18 -11 l88 -194l-1 303q0 12 29 29.5t48 17.5q14 0 14 -11l-11 -403q-1 -21 -31 -39.5t-52 -18.5q-15 0 -26 21l-106 223l-83 -191q-8 -18 -36 -35.5t-51 -17.5z" />
<glyph unicode="&#x176;" d="M112 9q0 15 28 35.5t54 20.5h58v266l-190 315q-9 15 20.5 38.5t52.5 23.5q10 0 14 -6l165 -288l144 248q11 20 34 33t42 13q22 0 12 -17l-193 -331v-295h107q16 0 16 -10q0 -15 -27.5 -35t-53.5 -20h-267q-16 0 -16 9zM172 808l107 103q12 11 37 22t36 3l118 -97 q7 -5 -9 -20t-39 -25t-32 -3l-95 78l-59 -57q-26 -26 -62 -26q-22 0 -2 22z" />
<glyph unicode="&#x177;" d="M82 163l4 252q0 12 32.5 30.5t52.5 18.5q13 0 13 -11l-5 -246q-2 -60 33.5 -108.5t102.5 -48.5q30 0 92 26v338q0 12 32 31t52 19q14 0 14 -11v-482q0 -89 -75.5 -150.5t-166.5 -61.5q-81 0 -185 60q-9 6 9.5 25t45 33.5t35.5 8.5q121 -71 168 -71q71 11 71 120v104 q-87 -47 -161 -47q-83 0 -124 52t-40 119zM170 567l102 130q11 13 35.5 25.5t32.5 2.5l101 -127q5 -7 -11 -20.5t-36.5 -22t-26.5 -0.5l-77 98l-56 -73q-8 -11 -25.5 -20t-32.5 -9q-17 0 -6 16z" />
<glyph unicode="&#x178;" d="M112 9q0 15 28 35.5t54 20.5h58v266l-190 315q-9 15 20.5 38.5t52.5 23.5q10 0 14 -6l165 -288l144 248q11 20 34 33t42 13q22 0 12 -17l-193 -331v-295h107q16 0 16 -10q0 -15 -27.5 -35t-53.5 -20h-267q-16 0 -16 9zM185 785v81q0 16 31.5 35t53.5 19q17 0 17 -10v-82 q0 -16 -32 -34.5t-54 -19.5q-16 0 -16 11zM357 787v82q0 16 31.5 34.5t54.5 19.5q16 0 16 -11v-82q0 -15 -32 -34t-55 -20q-15 0 -15 11z" />
<glyph unicode="&#x179;" d="M59 21l330 615h-293q-16 0 -16 9q0 15 27.5 35t53.5 20h355q21 0 13 -18l-333 -617h340q16 0 16 -10q0 -15 -27.5 -35t-53.5 -20h-401q-9 0 -12.5 5.5t1.5 15.5zM239 804l161 126q10 8 28 -8.5t25 -36.5t-2 -29l-178 -97q-9 -6 -21.5 3t-16.5 21.5t4 20.5z" />
<glyph unicode="&#x17a;" d="M238 583l106 164q10 9 29 3t35 -22.5t8 -25.5l-128 -151q-11 -14 -35 1.5t-15 30.5zM75 404q0 14 26 33t50 19h351q10 0 12.5 -7t-3.5 -15l-283 -373h282q15 0 15 -9q0 -14 -25.5 -33t-50.5 -19h-365q-10 0 -10.5 8t5.5 16l282 371h-271q-15 0 -15 9z" />
<glyph unicode="&#x17b;" d="M253 778v84q0 19 42.5 43.5t70.5 24.5q18 0 18 -13v-84q0 -19 -42 -43.5t-70 -24.5q-19 0 -19 13zM59 21l330 615h-293q-16 0 -16 9q0 15 27.5 35t53.5 20h355q21 0 13 -18l-333 -617h340q16 0 16 -10q0 -15 -27.5 -35t-53.5 -20h-401q-9 0 -12.5 5.5t1.5 15.5z" />
<glyph unicode="&#x17c;" d="M75 404q0 14 26 33t50 19h351q10 0 12.5 -7t-3.5 -15l-283 -373h282q15 0 15 -9q0 -14 -25.5 -33t-50.5 -19h-365q-10 0 -10.5 8t5.5 16l282 371h-271q-15 0 -15 9zM243 562v83q0 19 41 43t69 24q19 0 19 -13v-83q0 -19 -41 -43t-69 -24q-19 0 -19 13z" />
<glyph unicode="&#x17d;" d="M59 21l330 615h-293q-16 0 -16 9q0 15 27.5 35t53.5 20h355q21 0 13 -18l-333 -617h340q16 0 16 -10q0 -15 -27.5 -35t-53.5 -20h-401q-9 0 -12.5 5.5t1.5 15.5zM172 869q-11 7 22 30q41 28 57 17l95 -78l58 56q26 26 62 26q22 0 2 -22l-105 -101q-12 -12 -37 -22.5 t-36 -2.5z" />
<glyph unicode="&#x17e;" d="M176 681q-5 7 11.5 21t36.5 22t26 0l77 -98l56 74q8 11 26 19.5t32 8.5q17 0 6 -16l-102 -130q-10 -13 -35 -25.5t-33 -2.5zM75 404q0 14 26 33t50 19h351q10 0 12.5 -7t-3.5 -15l-283 -373h282q15 0 15 -9q0 -14 -25.5 -33t-50.5 -19h-365q-10 0 -10.5 8t5.5 16l282 371 h-271q-15 0 -15 9z" />
<glyph unicode="&#x17f;" d="M111 296q0 14 24.5 33.5t47.5 19.5h16v178q0 73 63 127t144 54q61 0 101 -42.5t41 -90.5v-6q0 -12 -32 -30t-52 -18q-14 0 -14 10q0 48 -30 83.5t-73 36.5q-15 -1 -25 -8.5t-15 -15.5t-7 -24.5t-2.5 -25t-0.5 -28.5v-488h121q15 0 15 -9q0 -14 -25.5 -33t-50.5 -19h-256 q-15 0 -15 9q0 14 24.5 32.5t49.5 19.5h39v227h-74q-14 0 -14 8z" />
<glyph unicode="&#x192;" d="M173 381h73v146q0 73 63.5 127t144.5 54q62 0 102 -43.5t40 -95.5q0 -12 -32.5 -30t-52.5 -18q-14 0 -14 10q0 48 -29.5 83.5t-71.5 36.5q-49 -5 -49 -81v-189h121q15 0 15 -10q0 -13 -25 -32.5t-49 -19.5h-62v-379q0 -73 -63.5 -127t-144.5 -54q-62 0 -102 43.5 t-40 95.5q0 12 32.5 30t52.5 18q14 0 14 -10q0 -48 29.5 -83.5t71.5 -36.5q49 5 49 81v422h-134q-14 0 -14 9q0 14 25 33.5t50 19.5z" />
<glyph unicode="&#x218;" d="M250 -133q-2 16 27.5 36.5t56.5 27t34 -4.5q9 -52 -20 -102.5t-77 -79.5q-29 -17 -40 -7q-7 6 3 22q25 37 16 108zM271 -8q-66 0 -114.5 32t-69.5 74t-24 86q-1 17 31 39.5t53 22.5q12 0 12 -11q0 -66 48 -122.5t121 -57.5q40 2 67 35.5t27 73.5q0 45 -18 74t-72 60 l-134 75q-96 54 -96 154q0 73 61.5 128t157.5 53q67 -1 112.5 -52t45.5 -109q0 -17 -31 -38t-51 -21q-12 0 -12 10q-1 55 -37.5 100t-90.5 47q-27 -3 -43 -30.5t-16 -57.5q0 -69 78 -113l138 -79q108 -60 108 -159q0 -97 -72 -155.5t-179 -58.5z" />
<glyph unicode="&#x219;" d="M258 -133q-2 16 27.5 36.5t56.5 27t34 -4.5q9 -52 -20 -102.5t-77 -79.5q-29 -17 -40 -7q-7 6 3 22q25 37 16 108zM280 -8q-84 0 -130 34.5t-59 80.5q-5 17 23.5 38t50.5 21q13 0 14 -9q12 -41 59 -75t102 -34q74 10 74 65q0 44 -74 67l-137 43q-39 12 -62.5 38.5 t-23.5 60.5q0 54 65.5 98t150.5 44q61 0 100.5 -25t51.5 -66q3 -16 -27 -35.5t-51 -19.5q-11 0 -12 7q-10 35 -49 59.5t-81 23.5q-58 -5 -58 -55q0 -43 75 -66l137 -42q94 -28 94 -100q0 -66 -71.5 -109.5t-161.5 -43.5z" />
<glyph unicode="&#x21a;" d="M247 -133q-2 16 27.5 36.5t56.5 27t34 -4.5q9 -52 -20 -102.5t-77 -79.5q-29 -17 -40 -7q-7 6 3 22q25 37 16 108zM250 3v633h-199q-16 0 -16 9q0 15 28 35t54 20h438q17 0 17 -9q0 -15 -28 -35t-54 -20h-139v-589q0 -16 -31.5 -35.5t-54.5 -19.5q-15 0 -15 11z" />
<glyph unicode="&#x21b;" d="M275 -133q-2 16 27.5 36.5t56.5 27t34 -4.5q9 -52 -20 -102.5t-77 -79.5q-29 -17 -40 -7q-7 6 3 22q25 37 16 108zM148 140v473q0 14 31 32t52 18q14 0 14 -11v-196h242q15 0 15 -9q0 -13 -25 -32.5t-48 -19.5h-184v-214q0 -50 33.5 -90t88.5 -43q28 2 45.5 31.5 t17.5 61.5q0 12 35.5 31t58.5 19q14 0 14 -11q0 -74 -71 -131t-155 -57q-67 0 -115.5 43t-48.5 105z" />
<glyph unicode="&#x2c6;" d="M163 567l102 130q11 13 35.5 25.5t32.5 2.5l101 -127q5 -7 -11 -20.5t-36.5 -22t-26.5 -0.5l-77 98l-56 -73q-8 -11 -25.5 -20t-32.5 -9q-17 0 -6 16z" />
<glyph unicode="&#x2c7;" d="M167 681q-5 7 11.5 21t36.5 22t26 0l77 -98l56 74q8 11 26 19.5t32 8.5q17 0 6 -16l-102 -130q-10 -13 -35 -25.5t-33 -2.5z" />
<glyph unicode="&#x2d8;" d="M170 672q0 11 25 24.5t42 14.5q12 0 12 -8q0 -35 20.5 -64t54.5 -32q28 4 28 66q0 11 25.5 25t42.5 14q11 0 11 -7q0 -55 -43.5 -99t-107.5 -44q-44 0 -77 31.5t-33 78.5z" />
<glyph unicode="&#x2d9;" d="M236 562v83q0 19 41 43t69 24q19 0 19 -13v-83q0 -19 -41 -43t-69 -24q-19 0 -19 13z" />
<glyph unicode="&#x2da;" d="M185 621q0 51 42.5 87.5t90.5 36.5q40 0 69 -26.5t29 -69.5q0 -45 -39.5 -84.5t-87.5 -39.5q-45 0 -74.5 27t-29.5 69zM250 645q3 -32 25 -53t48 -22q15 3 21.5 21t4.5 39q-3 30 -24 49.5t-48 21.5q-30 -8 -27 -56z" />
<glyph unicode="&#x2db;" d="M191 -158q0 87 168 187q18 9 27 0q5 -6 -5 -14q-113 -80 -113 -141q0 -23 14 -40.5t42 -17.5q20 0 40 13q32 21 39 13q10 -13 -19 -37q-52 -46 -112 -46q-33 0 -57 22.5t-24 60.5z" />
<glyph unicode="&#x2dc;" d="M144 586q7 30 42 64t74 34q24 0 68 -29t55 -34q53 51 67 51q13 0 9 -11q-7 -30 -40 -64.5t-76 -34.5q-23 0 -67.5 30t-54.5 34q-52 -52 -67 -52q-13 0 -10 12z" />
<glyph unicode="&#x2dd;" d="M183 578l70 167q8 10 26.5 7t35.5 -16t11 -23l-95 -159q-9 -14 -32 -3t-16 27zM292 581l96 164q9 9 27.5 4t33.5 -20t7 -24l-120 -153q-10 -13 -31 1t-13 28z" />
<glyph unicode="&#x3a9;" d="M11 9q0 11 21 27t45 20l62 1q-17 12 -30.5 39t-13.5 52v348q0 86 69.5 149t170.5 63q76 0 122.5 -52.5t46.5 -125.5v-315q0 -91 -65 -150h129q16 0 16 -10q0 -15 -28 -35t-54 -20h-161q-13 0 -13.5 10t8.5 17q38 34 52.5 55t14.5 51v358q0 64 -39.5 107.5t-97.5 46.5 q-28 -3 -49 -31t-21 -66v-346q0 -97 61 -137q22 -15 -27 -45q-34 -20 -50 -20h-153q-16 0 -16 9z" />
<glyph unicode="&#x3c0;" d="M133 -8q-13 0 -13 11v392h-85q-15 0 -15 9q0 14 26 33t51 19h474q15 0 15 -9q0 -13 -22 -30.5t-45 -20.5h-39v-355q0 -12 -32 -30.5t-52 -18.5q-13 0 -13 11v392h-166v-354q0 -12 -32 -30.5t-52 -18.5z" />
<glyph unicode="&#x1e80;" d="M170 856q-9 8 -2.5 28t24.5 36.5t28 8.5l161 -125q14 -11 -2.5 -32.5t-31.5 -13.5zM93 2l-7 651q0 16 29 35.5t50 19.5q12 0 12 -11l1 -537l86 235q5 15 21.5 26.5t30.5 11.5q10 0 14.5 -4.5t9.5 -18.5l84 -241v484q0 16 27.5 35.5t47.5 19.5q13 0 13 -11l-9 -650 q0 -16 -29.5 -35.5t-48.5 -19.5q-9 0 -13 9l-119 323l-107 -280q-8 -22 -32 -37t-50 -15q-11 0 -11 10z" />
<glyph unicode="&#x1e81;" d="M119 -8q-21 0 -21 31l-6 394q-1 12 28.5 29.5t49.5 17.5q14 0 14 -11v-357l73 172q8 17 28.5 33t33.5 18q12 2 18 -11l88 -194l-1 303q0 12 29 29.5t48 17.5q14 0 14 -11l-11 -403q-1 -21 -31 -39.5t-52 -18.5q-15 0 -26 21l-106 223l-83 -191q-8 -18 -36 -35.5 t-51 -17.5zM193 702q-8 9 8 25.5t35.5 22.5t29.5 -3l105 -164q6 -9 -4 -21t-23.5 -15t-22.5 4z" />
<glyph unicode="&#x1e82;" d="M231 804l161 126q10 8 28 -8.5t25 -36.5t-2 -29l-178 -97q-9 -6 -21.5 3t-16.5 21.5t4 20.5zM93 2l-7 651q0 16 29 35.5t50 19.5q12 0 12 -11l1 -537l86 235q5 15 21.5 26.5t30.5 11.5q10 0 14.5 -4.5t9.5 -18.5l84 -241v484q0 16 27.5 35.5t47.5 19.5q13 0 13 -11 l-9 -650q0 -16 -29.5 -35.5t-48.5 -19.5q-9 0 -13 9l-119 323l-107 -280q-8 -22 -32 -37t-50 -15q-11 0 -11 10z" />
<glyph unicode="&#x1e83;" d="M259 583l106 164q10 9 29 3t35 -22.5t8 -25.5l-128 -151q-11 -14 -35 1.5t-15 30.5zM119 -8q-21 0 -21 31l-6 394q-1 12 28.5 29.5t49.5 17.5q14 0 14 -11v-357l73 172q8 17 28.5 33t33.5 18q12 2 18 -11l88 -194l-1 303q0 12 29 29.5t48 17.5q14 0 14 -11l-11 -403 q-1 -21 -31 -39.5t-52 -18.5q-15 0 -26 21l-106 223l-83 -191q-8 -18 -36 -35.5t-51 -17.5z" />
<glyph unicode="&#x1e84;" d="M93 2l-7 651q0 16 29 35.5t50 19.5q12 0 12 -11l1 -537l86 235q5 15 21.5 26.5t30.5 11.5q10 0 14.5 -4.5t9.5 -18.5l84 -241v484q0 16 27.5 35.5t47.5 19.5q13 0 13 -11l-9 -650q0 -16 -29.5 -35.5t-48.5 -19.5q-9 0 -13 9l-119 323l-107 -280q-8 -22 -32 -37t-50 -15 q-11 0 -11 10zM172 785v81q0 16 31.5 35t53.5 19q17 0 17 -10v-82q0 -16 -32 -34.5t-54 -19.5q-16 0 -16 11zM344 787v82q0 16 31.5 34.5t54.5 19.5q16 0 16 -11v-82q0 -15 -32 -34t-55 -20q-15 0 -15 11z" />
<glyph unicode="&#x1e85;" d="M182 564v88q0 15 30 34t51 19q14 0 14 -10v-89q0 -15 -30.5 -34t-51.5 -19q-13 0 -13 11zM347 566v89q0 15 30 34t50 19q14 0 14 -11v-88q0 -15 -30.5 -34t-50.5 -19q-13 0 -13 10zM119 -8q-21 0 -21 31l-6 394q-1 12 28.5 29.5t49.5 17.5q14 0 14 -11v-357l73 172 q8 17 28.5 33t33.5 18q12 2 18 -11l88 -194l-1 303q0 12 29 29.5t48 17.5q14 0 14 -11l-11 -403q-1 -21 -31 -39.5t-52 -18.5q-15 0 -26 21l-106 223l-83 -191q-8 -18 -36 -35.5t-51 -17.5z" />
<glyph unicode="&#x1ef2;" d="M112 9q0 15 28 35.5t54 20.5h58v266l-190 315q-9 15 20.5 38.5t52.5 23.5q10 0 14 -6l165 -288l144 248q11 20 34 33t42 13q22 0 12 -17l-193 -331v-295h107q16 0 16 -10q0 -15 -27.5 -35t-53.5 -20h-267q-16 0 -16 9zM164 856q-9 8 -2.5 28t24.5 36.5t28 8.5l161 -125 q14 -11 -2.5 -32.5t-31.5 -13.5z" />
<glyph unicode="&#x1ef3;" d="M82 163l4 252q0 12 32.5 30.5t52.5 18.5q13 0 13 -11l-5 -246q-2 -60 33.5 -108.5t102.5 -48.5q30 0 92 26v338q0 12 32 31t52 19q14 0 14 -11v-482q0 -89 -75.5 -150.5t-166.5 -61.5q-81 0 -185 60q-9 6 9.5 25t45 33.5t35.5 8.5q121 -71 168 -71q71 11 71 120v104 q-87 -47 -161 -47q-83 0 -124 52t-40 119zM186 702q-8 9 8 25.5t35.5 22.5t29.5 -3l105 -164q6 -9 -4 -21t-23.5 -15t-22.5 4z" />
<glyph unicode="&#x2013;" d="M87 218q0 16 29 37t57 21h323q17 0 17 -10q0 -16 -28.5 -37t-56.5 -21h-323q-18 0 -18 10z" />
<glyph unicode="&#x2014;" d="M0 218q0 16 29 37t56 21h498q17 0 17 -10q0 -16 -28.5 -37t-56.5 -21h-497q-18 0 -18 10z" />
<glyph unicode="&#x2018;" d="M239 450q-9 58 19 134t64 111q16 16 29 12t4 -26q-28 -69 -13 -189q2 -17 -24 -32.5t-49.5 -17.5t-29.5 8z" />
<glyph unicode="&#x2019;" d="M258 657q-2 17 23.5 32.5t49.5 17.5t30 -7q9 -59 -19.5 -135t-64.5 -111q-15 -16 -28 -11.5t-4 26.5q26 65 13 188z" />
<glyph unicode="&#x201a;" d="M258 58q-2 17 23.5 32.5t49.5 17.5t30 -7q9 -59 -19.5 -135t-64.5 -111q-15 -16 -28 -11.5t-4 26.5q26 65 13 188z" />
<glyph unicode="&#x201c;" d="M162 450q-9 60 15 136t58 109q16 16 29 12t4 -26q-30 -74 -17 -188q2 -17 -20 -32.5t-43 -18t-26 7.5zM326 450q-10 59 14.5 135.5t58.5 109.5q15 16 28 12t4 -26q-28 -71 -17 -188q3 -24 -38 -43q-37 -16 -48 -4q-2 1 -2 4z" />
<glyph unicode="&#x201d;" d="M180 657q-2 17 21.5 32.5t46 17.5t27.5 -8q9 -59 -18 -135t-62 -110q-16 -16 -28.5 -11.5t-3.5 26.5q28 72 17 188zM343 657q-2 17 21.5 32.5t46 17.5t27.5 -8q9 -59 -18 -135t-62 -110q-15 -16 -28 -11.5t-4 26.5q28 69 17 188z" />
<glyph unicode="&#x201e;" d="M183 58q-2 17 21.5 32.5t46 17.5t27.5 -7q9 -59 -18 -135.5t-62 -110.5q-15 -16 -28 -11.5t-4 26.5q28 71 17 188zM346 58q-2 17 22 32.5t46 17.5t27 -7q9 -60 -17.5 -136t-61.5 -110q-16 -16 -29 -11.5t-4 26.5q30 74 17 188z" />
<glyph unicode="&#x2020;" d="M249 -44v434h-171q-16 0 -16 9q0 15 27.5 35t53.5 20h106v149q0 16 32 36t54 20q14 0 14 -12v-193h172q16 0 16 -9q0 -15 -27.5 -35t-53.5 -20h-107v-390q0 -16 -32 -35.5t-54 -19.5q-14 0 -14 11z" />
<glyph unicode="&#x2021;" d="M249 -44v204h-171q-16 0 -16 10q0 15 27.5 35t53.5 20h106v165h-171q-16 0 -16 9q0 15 27.5 35t53.5 20h106v149q0 16 32 36t54 20q14 0 14 -12v-193h172q16 0 16 -9q0 -15 -27.5 -35t-53.5 -20h-107v-165h172q16 0 16 -9q0 -15 -27.5 -35.5t-53.5 -20.5h-107v-160 q0 -16 -32 -35.5t-54 -19.5q-14 0 -14 11z" />
<glyph unicode="&#x2022;" d="M63 344q0 98 69.5 167.5t167.5 69.5t167.5 -69.5t69.5 -167.5t-69.5 -167.5t-167.5 -69.5t-167.5 69.5t-69.5 167.5z" />
<glyph unicode="&#x2026;" d="M32 5v78q0 19 38 42t65 23q17 0 17 -13v-78q0 -19 -38.5 -42t-64.5 -23q-17 0 -17 13zM240 5v78q0 19 38.5 42t64.5 23q17 0 17 -13v-78q0 -19 -38.5 -42t-64.5 -23q-17 0 -17 13zM449 5v78q0 19 38.5 42t64.5 23q17 0 17 -13v-78q0 -19 -38 -42t-65 -23q-17 0 -17 13z " />
<glyph unicode="&#x2030;" d="M19 441v149q0 50 38 84t84 34q47 0 72 -28.5t25 -64.5v-147q0 -47 -36.5 -82.5t-90.5 -35.5q-41 0 -66.5 28.5t-25.5 62.5zM89 466q0 -29 17 -51t41 -25q19 3 19 51v151q0 31 -16 54t-39 24q-22 -2 -22 -53v-151zM258 80v75q0 49 32 82t75 33q40 0 62 -32q34 32 72 32 q41 0 63 -27t22 -63v-73q0 -46 -30.5 -80.5t-80.5 -34.5q-37 0 -60 30q-32 -30 -75 -30q-37 0 -58.5 27t-21.5 61zM322 104q0 -68 44 -74q23 6 23 46v92q0 28 -14 45t-35 19q-18 -3 -18 -54v-74zM452 98q0 -61 48 -68q19 5 19 53v78q0 30 -12.5 50t-32.5 21q-22 -4 -22 -47 v-87zM41 4l374 667q9 16 32.5 27t42.5 11q18 0 11 -13l-373 -667q-10 -16 -33.5 -27t-43.5 -11q-17 0 -10 13z" />
<glyph unicode="&#x2039;" d="M221 242l229 -192q7 -5 -4.5 -19.5t-32 -26.5t-35.5 -12q-8 0 -14 6l-236 201q-8 6 16 30l220 202q39 34 69 32q13 -4 9.5 -12t-15.5 -19z" />
<glyph unicode="&#x203a;" d="M368 214l-228 191q-7 6 4.5 20.5t31.5 26.5t36 12q7 0 13 -6l237 -201q7 -6 -17 -30l-220 -202q-37 -35 -69 -33q-8 1 -10.5 4.5t0.5 8.5t7 9l9 9z" />
<glyph unicode="&#x2044;" d="M70 4l373 667q10 16 33.5 27t42.5 11q17 0 11 -13l-373 -667q-10 -16 -33.5 -27t-43.5 -11q-16 0 -10 13z" />
<glyph unicode="&#x20ac;" d="M308 -8q-67 0 -121.5 50t-54.5 135v78h-91q-14 0 -14 8q0 13 23 30t45 17h37v62h-91q-14 0 -14 8q0 13 23 30t45 17h37v64q0 86 71.5 151.5t171.5 65.5q78 0 118.5 -46.5t40.5 -107.5q0 -17 -34.5 -39.5t-55.5 -22.5q-11 0 -11 9q0 56 -35 98t-95 46q-28 -4 -49 -37 t-21 -72v-109h241q14 0 14 -8q0 -13 -23 -30t-45 -17h-187v-62h178q14 0 14 -8q0 -13 -23 -30t-45 -17h-124v-39q0 -65 41.5 -110t98.5 -48q31 2 52.5 39t21.5 97q0 15 37.5 37.5t61.5 22.5q14 0 14 -10q0 -42 -16 -85t-45.5 -81t-79.5 -62t-111 -24z" />
<glyph unicode="&#x2117;" d="M49 225q0 103 83 177.5t187 74.5q96 0 164 -71t68 -171q0 -105 -82 -181.5t-190 -76.5q-99 0 -164.5 72t-65.5 176zM107 246q0 -91 59 -162t152 -71q77 0 126.5 59t49.5 141q0 89 -61 158.5t-152 69.5q-75 0 -124.5 -57t-49.5 -138zM210 104v236q0 7 8 13t16 6h110 q38 0 58.5 -24t20.5 -53q0 -37 -31 -62t-73 -25h-42v-71q0 -9 -19.5 -19t-34.5 -10q-13 0 -13 9zM277 224h36q18 0 28 13t10 34q0 23 -13.5 36.5t-33.5 13.5h-27v-97z" />
<glyph unicode="&#x2122;" d="M135 355v304h-78q-11 0 -11 6q0 9 23.5 24.5t40.5 15.5h178q12 0 12 -6q0 -10 -23 -25t-40 -15h-32v-274q0 -15 -34 -30q-35 -15 -36 0zM312 355v316q0 13 31 29.5t38 4.5l59 -115l41 85q7 14 39 28q30 14 30 -2v-316q0 -14 -32 -30q-34 -14 -37 0v226l-29 -52 q-5 -11 -20 -18.5t-22 1.5l-29 64v-191q0 -14 -32 -30q-34 -14 -37 0z" />
<glyph unicode="&#x2190;" d="M25 207q-8 9 10 27l183 183q32 30 61 30q16 0 16 -9q0 -6 -16 -22l-153 -153h438q15 0 15 -9q0 -12 -25 -31t-48 -19h-338l146 -145q6 -6 -7.5 -19.5t-35 -24.5t-36.5 -11q-8 0 -13 5z" />
<glyph unicode="&#x2191;" d="M246 3v458l-114 -114q-30 -30 -61 -30q-15 0 -15 8q0 7 15 22l192 192q11 11 29 19.5t32 8.5q9 0 14 -5l198 -200q6 -6 -7 -19t-34 -24t-37 -11q-6 0 -13 5l-102 102v-374q0 -13 -31 -31t-51 -18q-15 0 -15 11z" />
<glyph unicode="&#x2192;" d="M21 197q0 13 25 32t48 19h338l-146 145q-6 6 7.5 19.5t35 24.5t36.5 11q6 0 13 -5l196 -198q8 -9 -10 -27l-182 -183q-32 -30 -61 -30q-16 0 -16 9q0 6 16 22l153 153h-438q-15 0 -15 8z" />
<glyph unicode="&#x2193;" d="M64 197q-6 6 7 19.5t34.5 24t36.5 10.5q9 0 13 -5l103 -102l-1 374q0 14 31 31.5t52 17.5q14 0 14 -11v-458l114 114q30 30 61 30q16 0 16 -8q0 -6 -16 -22l-192 -192q-28 -28 -61 -28q-8 0 -14 6z" />
<glyph unicode="&#x2202;" d="M265 -8q-75 0 -125.5 51t-50.5 113v94q0 84 75.5 149t170.5 65q39 0 70 -23q-5 48 -22.5 91.5t-51.5 77t-78 33.5q-40 -7 -80 -49q-26 -22 -35 -23t-13 4.5t2 15.5q27 45 77.5 81t112.5 36q53 0 93 -33t60.5 -84t30.5 -102.5t10 -100.5v-182q0 -84 -75.5 -149t-170.5 -65 zM336 48q30 2 49 23.5t24 42t5 41.5v98q0 58 -43 105.5t-107 49.5q-43 -4 -60.5 -38t-17.5 -70v-98q0 -58 43 -105.5t107 -48.5z" />
<glyph unicode="&#x2206;" d="M45 12l206 630q9 27 34.5 46.5t48.5 19.5q11 0 13 -12l207 -637q6 -18 -23.5 -38.5t-54.5 -20.5h-417q-8 0 -12.5 2.5t-1.5 9.5zM135 65h310l-153 511z" />
<glyph unicode="&#x220f;" d="M75 3v635q0 18 30.5 40t56.5 22h346q16 0 16 -10v-643q0 -16 -31.5 -35.5t-53.5 -19.5q-15 0 -15 11v633h-248v-589q0 -16 -31.5 -35.5t-53.5 -19.5q-16 0 -16 11z" />
<glyph unicode="&#x2211;" d="M36 9q0 14 22.5 32t46.5 21l20 1l150 269l-208 311q-10 15 21 36t53 21h377q16 0 16 -9q0 -15 -27.5 -35t-53.5 -20h-263l181 -268q4 -5 -2 -13l-161 -290h340q17 0 17 -10q0 -15 -28 -35t-54 -20h-431q-16 0 -16 9z" />
<glyph unicode="&#x2212;" d="M61 326q0 16 28.5 37t56.5 21h376q18 0 18 -10q0 -15 -29 -36.5t-56 -21.5h-377q-17 0 -17 10z" />
<glyph unicode="&#x221a;" d="M48 319q0 15 27.5 35t53.5 20h89q8 0 11 -6l82 -248l170 553q7 22 46 33q28 5 27 -6l-204 -654q-5 -16 -29.5 -32t-45.5 -20.5t-28 4.5l-102 312h-81q-16 0 -16 9z" />
<glyph unicode="&#x221e;" d="M73 329q0 56 48.5 97.5t110.5 41.5q51 0 84 -47q47 47 108 47q42 0 72.5 -28.5t30.5 -71.5q0 -55 -49.5 -96.5t-110.5 -41.5q-52 0 -84 47q-49 -47 -107 -47q-42 0 -72.5 28t-30.5 71zM148 373q0 -36 24.5 -64t59.5 -30q9 2 18 19t13 32q-11 36 -32.5 63t-52.5 29 q-12 -3 -21 -15.5t-9 -33.5zM338 368q8 -35 30 -62.5t52 -29.5q14 2 23 16.5t9 32.5q0 35 -24.5 64t-60.5 30q-17 -4 -29 -51z" />
<glyph unicode="&#x222b;" d="M-2 -102q0 14 40 35q48 24 56 8q1 -2 1 -5q0 -48 30.5 -83t72.5 -37q29 3 41 28t10 53v630q0 73 62.5 127t143.5 54q64 0 103 -43t39 -96q0 -14 -40 -35q-48 -24 -56 -8q-1 2 -1 5q0 48 -30.5 83t-73.5 37q-50 -5 -50 -104v-607q0 -73 -62.5 -127t-143.5 -54 q-65 0 -103.5 43t-38.5 96z" />
<glyph unicode="&#x2248;" d="M162 276q-45 -38 -64 -38q-3 0 -4.5 0.5t-2.5 2t-1 3.5q5 28 50.5 57.5t84.5 29.5q37 0 114.5 -23.5t98.5 -25.5q41 38 63 38q4 0 6.5 -1t1.5 -4q-6 -29 -51.5 -58t-85.5 -29q-33 0 -110 23.5t-100 24.5zM162 418q-45 -38 -64 -38q-3 0 -4.5 0.5t-2.5 2t-1 3.5 q5 28 50.5 57.5t84.5 29.5q37 0 114.5 -23.5t98.5 -25.5q41 38 63 38q4 0 6.5 -1t1.5 -4q-6 -29 -51.5 -58t-85.5 -29q-33 0 -110 23.5t-100 24.5z" />
<glyph unicode="&#x2260;" d="M141 118q-10 3 -7 14.5t10 22.5l61 92h-127q-17 0 -17 10q0 16 28.5 37t56.5 21h104l47 71h-219q-17 0 -17 10q0 15 28.5 36.5t56.5 21.5h196l55 83q30 45 62 45q6 0 7.5 -4.5t0 -10.5t-4 -11.5t-5.5 -8.5l-62 -93h128q18 0 18 -10q0 -16 -29 -37t-57 -21h-105l-47 -71 h220q18 0 18 -10q0 -16 -29 -37t-57 -21h-197l-55 -84q-30 -45 -62 -45z" />
<glyph unicode="&#x2264;" d="M203 369l310 -130q17 -7 -15 -39q-35 -35 -59 -34q-3 0 -5 1l-350 151q-15 7 0 31t32 31l326 144q53 20 70 10q10 -7 -1 -19t-25 -18zM61 10q0 16 28.5 37t56.5 21h377q18 0 18 -10q0 -16 -29 -37t-57 -21h-377q-17 0 -17 10z" />
<glyph unicode="&#x2265;" d="M406 323l-310 137q-17 7 15 40q35 35 59 33q3 0 5 -1l350 -158q15 -7 0 -31t-32 -31l-326 -137q-50 -22 -70 -10q-10 7 1 19t25 18zM61 10q0 16 28.5 37t56.5 21h377q18 0 18 -10q0 -16 -29 -37t-57 -21h-377q-17 0 -17 10z" />
<glyph unicode="&#x25ca;" d="M256 -1l-248 321q-4 5 2 14l245 322q13 19 45.5 40.5t45.5 4.5l245 -318q6 -7 -4 -19l-240 -322q-14 -18 -46 -39t-45 -4zM315 90l179 247l-206 273l-185 -245z" />
<glyph unicode="&#x25fc;" horiz-adv-x="465" d="M0 465h465v-465h-465v465z" />
<glyph unicode="&#xf6c3;" d="M251 -133q-2 16 27.5 36.5t56.5 27t34 -4.5q9 -52 -20 -102.5t-77 -79.5q-29 -17 -40 -7q-7 6 3 22q25 37 16 108z" />
<glyph unicode="&#xfb06;" d="M187 -8q-47 0 -88.5 29t-41.5 80q0 13 26.5 31t44.5 18q12 0 12 -9q0 -41 19 -66t48 -25q23 0 36.5 17.5t13.5 43.5q0 16 -2.5 26t-15.5 20.5t-24 17t-43 23.5q-34 18 -47 26t-31 24t-24 35t-6 46q0 50 41.5 92.5t109.5 42.5h6q-31 53 -31 115q0 58 41.5 93.5t101.5 35.5 q113 0 113 -132v-120h124q15 0 15 -9q0 -14 -25.5 -32t-50.5 -18h-63v-274q0 -74 42 -74q17 0 25.5 12t8.5 44q0 13 31 31t49 18q12 0 12 -9q0 -55 -47.5 -104t-103.5 -49q-13 0 -25.5 2.5t-31.5 10.5t-31 30.5t-12 55.5v471q0 87 -64 87q-30 0 -48 -22.5t-18 -58.5 q0 -61 26 -115q53 -27 53 -97v-8q0 -13 -26.5 -31t-44.5 -18q-12 0 -12 9v20q0 32 -11.5 55.5t-36.5 23.5q-31 0 -31 -57q0 -31 15 -46.5t63 -39.5q60 -30 86 -57t26 -75q0 -51 -46.5 -95.5t-106.5 -44.5z" />
<glyph d="M94 4v492q0 85 70 148.5t171 63.5q77 0 124 -53t47 -125v-484q0 -15 -31.5 -34.5t-53.5 -19.5q-16 0 -16 12v307h-211v-264q0 -15 -31.5 -35t-53.5 -20q-15 0 -15 12zM194 376h211v115q0 64 -40 107.5t-98 46.5q-29 -3 -51 -31t-22 -66v-172z" />
<glyph d="M106 9v636q0 14 30 34.5t58 20.5h151q75 0 129.5 -57t54.5 -143v-278q0 -92 -75 -157t-173 -65h-159q-16 0 -16 9zM206 64h149q33 5 53 39.5t20 75.5v288q0 66 -44 118t-106 52h-72v-573z" />
<glyph d="M132 10v634q0 15 31 35.5t56 20.5h300q16 0 16 -9q0 -15 -27.5 -35t-53.5 -20h-222v-254h209q17 0 17 -9q0 -15 -28 -35t-54 -20h-144v-253h288q16 0 16 -10q0 -15 -27.5 -35t-53.5 -20h-308q-15 0 -15 10z" />
<glyph d="M148 4v640q0 15 31.5 35.5t55.5 20.5h318q16 0 16 -9q0 -15 -28 -35t-54 -20h-238v-254h236q16 0 16 -9q0 -15 -27.5 -35t-53.5 -20h-171v-271q0 -15 -32 -35t-54 -20q-15 0 -15 12z" />
<glyph d="M271 -8q-67 0 -119.5 48.5t-52.5 133.5v317q0 86 71.5 151.5t171.5 65.5q80 0 119.5 -48t39.5 -112q0 -17 -34 -39.5t-55 -22.5q-12 0 -12 10q0 56 -35.5 100.5t-95.5 48.5q-28 -4 -49 -37t-21 -72v-323q0 -63 42 -109t93 -49q36 3 62 48.5t14 101.5l-16 70q-4 16 30 37 t53 21q10 0 13 -9l55 -275q3 -16 -30.5 -36.5t-52.5 -20.5q-11 0 -12 8l-14 70q-60 -78 -165 -78z" />
<glyph d="M370 3v315h-137v-271q0 -16 -31.5 -35.5t-54.5 -19.5q-15 0 -15 11v315h-111q-16 0 -16 9q0 15 27.5 35t53.5 20h46v271q0 16 31.5 35.5t54.5 19.5q15 0 15 -11v-315h137v271q0 16 31.5 35.5t54.5 19.5q15 0 15 -11v-315h109q16 0 16 -9q0 -15 -27.5 -35t-53.5 -20h-44 v-271q0 -16 -31.5 -35.5t-54.5 -19.5q-15 0 -15 11z" />
<glyph d="M257 -8q-75 0 -118 52t-43 139v470q0 16 31.5 35.5t54.5 19.5q14 0 14 -11v-472q0 -77 35 -122.5t97 -47.5q27 0 51 22t24 53v523q0 16 31.5 35.5t54.5 19.5q15 0 15 -11v-650q0 -16 -31 -35.5t-53 -19.5q-15 0 -15 11l-1 44q-55 -55 -147 -55z" />
<glyph d="M77 327q0 15 28 35t54 20h94l136 254h-293q-16 0 -16 9q0 15 27.5 35t53.5 20h355q21 0 13 -18l-162 -300h133q16 0 16 -9q0 -15 -27.5 -35t-53.5 -20h-103l-136 -253h340q16 0 16 -10q0 -15 -27.5 -35t-53.5 -20h-401q-9 0 -12.5 5.5t1.5 15.5l159 297h-124q-17 0 -17 9 z" />
<glyph d="M94 4v492q0 85 70 148.5t171 63.5q77 0 124 -53t47 -125v-484q0 -15 -31.5 -34.5t-53.5 -19.5q-16 0 -16 12v307h-211v-264q0 -15 -31.5 -35t-53.5 -20q-15 0 -15 12zM194 376h211v115q0 64 -40 107.5t-98 46.5q-29 -3 -51 -31t-22 -66v-172zM221 804l161 126 q10 8 28 -8.5t25 -36.5t-2 -29l-178 -97q-9 -6 -21.5 3t-16.5 21.5t4 20.5z" />
<glyph d="M94 4v492q0 85 70 148.5t171 63.5q77 0 124 -53t47 -125v-484q0 -15 -31.5 -34.5t-53.5 -19.5q-16 0 -16 12v307h-211v-264q0 -15 -31.5 -35t-53.5 -20q-15 0 -15 12zM194 376h211v115q0 64 -40 107.5t-98 46.5q-29 -3 -51 -31t-22 -66v-172zM176 882q0 12 25 27t42 15 q12 0 12 -8q0 -33 20 -60.5t56 -30.5q25 4 25 59q0 12 26 27t43 15q10 0 10 -8q0 -55 -45 -96t-101 -41q-49 0 -81 30t-32 71z" />
<glyph d="M94 4v492q0 85 70 148.5t171 63.5q77 0 124 -53t47 -125v-484q0 -15 -31.5 -34.5t-53.5 -19.5q-16 0 -16 12v307h-211v-264q0 -15 -31.5 -35t-53.5 -20q-15 0 -15 12zM194 376h211v115q0 64 -40 107.5t-98 46.5q-29 -3 -51 -31t-22 -66v-172zM165 808l107 103 q12 11 37 22t36 3l118 -97q7 -5 -9 -20t-39 -25t-32 -3l-95 78l-59 -57q-26 -26 -62 -26q-22 0 -2 22z" />
<glyph d="M94 4v492q0 85 70 148.5t171 63.5q77 0 124 -53t47 -125v-484q0 -15 -31.5 -34.5t-53.5 -19.5q-16 0 -16 12v307h-211v-264q0 -15 -31.5 -35t-53.5 -20q-15 0 -15 12zM194 376h211v115q0 64 -40 107.5t-98 46.5q-29 -3 -51 -31t-22 -66v-172zM175 785v81q0 16 31.5 35 t53.5 19q17 0 17 -10v-82q0 -16 -32 -34.5t-54 -19.5q-16 0 -16 11zM347 787v82q0 16 31.5 34.5t54.5 19.5q16 0 16 -11v-82q0 -15 -32 -34t-55 -20q-15 0 -15 11z" />
<glyph d="M94 4v492q0 85 70 148.5t171 63.5q77 0 124 -53t47 -125v-484q0 -15 -31.5 -34.5t-53.5 -19.5q-16 0 -16 12v307h-211v-264q0 -15 -31.5 -35t-53.5 -20q-15 0 -15 12zM194 376h211v115q0 64 -40 107.5t-98 46.5q-29 -3 -51 -31t-22 -66v-172zM192 856q-9 8 -2.5 28 t24.5 36.5t28 8.5l161 -125q14 -11 -2.5 -32.5t-31.5 -13.5z" />
<glyph d="M94 4v492q0 85 70 148.5t171 63.5q77 0 124 -53t47 -125v-484q0 -15 -31.5 -34.5t-53.5 -19.5q-16 0 -16 12v307h-211v-264q0 -15 -31.5 -35t-53.5 -20q-15 0 -15 12zM194 376h211v115q0 64 -40 107.5t-98 46.5q-29 -3 -51 -31t-22 -66v-172zM131 824q0 15 28.5 35 t55.5 20h265q17 0 17 -9q0 -16 -28.5 -36t-55.5 -20h-266q-16 0 -16 10z" />
<glyph d="M288 -158q0 74 119 156q-2 1 -2 6v307h-211v-264q0 -15 -31.5 -35t-53.5 -20q-15 0 -15 12v492q0 85 70 148.5t171 63.5q77 0 124 -53t47 -125v-484q0 -9 -12 -20t-29 -20q-100 -74 -100 -132q0 -23 14 -40.5t42 -17.5q20 0 40 13q32 21 39 13q10 -13 -19 -37 q-52 -46 -112 -46q-33 0 -57 22.5t-24 60.5zM194 376h211v115q0 64 -40 107.5t-98 46.5q-29 -3 -51 -31t-22 -66v-172z" />
<glyph d="M186 793q0 50 42.5 86.5t90.5 36.5q40 0 69 -26.5t29 -69.5q0 -32 -22.5 -64t-55.5 -48q75 -1 121 -54t46 -124v-484q0 -15 -31.5 -34.5t-53.5 -19.5q-16 0 -16 12v307h-211v-264q0 -15 -31.5 -35t-53.5 -20q-15 0 -15 12v492q0 68 47.5 125t122.5 77q-36 8 -57 33 t-21 62zM194 376h211v115q0 64 -40 107.5t-98 46.5q-29 -3 -51 -31t-22 -66v-172zM252 816q3 -32 24.5 -52.5t46.5 -20.5q30 5 26 58q-3 30 -23.5 49t-47.5 21q-15 -3 -21.5 -20.5t-4.5 -34.5z" />
<glyph d="M94 4v492q0 85 70 148.5t171 63.5q77 0 124 -53t47 -125v-484q0 -15 -31.5 -34.5t-53.5 -19.5q-16 0 -16 12v307h-211v-264q0 -15 -31.5 -35t-53.5 -20q-15 0 -15 12zM194 376h211v115q0 64 -40 107.5t-98 46.5q-29 -3 -51 -31t-22 -66v-172zM145 810q7 31 43 65t76 34 q29 0 77 -30.5t56 -33.5q54 52 68 52t10 -12q-8 -31 -42 -65.5t-78 -34.5q-27 0 -75 30.5t-56 33.5q-53 -51 -69 -51q-14 0 -10 12z" />
<glyph d="M106 9v636q0 14 30 34.5t58 20.5h151q75 0 129.5 -57t54.5 -143v-278q0 -92 -75 -157t-173 -65h-159q-16 0 -16 9zM206 64h149q33 5 53 39.5t20 75.5v288q0 66 -44 118t-106 52h-72v-573zM151 872q-11 7 22 30q41 28 57 17l95 -78l58 56q26 26 62 26q22 0 2 -22 l-105 -101q-12 -12 -37 -22.5t-36 -2.5z" />
<glyph d="M106 9v308h-57q-16 0 -16 10q0 13 24 32t49 22v264q0 14 30 34.5t58 20.5h151q75 0 129.5 -57t54.5 -143v-278q0 -92 -75 -157t-173 -65h-159q-16 0 -16 9zM206 64h149q33 5 53 39.5t20 75.5v288q0 66 -44 118t-106 52h-72v-255h130q16 0 16 -9q0 -15 -27.5 -35.5 t-53.5 -20.5h-65v-253z" />
<glyph d="M247 804l161 126q10 8 28 -8.5t25 -36.5t-2 -29l-178 -97q-9 -6 -21.5 3t-16.5 21.5t4 20.5zM132 10v634q0 15 31 35.5t56 20.5h300q16 0 16 -9q0 -15 -27.5 -35t-53.5 -20h-222v-254h209q17 0 17 -9q0 -15 -28 -35t-54 -20h-144v-253h288q16 0 16 -10q0 -15 -27.5 -35 t-53.5 -20h-308q-15 0 -15 10z" />
<glyph d="M206 882q0 12 25 27t42 15q12 0 12 -8q0 -33 20 -60.5t56 -30.5q25 4 25 59q0 12 26 27t43 15q10 0 10 -8q0 -55 -45 -96t-101 -41q-49 0 -81 30t-32 71zM132 10v634q0 15 31 35.5t56 20.5h300q16 0 16 -9q0 -15 -27.5 -35t-53.5 -20h-222v-254h209q17 0 17 -9 q0 -15 -28 -35t-54 -20h-144v-253h288q16 0 16 -10q0 -15 -27.5 -35t-53.5 -20h-308q-15 0 -15 10z" />
<glyph d="M132 10v634q0 15 31 35.5t56 20.5h300q16 0 16 -9q0 -15 -27.5 -35t-53.5 -20h-222v-254h209q17 0 17 -9q0 -15 -28 -35t-54 -20h-144v-253h288q16 0 16 -10q0 -15 -27.5 -35t-53.5 -20h-308q-15 0 -15 10zM187 872q-11 7 22 30q41 28 57 17l95 -78l58 56q26 26 62 26 q22 0 2 -22l-105 -101q-12 -12 -37 -22.5t-36 -2.5z" />
<glyph d="M187 808l107 103q12 11 37 22t36 3l118 -97q7 -5 -9 -20t-39 -25t-32 -3l-95 78l-59 -57q-26 -26 -62 -26q-22 0 -2 22zM132 10v634q0 15 31 35.5t56 20.5h300q16 0 16 -9q0 -15 -27.5 -35t-53.5 -20h-222v-254h209q17 0 17 -9q0 -15 -28 -35t-54 -20h-144v-253h288 q16 0 16 -10q0 -15 -27.5 -35t-53.5 -20h-308q-15 0 -15 10z" />
<glyph d="M132 10v634q0 15 31 35.5t56 20.5h300q16 0 16 -9q0 -15 -27.5 -35t-53.5 -20h-222v-254h209q17 0 17 -9q0 -15 -28 -35t-54 -20h-144v-253h288q16 0 16 -10q0 -15 -27.5 -35t-53.5 -20h-308q-15 0 -15 10zM200 785v81q0 16 31.5 35t53.5 19q17 0 17 -10v-82 q0 -16 -32 -34.5t-54 -19.5q-16 0 -16 11zM372 787v82q0 16 31.5 34.5t54.5 19.5q16 0 16 -11v-82q0 -15 -32 -34t-55 -20q-15 0 -15 11z" />
<glyph d="M271 778v84q0 19 42.5 43.5t70.5 24.5q18 0 18 -13v-84q0 -19 -42 -43.5t-70 -24.5q-19 0 -19 13zM132 10v634q0 15 31 35.5t56 20.5h300q16 0 16 -9q0 -15 -27.5 -35t-53.5 -20h-222v-254h209q17 0 17 -9q0 -15 -28 -35t-54 -20h-144v-253h288q16 0 16 -10 q0 -15 -27.5 -35t-53.5 -20h-308q-15 0 -15 10z" />
<glyph d="M207 856q-9 8 -2.5 28t24.5 36.5t28 8.5l161 -125q14 -11 -2.5 -32.5t-31.5 -13.5zM132 10v634q0 15 31 35.5t56 20.5h300q16 0 16 -9q0 -15 -27.5 -35t-53.5 -20h-222v-254h209q17 0 17 -9q0 -15 -28 -35t-54 -20h-144v-253h288q16 0 16 -10q0 -15 -27.5 -35t-53.5 -20 h-308q-15 0 -15 10z" />
<glyph d="M132 10v634q0 15 31 35.5t56 20.5h300q16 0 16 -9q0 -15 -27.5 -35t-53.5 -20h-222v-254h209q17 0 17 -9q0 -15 -28 -35t-54 -20h-144v-253h288q16 0 16 -10q0 -15 -27.5 -35t-53.5 -20h-308q-15 0 -15 10zM155 824q0 15 28.5 35t55.5 20h265q17 0 17 -9q0 -16 -28.5 -36 t-55.5 -20h-266q-16 0 -16 10z" />
<glyph d="M132 10v634q0 15 31 35.5t56 20.5h300q16 0 16 -9q0 -15 -27.5 -35t-53.5 -20h-222v-254h209q17 0 17 -9q0 -15 -28 -35t-54 -20h-144v-253h288q16 0 16 -10t-14 -24t-33 -23q-104 -76 -104 -134q0 -23 14 -40.5t42 -17.5q20 0 40 13q32 21 39 13q10 -13 -19 -37 q-52 -46 -112 -46q-33 0 -57 22.5t-24 60.5q0 76 122 158h-283q-15 0 -15 10z" />
<glyph d="M185 882q0 12 25 27t42 15q12 0 12 -8q0 -33 20 -60.5t56 -30.5q25 4 25 59q0 12 26 27t43 15q10 0 10 -8q0 -55 -45 -96t-101 -41q-49 0 -81 30t-32 71zM271 -8q-67 0 -119.5 48.5t-52.5 133.5v317q0 86 71.5 151.5t171.5 65.5q80 0 119.5 -48t39.5 -112 q0 -17 -34 -39.5t-55 -22.5q-12 0 -12 10q0 56 -35.5 100.5t-95.5 48.5q-28 -4 -49 -37t-21 -72v-323q0 -63 42 -109t93 -49q36 3 62 48.5t14 101.5l-16 70q-4 16 30 37t53 21q10 0 13 -9l55 -275q3 -16 -30.5 -36.5t-52.5 -20.5q-11 0 -12 8l-14 70q-60 -78 -165 -78z" />
<glyph d="M176 808l107 103q12 11 37 22t36 3l118 -97q7 -5 -9 -20t-39 -25t-32 -3l-95 78l-59 -57q-26 -26 -62 -26q-22 0 -2 22zM271 -8q-67 0 -119.5 48.5t-52.5 133.5v317q0 86 71.5 151.5t171.5 65.5q80 0 119.5 -48t39.5 -112q0 -17 -34 -39.5t-55 -22.5q-12 0 -12 10 q0 56 -35.5 100.5t-95.5 48.5q-28 -4 -49 -37t-21 -72v-323q0 -63 42 -109t93 -49q36 3 62 48.5t14 101.5l-16 70q-4 16 30 37t53 21q10 0 13 -9l55 -275q3 -16 -30.5 -36.5t-52.5 -20.5q-11 0 -12 8l-14 70q-60 -78 -165 -78z" />
<glyph d="M258 -133q-2 16 27.5 36.5t56.5 27t34 -4.5q9 -52 -20 -102.5t-77 -79.5q-29 -17 -40 -7q-7 6 3 22q25 37 16 108zM271 -8q-67 0 -119.5 48.5t-52.5 133.5v317q0 86 71.5 151.5t171.5 65.5q80 0 119.5 -48t39.5 -112q0 -17 -34 -39.5t-55 -22.5q-12 0 -12 10 q0 56 -35.5 100.5t-95.5 48.5q-28 -4 -49 -37t-21 -72v-323q0 -63 42 -109t93 -49q36 3 62 48.5t14 101.5l-16 70q-4 16 30 37t53 21q10 0 13 -9l55 -275q3 -16 -30.5 -36.5t-52.5 -20.5q-11 0 -12 8l-14 70q-60 -78 -165 -78z" />
<glyph d="M248 778v84q0 19 42.5 43.5t70.5 24.5q18 0 18 -13v-84q0 -19 -42 -43.5t-70 -24.5q-19 0 -19 13zM271 -8q-67 0 -119.5 48.5t-52.5 133.5v317q0 86 71.5 151.5t171.5 65.5q80 0 119.5 -48t39.5 -112q0 -17 -34 -39.5t-55 -22.5q-12 0 -12 10q0 56 -35.5 100.5 t-95.5 48.5q-28 -4 -49 -37t-21 -72v-323q0 -63 42 -109t93 -49q36 3 62 48.5t14 101.5l-16 70q-4 16 30 37t53 21q10 0 13 -9l55 -275q3 -16 -30.5 -36.5t-52.5 -20.5q-11 0 -12 8l-14 70q-60 -78 -165 -78z" />
<glyph d="M370 3v315h-137v-271q0 -16 -31.5 -35.5t-54.5 -19.5q-15 0 -15 11v315h-111q-16 0 -16 9q0 15 27.5 35t53.5 20h46v271q0 16 31.5 35.5t54.5 19.5q15 0 15 -11v-315h137v271q0 16 31.5 35.5t54.5 19.5q15 0 15 -11v-315h109q16 0 16 -9q0 -15 -27.5 -35t-53.5 -20h-44 v-271q0 -16 -31.5 -35.5t-54.5 -19.5q-15 0 -15 11zM168 808l107 103q12 11 37 22t36 3l118 -97q7 -5 -9 -20t-39 -25t-32 -3l-95 78l-59 -57q-26 -26 -62 -26q-22 0 -2 22z" />
<glyph d="M5 327q0 15 27.5 35t53.5 20h46v123h-115q-16 0 -16 9q0 15 27.5 34.5t53.5 19.5h50v85q0 16 31.5 35.5t54.5 19.5q15 0 15 -11v-129h137v85q0 16 31.5 35.5t54.5 19.5q15 0 15 -11v-129h107q16 0 16 -10q0 -15 -27.5 -34t-53.5 -19h-42v-123h109q16 0 16 -9 q0 -15 -27.5 -35t-53.5 -20h-44v-271q0 -16 -31.5 -35.5t-54.5 -19.5q-15 0 -15 11v315h-137v-271q0 -16 -31.5 -35.5t-54.5 -19.5q-15 0 -15 11v315h-111q-16 0 -16 9zM233 505v-123h137v123h-137z" />
<glyph d="M257 -8q-75 0 -118 52t-43 139v470q0 16 31.5 35.5t54.5 19.5q14 0 14 -11v-472q0 -77 35 -122.5t97 -47.5q27 0 51 22t24 53v523q0 16 31.5 35.5t54.5 19.5q15 0 15 -11v-650q0 -16 -31 -35.5t-53 -19.5q-15 0 -15 11l-1 44q-55 -55 -147 -55zM242 804l161 126 q10 8 28 -8.5t25 -36.5t-2 -29l-178 -97q-9 -6 -21.5 3t-16.5 21.5t4 20.5z" />
<glyph d="M257 -8q-75 0 -118 52t-43 139v470q0 16 31.5 35.5t54.5 19.5q14 0 14 -11v-472q0 -77 35 -122.5t97 -47.5q27 0 51 22t24 53v523q0 16 31.5 35.5t54.5 19.5q15 0 15 -11v-650q0 -16 -31 -35.5t-53 -19.5q-15 0 -15 11l-1 44q-55 -55 -147 -55zM187 882q0 12 25 27t42 15 q12 0 12 -8q0 -33 20 -60.5t56 -30.5q25 4 25 59q0 12 26 27t43 15q10 0 10 -8q0 -55 -45 -96t-101 -41q-49 0 -81 30t-32 71z" />
<glyph d="M257 -8q-75 0 -118 52t-43 139v470q0 16 31.5 35.5t54.5 19.5q14 0 14 -11v-472q0 -77 35 -122.5t97 -47.5q27 0 51 22t24 53v523q0 16 31.5 35.5t54.5 19.5q15 0 15 -11v-650q0 -16 -31 -35.5t-53 -19.5q-15 0 -15 11l-1 44q-55 -55 -147 -55zM169 808l107 103 q12 11 37 22t36 3l118 -97q7 -5 -9 -20t-39 -25t-32 -3l-95 78l-59 -57q-26 -26 -62 -26q-22 0 -2 22z" />
<glyph d="M257 -8q-75 0 -118 52t-43 139v470q0 16 31.5 35.5t54.5 19.5q14 0 14 -11v-472q0 -77 35 -122.5t97 -47.5q27 0 51 22t24 53v523q0 16 31.5 35.5t54.5 19.5q15 0 15 -11v-650q0 -16 -31 -35.5t-53 -19.5q-15 0 -15 11l-1 44q-55 -55 -147 -55zM174 785v81q0 16 31.5 35 t53.5 19q17 0 17 -10v-82q0 -16 -32 -34.5t-54 -19.5q-16 0 -16 11zM346 787v82q0 16 31.5 34.5t54.5 19.5q16 0 16 -11v-82q0 -15 -32 -34t-55 -20q-15 0 -15 11z" />
<glyph d="M184 856q-9 8 -2.5 28t24.5 36.5t28 8.5l161 -125q14 -11 -2.5 -32.5t-31.5 -13.5zM257 -8q-75 0 -118 52t-43 139v470q0 16 31.5 35.5t54.5 19.5q14 0 14 -11v-472q0 -77 35 -122.5t97 -47.5q27 0 51 22t24 53v523q0 16 31.5 35.5t54.5 19.5q15 0 15 -11v-650 q0 -16 -31 -35.5t-53 -19.5q-15 0 -15 11l-1 44q-55 -55 -147 -55z" />
<glyph d="M202 795l107 136q10 8 27.5 0.5t31 -24t4.5 -24.5l-129 -124q-12 -11 -31.5 5.5t-9.5 30.5zM333 795l129 132q9 9 27 -1.5t28.5 -28t1.5 -24.5l-151 -116q-14 -10 -31 7.5t-4 30.5zM257 -8q-75 0 -118 52t-43 139v470q0 16 31.5 35.5t54.5 19.5q14 0 14 -11v-472 q0 -77 35 -122.5t97 -47.5q27 0 51 22t24 53v523q0 16 31.5 35.5t54.5 19.5q15 0 15 -11v-650q0 -16 -31 -35.5t-53 -19.5q-15 0 -15 11l-1 44q-55 -55 -147 -55z" />
<glyph d="M257 -8q-75 0 -118 52t-43 139v470q0 16 31.5 35.5t54.5 19.5q14 0 14 -11v-472q0 -77 35 -122.5t97 -47.5q27 0 51 22t24 53v523q0 16 31.5 35.5t54.5 19.5q15 0 15 -11v-650q0 -16 -31 -35.5t-53 -19.5q-15 0 -15 11l-1 44q-55 -55 -147 -55zM130 824q0 15 28.5 35 t55.5 20h265q17 0 17 -9q0 -16 -28.5 -36t-55.5 -20h-266q-16 0 -16 10z" />
<glyph d="M288 -158q0 73 118 156q-1 1 -1 5l-1 44q-55 -55 -147 -55q-75 0 -118 52t-43 139v470q0 16 31.5 35.5t54.5 19.5q14 0 14 -11v-472q0 -77 35 -122.5t97 -47.5q27 0 51 22t24 53v523q0 16 31.5 35.5t54.5 19.5q15 0 15 -11v-650q0 -17 -33 -37q-106 -76 -106 -136 q0 -23 14 -40.5t42 -17.5q20 0 40 13q32 21 39 13q10 -13 -19 -37q-52 -46 -112 -46q-33 0 -57 22.5t-24 60.5z" />
<glyph d="M202 839q0 50 42.5 86.5t90.5 36.5q40 0 69 -26.5t29 -69.5q0 -45 -40 -84.5t-87 -39.5q-45 0 -74.5 27t-29.5 70zM268 862q3 -32 24.5 -52.5t46.5 -20.5q30 5 26 58q-3 30 -23.5 49t-47.5 21q-15 -3 -21.5 -20.5t-4.5 -34.5zM257 -8q-75 0 -118 52t-43 139v470 q0 16 31.5 35.5t54.5 19.5q14 0 14 -11v-472q0 -77 35 -122.5t97 -47.5q27 0 51 22t24 53v523q0 16 31.5 35.5t54.5 19.5q15 0 15 -11v-650q0 -16 -31 -35.5t-53 -19.5q-15 0 -15 11l-1 44q-55 -55 -147 -55z" />
<glyph d="M257 -8q-75 0 -118 52t-43 139v470q0 16 31.5 35.5t54.5 19.5q14 0 14 -11v-472q0 -77 35 -122.5t97 -47.5q27 0 51 22t24 53v523q0 16 31.5 35.5t54.5 19.5q15 0 15 -11v-650q0 -16 -31 -35.5t-53 -19.5q-15 0 -15 11l-1 44q-55 -55 -147 -55zM149 810q7 31 43 65t76 34 q29 0 77 -30.5t56 -33.5q54 52 68 52t10 -12q-8 -31 -42 -65.5t-78 -34.5q-27 0 -75 30.5t-56 33.5q-53 -51 -69 -51q-14 0 -10 12z" />
<glyph d="M77 327q0 15 28 35t54 20h94l136 254h-293q-16 0 -16 9q0 15 27.5 35t53.5 20h355q21 0 13 -18l-162 -300h133q16 0 16 -9q0 -15 -27.5 -35t-53.5 -20h-103l-136 -253h340q16 0 16 -10q0 -15 -27.5 -35t-53.5 -20h-401q-9 0 -12.5 5.5t1.5 15.5l159 297h-124q-17 0 -17 9 zM243 804l161 126q10 8 28 -8.5t25 -36.5t-2 -29l-178 -97q-9 -6 -21.5 3t-16.5 21.5t4 20.5z" />
<glyph d="M77 327q0 15 28 35t54 20h94l136 254h-293q-16 0 -16 9q0 15 27.5 35t53.5 20h355q21 0 13 -18l-162 -300h133q16 0 16 -9q0 -15 -27.5 -35t-53.5 -20h-103l-136 -253h340q16 0 16 -10q0 -15 -27.5 -35t-53.5 -20h-401q-9 0 -12.5 5.5t1.5 15.5l159 297h-124q-17 0 -17 9 zM177 872q-11 7 22 30q41 28 57 17l95 -78l58 56q26 26 62 26q22 0 2 -22l-105 -101q-12 -12 -37 -22.5t-36 -2.5z" />
<glyph d="M77 327q0 15 28 35t54 20h94l136 254h-293q-16 0 -16 9q0 15 27.5 35t53.5 20h355q21 0 13 -18l-162 -300h133q16 0 16 -9q0 -15 -27.5 -35t-53.5 -20h-103l-136 -253h340q16 0 16 -10q0 -15 -27.5 -35t-53.5 -20h-401q-9 0 -12.5 5.5t1.5 15.5l159 297h-124q-17 0 -17 9 zM257 778v84q0 19 42.5 43.5t70.5 24.5q18 0 18 -13v-84q0 -19 -42 -43.5t-70 -24.5q-19 0 -19 13z" />
<glyph d="M-7 9q0 15 25 35t50 20h42v572h-86q-16 0 -16 9q0 14 27.5 34.5t52.5 20.5h216q16 0 16 -9q0 -15 -26 -35t-52 -20h-40v-571h102q16 0 16 -10q0 -15 -27.5 -35t-53.5 -20h-230q-16 0 -16 9zM533 700v-771q0 -70 -49.5 -120t-125.5 -50q-46 0 -78 32t-34 72q-1 19 30 39.5 t51 21.5q10 0 10 -6q4 -38 25 -63.5t56 -29.5q27 12 27 98v725q0 16 28.5 38t48.5 22q11 0 11 -8zM92 804l161 126q10 8 28 -8.5t25 -36.5t-2 -29l-178 -97q-9 -6 -21.5 3t-16.5 21.5t4 20.5zM419 804l161 126q10 8 28 -8.5t25 -36.5t-2 -29l-178 -97q-9 -6 -21.5 3 t-16.5 21.5t4 20.5z" />
<glyph d="M112 158v501q0 14 31 32t52 18q14 0 14 -11v-290q70 56 152 56q75 0 124.5 -51t49.5 -114v-93q0 -84 -75.5 -149t-168.5 -65q-78 0 -128.5 51t-50.5 115zM209 203q0 -65 46 -109.5t104 -45.5q31 2 50 23.5t24 42t5 41.5v100q0 58 -43 104.5t-108 48.5q-42 -4 -60 -36.5 t-18 -67.5v-101z" />
<glyph d="M55 298q0 14 26 33t50 19h101v177q0 73 62.5 127t143.5 54q62 0 102 -43.5t40 -95.5q0 -12 -31.5 -30t-51.5 -18q-14 0 -14 10q0 48 -30.5 83t-72.5 37q-51 -5 -51 -81v-220h176q15 0 15 -9q0 -14 -25.5 -33t-50.5 -19h-115v-349q0 -73 -62.5 -127t-143.5 -54 q-62 0 -102 43.5t-40 95.5q0 12 32 30t52 18q13 0 13 -10q0 -48 30.5 -83t73.5 -37q50 5 50 81v392h-162q-15 0 -15 9z" />
<glyph d="M263 -241q-65 0 -118 35t-53 95q0 59 38 98t87 53l-12 7q-66 39 -95 73t-29 94v32q0 92 77.5 155t168.5 63q78 0 127.5 -52t49.5 -113v-73q0 -55 -31.5 -101.5t-83.5 -72.5l4 -2q28 -15 37 -20t28 -18t25.5 -22.5t13 -25t6.5 -33.5q0 -69 -70.5 -120.5t-169.5 -51.5z M178 239q0 -44 24 -71t71 -53l78 -43q29 20 42.5 49.5t13.5 54.5v80q0 54 -43.5 102.5t-107.5 49.5q-35 -4 -56.5 -33.5t-21.5 -75.5v-60zM329 -20l-78 42q-61 -33 -61 -95q0 -48 42 -79.5t107 -31.5q27 2 47 21.5t20 51.5q0 31 -19.5 51t-57.5 40z" />
<glyph d="M89 156v259q0 12 32 30.5t52 18.5q13 0 13 -10v-252q0 -57 43.5 -105t106.5 -49q43 3 61 37.5t18 69.5v260q0 12 31.5 30.5t51.5 18.5q14 0 14 -10v-248q0 -84 -76 -149t-171 -65q-75 0 -125.5 51t-50.5 113z" />
<glyph d="M84 207q0 13 25 33t48 20h101l103 135h-271q-15 0 -15 9q0 14 26 33t50 19h351q10 0 12.5 -7t-3.5 -15l-132 -174h106q15 0 15 -9q0 -13 -25 -32.5t-48 -19.5h-95l-104 -138h282q15 0 15 -9q0 -14 -25.5 -33t-50.5 -19h-365q-10 0 -10.5 8t5.5 16l133 175h-113 q-15 0 -15 8z" />
<glyph d="M263 -241q-65 0 -118 35t-53 95q0 59 38 98t87 53l-12 7q-66 39 -95 73t-29 94v32q0 92 77.5 155t168.5 63q78 0 127.5 -52t49.5 -113v-73q0 -55 -31.5 -101.5t-83.5 -72.5l4 -2q28 -15 37 -20t28 -18t25.5 -22.5t13 -25t6.5 -33.5q0 -69 -70.5 -120.5t-169.5 -51.5z M178 239q0 -44 24 -71t71 -53l78 -43q29 20 42.5 49.5t13.5 54.5v80q0 54 -43.5 102.5t-107.5 49.5q-35 -4 -56.5 -33.5t-21.5 -75.5v-60zM329 -20l-78 42q-61 -33 -61 -95q0 -48 42 -79.5t107 -31.5q27 2 47 21.5t20 51.5q0 31 -19.5 51t-57.5 40zM176 672q0 11 25 24.5 t42 14.5q12 0 12 -8q0 -35 20.5 -64t54.5 -32q28 4 28 66q0 11 25.5 25t42.5 14q11 0 11 -7q0 -55 -43.5 -99t-107.5 -44q-44 0 -77 31.5t-33 78.5z" />
<glyph d="M263 -241q-65 0 -118 35t-53 95q0 59 38 98t87 53l-12 7q-66 39 -95 73t-29 94v32q0 92 77.5 155t168.5 63q78 0 127.5 -52t49.5 -113v-73q0 -55 -31.5 -101.5t-83.5 -72.5l4 -2q28 -15 37 -20t28 -18t25.5 -22.5t13 -25t6.5 -33.5q0 -69 -70.5 -120.5t-169.5 -51.5z M178 239q0 -44 24 -71t71 -53l78 -43q29 20 42.5 49.5t13.5 54.5v80q0 54 -43.5 102.5t-107.5 49.5q-35 -4 -56.5 -33.5t-21.5 -75.5v-60zM329 -20l-78 42q-61 -33 -61 -95q0 -48 42 -79.5t107 -31.5q27 2 47 21.5t20 51.5q0 31 -19.5 51t-57.5 40zM172 567l102 130 q11 13 35.5 25.5t32.5 2.5l101 -127q5 -7 -11 -20.5t-36.5 -22t-26.5 -0.5l-77 98l-56 -73q-8 -11 -25.5 -20t-32.5 -9q-17 0 -6 16z" />
<glyph d="M263 -241q-65 0 -118 35t-53 95q0 59 38 98t87 53l-12 7q-66 39 -95 73t-29 94v32q0 92 77.5 155t168.5 63q78 0 127.5 -52t49.5 -113v-73q0 -55 -31.5 -101.5t-83.5 -72.5l4 -2q28 -15 37 -20t28 -18t25.5 -22.5t13 -25t6.5 -33.5q0 -69 -70.5 -120.5t-169.5 -51.5z M178 239q0 -44 24 -71t71 -53l78 -43q29 20 42.5 49.5t13.5 54.5v80q0 54 -43.5 102.5t-107.5 49.5q-35 -4 -56.5 -33.5t-21.5 -75.5v-60zM329 -20l-78 42q-61 -33 -61 -95q0 -48 42 -79.5t107 -31.5q27 2 47 21.5t20 51.5q0 31 -19.5 51t-57.5 40zM363 625 q2 -16 -27.5 -36.5t-56.5 -27t-34 4.5q-9 52 20 102.5t77 79.5q29 17 40 7q7 -6 -3 -22q-25 -37 -16 -108z" />
<glyph d="M263 -241q-65 0 -118 35t-53 95q0 59 38 98t87 53l-12 7q-66 39 -95 73t-29 94v32q0 92 77.5 155t168.5 63q78 0 127.5 -52t49.5 -113v-73q0 -55 -31.5 -101.5t-83.5 -72.5l4 -2q28 -15 37 -20t28 -18t25.5 -22.5t13 -25t6.5 -33.5q0 -69 -70.5 -120.5t-169.5 -51.5z M178 239q0 -44 24 -71t71 -53l78 -43q29 20 42.5 49.5t13.5 54.5v80q0 54 -43.5 102.5t-107.5 49.5q-35 -4 -56.5 -33.5t-21.5 -75.5v-60zM329 -20l-78 42q-61 -33 -61 -95q0 -48 42 -79.5t107 -31.5q27 2 47 21.5t20 51.5q0 31 -19.5 51t-57.5 40zM244 562v83q0 19 41 43 t69 24q19 0 19 -13v-83q0 -19 -41 -43t-69 -24q-19 0 -19 13z" />
<glyph d="M81 9q0 14 26 33t50 19h132v314l-140 -87q-50 -29 -70 -19q-8 7 -2.5 15.5t19.5 16.5l227 144q32 19 54 19q10 0 10 -8v-395h153q15 0 15 -9q0 -14 -26 -33t-50 -19h-383q-15 0 -15 9zM266 553v85q0 17 43 42t70 25q19 0 19 -14v-85q0 -17 -43 -42t-70 -25q-19 0 -19 14z " />
<glyph d="M261 583l106 164q10 9 29 3t35 -22.5t8 -25.5l-128 -151q-11 -14 -35 1.5t-15 30.5zM89 156v259q0 12 32 30.5t52 18.5q13 0 13 -10v-252q0 -57 43.5 -105t106.5 -49q43 3 61 37.5t18 69.5v260q0 12 31.5 30.5t51.5 18.5q14 0 14 -10v-248q0 -84 -76 -149t-171 -65 q-75 0 -125.5 51t-50.5 113z" />
<glyph d="M89 156v259q0 12 32 30.5t52 18.5q13 0 13 -10v-252q0 -57 43.5 -105t106.5 -49q43 3 61 37.5t18 69.5v260q0 12 31.5 30.5t51.5 18.5q14 0 14 -10v-248q0 -84 -76 -149t-171 -65q-75 0 -125.5 51t-50.5 113zM183 672q0 11 25 24.5t42 14.5q12 0 12 -8q0 -35 20.5 -64 t54.5 -32q28 4 28 66q0 11 25.5 25t42.5 14q11 0 11 -7q0 -55 -43.5 -99t-107.5 -44q-44 0 -77 31.5t-33 78.5z" />
<glyph d="M179 567l102 130q11 13 35.5 25.5t32.5 2.5l101 -127q5 -7 -11 -20.5t-36.5 -22t-26.5 -0.5l-77 98l-56 -73q-8 -11 -25.5 -20t-32.5 -9q-17 0 -6 16zM89 156v259q0 12 32 30.5t52 18.5q13 0 13 -10v-252q0 -57 43.5 -105t106.5 -49q43 3 61 37.5t18 69.5v260 q0 12 31.5 30.5t51.5 18.5q14 0 14 -10v-248q0 -84 -76 -149t-171 -65q-75 0 -125.5 51t-50.5 113z" />
<glyph d="M183 564v88q0 15 30 34t51 19q14 0 14 -10v-89q0 -15 -30.5 -34t-51.5 -19q-13 0 -13 11zM348 566v89q0 15 30 34t50 19q14 0 14 -11v-88q0 -15 -30.5 -34t-50.5 -19q-13 0 -13 10zM89 156v259q0 12 32 30.5t52 18.5q13 0 13 -10v-252q0 -57 43.5 -105t106.5 -49 q43 3 61 37.5t18 69.5v260q0 12 31.5 30.5t51.5 18.5q14 0 14 -10v-248q0 -84 -76 -149t-171 -65q-75 0 -125.5 51t-50.5 113z" />
<glyph d="M89 156v259q0 12 32 30.5t52 18.5q13 0 13 -10v-252q0 -57 43.5 -105t106.5 -49q43 3 61 37.5t18 69.5v260q0 12 31.5 30.5t51.5 18.5q14 0 14 -10v-248q0 -84 -76 -149t-171 -65q-75 0 -125.5 51t-50.5 113zM190 702q-8 9 8 25.5t35.5 22.5t29.5 -3l105 -164 q6 -9 -4 -21t-23.5 -15t-22.5 4z" />
<glyph d="M89 156v259q0 12 32 30.5t52 18.5q13 0 13 -10v-252q0 -57 43.5 -105t106.5 -49q43 3 61 37.5t18 69.5v260q0 12 31.5 30.5t51.5 18.5q14 0 14 -10v-248q0 -84 -76 -149t-171 -65q-75 0 -125.5 51t-50.5 113zM216 578l70 167q8 10 26.5 7t35.5 -16t11 -23l-95 -159 q-9 -14 -32 -3t-16 27zM325 581l96 164q9 9 27.5 4t33.5 -20t7 -24l-120 -153q-10 -13 -31 1t-13 28z" />
<glyph d="M146 603q0 15 28 34.5t55 19.5h237q16 0 16 -9q0 -15 -28 -35t-55 -20h-237q-16 0 -16 10zM89 156v259q0 12 32 30.5t52 18.5q13 0 13 -10v-252q0 -57 43.5 -105t106.5 -49q43 3 61 37.5t18 69.5v260q0 12 31.5 30.5t51.5 18.5q14 0 14 -10v-248q0 -84 -76 -149t-171 -65 q-75 0 -125.5 51t-50.5 113z" />
<glyph d="M89 156v259q0 12 32 30.5t52 18.5q13 0 13 -10v-252q0 -57 43.5 -105t106.5 -49q43 3 61 37.5t18 69.5v260q0 12 31.5 30.5t51.5 18.5q14 0 14 -10v-248q0 -61 -42 -114t-106 -80q-109 -77 -109 -138q0 -23 14 -40.5t42 -17.5q20 0 40 13q32 21 39 13q10 -13 -19 -37 q-52 -46 -112 -46q-33 0 -57 22.5t-24 60.5q0 73 112 151q-8 -1 -25 -1q-75 0 -125.5 51t-50.5 113z" />
<glyph d="M199 620q0 51 42.5 87.5t90.5 36.5q40 0 69 -26.5t29 -69.5q0 -45 -39.5 -84.5t-87.5 -39.5q-45 0 -74.5 27t-29.5 69zM264 644q3 -32 25 -53t48 -22q15 3 21.5 21t4.5 39q-3 30 -24 49.5t-48 21.5q-30 -8 -27 -56zM89 156v259q0 12 32 30.5t52 18.5q13 0 13 -10v-252 q0 -57 43.5 -105t106.5 -49q43 3 61 37.5t18 69.5v260q0 12 31.5 30.5t51.5 18.5q14 0 14 -10v-248q0 -84 -76 -149t-171 -65q-75 0 -125.5 51t-50.5 113z" />
<glyph d="M89 156v259q0 12 32 30.5t52 18.5q13 0 13 -10v-252q0 -57 43.5 -105t106.5 -49q43 3 61 37.5t18 69.5v260q0 12 31.5 30.5t51.5 18.5q14 0 14 -10v-248q0 -84 -76 -149t-171 -65q-75 0 -125.5 51t-50.5 113zM161 586q7 30 42 64t74 34q24 0 68 -29t55 -34q53 51 67 51 q13 0 9 -11q-7 -30 -40 -64.5t-76 -34.5q-23 0 -67.5 30t-54.5 34q-52 -52 -67 -52q-13 0 -10 12z" />
<glyph d="M84 207q0 13 25 33t48 20h101l103 135h-271q-15 0 -15 9q0 14 26 33t50 19h351q10 0 12.5 -7t-3.5 -15l-132 -174h106q15 0 15 -9q0 -13 -25 -32.5t-48 -19.5h-95l-104 -138h282q15 0 15 -9q0 -14 -25.5 -33t-50.5 -19h-365q-10 0 -10.5 8t5.5 16l133 175h-113 q-15 0 -15 8zM252 583l106 164q10 9 29 3t35 -22.5t8 -25.5l-128 -151q-11 -14 -35 1.5t-15 30.5z" />
<glyph d="M84 207q0 13 25 33t48 20h101l103 135h-271q-15 0 -15 9q0 14 26 33t50 19h351q10 0 12.5 -7t-3.5 -15l-132 -174h106q15 0 15 -9q0 -13 -25 -32.5t-48 -19.5h-95l-104 -138h282q15 0 15 -9q0 -14 -25.5 -33t-50.5 -19h-365q-10 0 -10.5 8t5.5 16l133 175h-113 q-15 0 -15 8zM185 681q-5 7 11.5 21t36.5 22t26 0l77 -98l56 74q8 11 26 19.5t32 8.5q17 0 6 -16l-102 -130q-10 -13 -35 -25.5t-33 -2.5z" />
<glyph d="M84 207q0 13 25 33t48 20h101l103 135h-271q-15 0 -15 9q0 14 26 33t50 19h351q10 0 12.5 -7t-3.5 -15l-132 -174h106q15 0 15 -9q0 -13 -25 -32.5t-48 -19.5h-95l-104 -138h282q15 0 15 -9q0 -14 -25.5 -33t-50.5 -19h-365q-10 0 -10.5 8t5.5 16l133 175h-113 q-15 0 -15 8zM246 562v83q0 19 41 43t69 24q19 0 19 -13v-83q0 -19 -41 -43t-69 -24q-19 0 -19 13z" />
<glyph d="M49 9q0 14 26 33t50 19h42v314l-39 -23q-50 -29 -70 -19q-8 7 -2.5 15.5t19.5 16.5l126 80q32 19 50 19q10 0 10 -8v-395h103q15 0 15 -9q0 -14 -26 -33t-50 -19h-239q-15 0 -15 9zM179 -103q0 12 31.5 30.5t51.5 18.5q14 0 14 -11q0 -46 32 -82t81 -37q58 5 58 96v462 l-38 -22q-48 -30 -69 -18q-8 7 -2.5 15t18.5 16l125 80q32 19 50 19q10 0 10 -8v-509q0 -77 -64.5 -132.5t-145.5 -55.5q-65 0 -108.5 41.5t-43.5 96.5zM130 583l106 164q10 9 29 3t35 -22.5t8 -25.5l-128 -151q-11 -14 -35 1.5t-15 30.5zM410 583l106 164q10 9 29 3 t35 -22.5t8 -25.5l-128 -151q-11 -14 -35 1.5t-15 30.5z" />
<glyph d="M462 -2l-68 190h-200l-57 -140q-8 -20 -36 -38t-47 -18q-16 0 -11 11l209 494q13 31 38.5 51t46.5 20q14 0 22 -19l195 -499q7 -18 -25 -38t-55 -20q-10 0 -12 6zM301 449l-82 -200h154z" />
<glyph d="M94 4v357q0 85 70 146t171 61q77 0 124 -51t47 -123v-348q0 -15 -31.5 -34.5t-53.5 -19.5q-16 0 -16 12v235h-211v-192q0 -15 -31.5 -35t-53.5 -20q-15 0 -15 12zM194 300h211v56q0 63 -40 104.5t-98 44.5q-29 -3 -51 -29t-22 -63v-113z" />
<glyph d="M304 0h-168q-14 0 -14 10v494q0 16 31 36t55 20h119q82 0 121.5 -37t39.5 -86q0 -75 -67 -116q57 -9 94 -45t37 -99q0 -83 -70.5 -130t-177.5 -47zM223 61h161q36 4 52 24.5t16 63.5q0 59 -43.5 91t-113.5 32h-72v-211zM223 500v-169h100q67 6 67 75q0 43 -31 68.5 t-86 25.5h-50z" />
<glyph d="M290 -8q-68 0 -121.5 45t-53.5 129v196q0 86 71 146t172 60q79 0 119 -43.5t40 -103.5q0 -17 -34.5 -39.5t-55.5 -22.5q-11 2 -11 10q0 55 -34.5 94.5t-95.5 42.5q-32 -3 -51 -31t-19 -67v-203q0 -64 41 -105t99 -44q81 6 81 115q0 15 37.5 37.5t60.5 23.5q15 0 15 -10 q0 -90 -70 -160t-190 -70z" />
<glyph d="M29 9q0 12 20.5 28.5t43.5 20.5h20v441h-52q-15 0 -15 9q0 14 27 33t52 19h220q76 0 130 -52t54 -137v-160q0 -92 -74.5 -151.5t-173.5 -59.5h-237q-15 0 -15 9zM213 61h142q35 5 54 35.5t19 71.5v170q0 64 -42.5 112.5t-102.5 51.5h-70v-441z" />
<glyph d="M106 9v496q0 16 29 35.5t53 19.5h157q75 0 129.5 -55t54.5 -140v-147q0 -93 -75 -155.5t-173 -62.5h-160q-15 0 -15 9zM206 63h149q33 5 53 38t20 74v157q0 65 -44 115.5t-106 50.5h-72v-435z" />
<glyph d="M459 0h-296q-15 0 -15 9v241h-70q-15 0 -15 9q0 14 26.5 33t52.5 19h6v194q0 16 29 35.5t53 19.5h293q15 0 15 -9q0 -14 -26.5 -33t-52.5 -19h-211v-188h196q16 0 16 -10q0 -14 -27 -32.5t-53 -18.5h-132v-189h275q16 0 16 -9q0 -14 -27 -33t-53 -19z" />
<glyph d="M126 9v496q0 16 29 35.5t53 19.5h306q15 0 15 -9q0 -14 -26.5 -33t-52.5 -19h-224v-188h209q16 0 16 -10q0 -14 -26.5 -32.5t-52.5 -18.5h-146v-189h289q15 0 15 -9q0 -14 -26.5 -33t-52.5 -19h-310q-15 0 -15 9z" />
<glyph d="M49 258q0 14 26.5 33t52.5 19h23v195q0 16 29.5 35.5t52.5 19.5h310q15 0 15 -9q0 -14 -26.5 -33t-52.5 -19h-227v-189h223q16 0 16 -9q0 -14 -27 -33t-53 -19h-159v-202q0 -15 -32 -35t-54 -20q-15 0 -15 12v245h-87q-15 0 -15 9z" />
<glyph d="M135 4v501q0 16 29.5 35.5t53.5 19.5h322q16 0 16 -9q0 -14 -27 -33t-53 -19h-240v-189h237q15 0 15 -9q0 -14 -26.5 -33t-52.5 -19h-173v-202q0 -15 -32 -35t-54 -20q-15 0 -15 12z" />
<glyph d="M268 -8q-67 0 -116.5 44.5t-49.5 129.5v196q0 86 71 146t172 60q80 0 119.5 -42.5t39.5 -104.5q0 -17 -34.5 -39.5t-55.5 -22.5q-11 0 -11 10q0 56 -34 95t-97 42q-31 -3 -50.5 -31t-19.5 -67v-204q0 -64 40 -105t96 -44q41 4 66 31t25 73v41l-37 -28q-39 -29 -58 -15 q-16 13 12 34l110 82q54 41 69 26q3 -3 3 -8l1 -103q1 -80 -74 -138t-187 -58z" />
<glyph d="M271 -8q-72 0 -122 44.5t-50 129.5v196q0 86 71 146t172 60q80 0 119.5 -42.5t39.5 -104.5q0 -17 -34.5 -39.5t-55.5 -22.5q-11 0 -11 10q0 56 -34 95t-97 42q-29 -3 -49.5 -32t-20.5 -66v-204q0 -64 39.5 -105t95.5 -44q36 3 62 48.5t14 101.5l-6 25q-4 16 30 37t53 21 q11 0 12 -8l46 -231q3 -16 -30.5 -36.5t-52.5 -20.5q-11 0 -12 8l-14 70q-61 -78 -165 -78z" />
<glyph d="M95 3v510q0 16 31.5 35.5t53.5 19.5q15 0 15 -11v-246h209v202q0 16 31.5 35.5t53.5 19.5q15 0 15 -11v-510q0 -16 -31.5 -35.5t-53.5 -19.5q-15 0 -15 11v247h-209v-203q0 -16 -31 -35.5t-53 -19.5q-16 0 -16 11z" />
<glyph d="M132 3v247h-104q-16 0 -16 9q0 13 22.5 30t46.5 20h51v204q0 16 31.5 35.5t54.5 19.5q15 0 15 -11v-246h137v202q0 16 31.5 35.5t54.5 19.5q15 0 15 -11v-246h103q16 0 16 -10q0 -13 -21.5 -29.5t-45.5 -20.5h-52v-204q0 -16 -31.5 -35.5t-54.5 -19.5q-15 0 -15 11v247 h-137v-203q0 -16 -31.5 -35.5t-54.5 -19.5q-15 0 -15 11z" />
<glyph d="M78 9q0 14 26.5 33t52.5 19h95v438h-137q-16 0 -16 9q0 14 27 33t53 19h314q15 0 15 -9q0 -14 -26.5 -33t-52.5 -19h-76v-438h152q15 0 15 -9q0 -14 -26.5 -33t-52.5 -19h-348q-15 0 -15 9z" />
<glyph d="M239 -8q-67 0 -121 53t-54 127q0 14 32.5 33.5t53.5 19.5q14 0 14 -11q0 -59 44 -108.5t102 -50.5q31 3 51 30.5t20 65.5v362q0 16 31.5 35.5t54.5 19.5q15 0 15 -11v-352q0 -85 -70.5 -149t-172.5 -64z" />
<glyph d="M221 335l196 197q36 36 75 36q12 0 13 -7.5t-8 -17.5l-208 -210l282 -279q3 -3 3 -8q0 -15 -27 -34.5t-47 -19.5q-8 0 -15 7l-262 267h-2v-218q0 -16 -32 -36t-54 -20q-15 0 -15 11v510q0 16 31.5 35.5t54.5 19.5q15 0 15 -11v-222z" />
<glyph d="M133 10l13 503q1 17 32.5 36t53.5 19q15 0 15 -10l-14 -497h301q16 0 16 -9q0 -14 -26.5 -33t-52.5 -19h-323q-15 0 -15 10z" />
<glyph d="M311 245l99 271q8 21 36 36.5t53 15.5q12 0 12 -10v-511q0 -16 -28.5 -35.5t-48.5 -19.5q-14 0 -14 11l3 418l-88 -251q-4 -11 -21 -23.5t-29 -12.5t-18 16l-99 272l8 -375q1 -16 -27 -35.5t-48 -19.5q-13 0 -13 11l3 511q0 16 29 35t50 19q10 0 14 -7z" />
<glyph d="M421 117l-7 396q0 16 28.5 35.5t48.5 19.5q14 0 14 -11v-508q0 -17 -31 -37t-52 -20q-10 0 -12 6l-231 441l6 -391q1 -16 -27.5 -36t-49.5 -20q-13 0 -13 11v509q0 16 30.5 36t51.5 20q11 0 12 -6z" />
<glyph d="M504 390v-184q0 -88 -69.5 -151t-170.5 -63q-73 0 -120.5 52t-47.5 126v186q0 86 69.5 149t169.5 63q76 0 122.5 -52.5t46.5 -125.5zM196 408v-193q0 -68 38 -111.5t99 -48.5q29 4 49.5 29.5t20.5 65.5v201q0 64 -39 107.5t-97 46.5q-30 -3 -50.5 -29t-20.5 -68z" />
<glyph d="M117 3v502q0 14 33.5 34.5t58.5 20.5h156q81 0 127.5 -45.5t46.5 -114.5v-13q0 -85 -75 -139.5t-173 -54.5h-74v-145q0 -16 -31.5 -36t-53.5 -20q-15 0 -15 11zM217 254h144q30 4 53.5 32t23.5 63v12q0 65 -40.5 102t-104.5 37h-76v-246z" />
<glyph d="M504 390v-184q0 -80 -59 -141l62 -70q3 -3 3 -8q-1 -20 -37.5 -41t-48.5 -6l-62 70q-49 -18 -98 -18q-73 0 -120.5 52t-47.5 126v186q0 86 69.5 149t169.5 63q76 0 122.5 -52.5t46.5 -125.5zM196 408v-193q0 -65 35 -108t92 -51l-46 53q-3 3 -3 8q0 20 36 41.5t48 5.5 l41 -47q4 20 4 33v201q0 64 -39 107.5t-97 46.5q-30 -3 -50.5 -29t-20.5 -68z" />
<glyph d="M213 267h-2v-219q0 -16 -32 -36t-54 -20q-15 0 -15 11v501q0 18 29 37t54 19h149q81 0 120 -38.5t39 -91.5q0 -60 -48 -104t-114 -56l221 -216q14 -14 -18.5 -38t-51.5 -24q-9 0 -15 7zM211 319h123q68 9 68 79q0 48 -32.5 75t-91.5 27h-67v-181z" />
<glyph d="M269 -8q-84 0 -141 49t-62 115q-1 16 30 34t53 18q13 0 13 -9q0 -52 45 -99.5t122 -48.5q94 3 94 81q0 37 -18 57.5t-60 37.5l-138 59q-101 43 -101 127q0 63 62.5 109t146.5 46q73 0 121 -41.5t48 -98.5q0 -15 -30 -33t-51 -18q-13 0 -14 10q-1 53 -36.5 87t-91.5 36 q-59 -6 -59 -66q0 -31 17 -50.5t52 -34.5l150 -62q46 -20 74 -52t28 -72q0 -60 -39.5 -102.5t-95 -60.5t-119.5 -18z" />
<glyph d="M250 3v496h-199q-16 0 -16 9q0 14 27 33t53 19h441q16 0 16 -9q0 -14 -27 -33t-53 -19h-141v-452q0 -16 -31.5 -35.5t-54.5 -19.5q-15 0 -15 11z" />
<glyph d="M264 -8q-74 0 -121 50.5t-47 123.5v347q0 16 31.5 35.5t54.5 19.5q14 0 14 -11v-345q0 -68 37.5 -110t99.5 -47q29 4 49.5 30t20.5 62v366q0 16 31.5 35.5t54.5 19.5q15 0 15 -11v-354q0 -88 -69.5 -149.5t-170.5 -61.5z" />
<glyph d="M257 -8q-74 0 -117.5 50t-43.5 133v338q0 16 31.5 35.5t54.5 19.5q14 0 14 -11v-340q0 -73 35.5 -117t97.5 -45q28 2 51 23t23 53v382q0 16 31.5 35.5t54.5 19.5q15 0 15 -11v-510q0 -16 -31 -35.5t-53 -19.5q-15 0 -15 11l-1 34q-61 -45 -147 -45z" />
<glyph d="M306 119l144 393q6 20 34 38t48 18q16 0 11 -11l-177 -460q-17 -48 -43 -76.5t-54 -28.5q-14 0 -22 19l-194 499q-7 18 24 38t54 20q9 0 11 -6z" />
<glyph d="M293 324l-107 -280q-8 -22 -32 -37t-50 -15q-11 0 -11 10l-7 511q0 16 29 35.5t50 19.5q12 0 12 -11l1 -397l86 235q5 15 21.5 26.5t30.5 11.5q10 0 14.5 -4.5t9.5 -18.5l84 -241v344q0 16 27.5 35.5t47.5 19.5q13 0 13 -11l-9 -510q0 -16 -29.5 -35.5t-48.5 -19.5 q-9 0 -13 9z" />
<glyph d="M430 -2l-146 218l-110 -176q-12 -18 -38 -33t-48 -15q-9 0 -12.5 4t1.5 13l168 263l-160 239q-10 15 24.5 36t53.5 21q7 0 12 -6l139 -212l109 171q13 19 40 33t52 14q18 0 6 -17l-168 -258l168 -247q11 -16 -22.5 -35t-56.5 -19q-7 0 -12 6z" />
<glyph d="M112 9q0 14 27 33t53 19h60v187l-190 258q-10 14 18.5 38t51.5 24q9 0 14 -6l168 -236l138 198q15 22 38.5 33t43.5 11q22 0 12 -17l-193 -274v-216h111q16 0 16 -9q0 -14 -27 -33t-53 -19h-272q-16 0 -16 9z" />
<glyph d="M80 508q0 15 26.5 33.5t52.5 18.5h357q10 0 14 -5t-1 -13l-323 -481h331q15 0 15 -9q0 -14 -26.5 -33t-52.5 -19h-403q-9 0 -12.5 6t1.5 15l321 478h-285q-15 0 -15 9z" />
<glyph d="M473 0h-403q-9 0 -12.5 6t1.5 15l154 229h-121q-15 0 -15 9q0 14 26.5 33t52.5 19h98l126 188h-285q-15 0 -15 9q0 15 26.5 33.5t52.5 18.5h357q10 0 14 -5t-1 -13l-155 -231h126q15 0 15 -10q0 -14 -26.5 -32.5t-52.5 -18.5h-103l-127 -189h331q15 0 15 -9 q0 -14 -26.5 -33t-52.5 -19z" />
<glyph d="M-15 3l235 490q15 33 40 50t48 17h223q15 0 15 -9q0 -14 -26.5 -33t-52.5 -19h-90v-188h119q15 0 15 -9q0 -14 -26.5 -33.5t-52.5 -19.5h-55v-188h155q15 0 15 -10q0 -14 -26.5 -32.5t-52.5 -18.5h-162q-15 0 -15 9v240h-115l-97 -203q-9 -20 -36.5 -37t-46.5 -17 q-17 0 -11 11zM202 309h89v185z" />
<glyph d="M95 3v509q0 16 30.5 36t51.5 20q9 0 12 -6l231 -377l-6 328q0 16 28.5 35.5t48.5 19.5q14 0 14 -11v-641q0 -57 -51 -107t-124 -50q-46 0 -78 32t-34 72q-1 19 30 39.5t51 21.5q9 0 10 -7q4 -38 25.5 -63.5t54.5 -28.5q29 6 29 83l-1 165l-238 370l6 -395 q1 -16 -27.5 -36t-49.5 -20q-13 0 -13 11z" />
<glyph d="M112 4v258h-80q-16 0 -16 9q0 15 27 34.5t53 19.5h16v22q0 104 57.5 162.5t155.5 58.5q70 0 110.5 -42t40.5 -89q0 -77 -67 -118q57 -9 94 -45t37 -99q0 -75 -74.5 -125t-187.5 -50q-17 0 -8 18q11 25 43 34q9 2 19 2q108 2 108 95q0 58 -42 85.5t-111 27.5h-76v-215 q0 -15 -31 -35t-53 -20q-15 0 -15 12zM211 399v-74h100q66 6 66 82q0 42 -29.5 70.5t-74.5 28.5q-32 -2 -47 -26.5t-15 -80.5z" />
<glyph d="M29 9q0 12 20.5 28.5t43.5 20.5h20v186h-85q-16 0 -16 8q0 15 27 34t53 19h21v194h-52q-15 0 -15 9q0 14 27 33t52 19h220q76 0 130 -52t54 -137v-160q0 -92 -74.5 -151.5t-173.5 -59.5h-237q-15 0 -15 9zM213 61h142q35 5 54 35.5t19 71.5v170q0 64 -42.5 112.5 t-102.5 51.5h-70v-197h101q16 0 16 -10q0 -14 -27 -32.5t-53 -18.5h-37v-183z" />
<glyph d="M-7 9q0 14 25 32.5t50 18.5h42v439h-86q-16 0 -16 9q0 14 27 33t53 19h216q16 0 16 -9q0 -15 -26 -33.5t-52 -18.5h-40v-438h102q16 0 16 -9q0 -15 -27 -33.5t-54 -18.5h-230q-16 0 -16 9zM358 -241q-46 0 -78 32t-34 72q-1 19 30.5 40t51.5 21q9 0 9 -6q4 -39 26 -64.5 t55 -28.5q27 12 27 103v580q0 16 28.5 38t48.5 22q11 0 11 -8v-644q0 -58 -50.5 -107.5t-124.5 -49.5z" />
<glyph d="M72 162v190q0 85 66 146.5t159 61.5h228q16 0 16 -9q0 -14 -26.5 -33t-52.5 -19h-91v-188h119q16 0 16 -9q0 -14 -26.5 -33.5t-52.5 -19.5h-56v-188h155q16 0 16 -10q0 -14 -27 -32.5t-53 -18.5h-233q-74 0 -115.5 44.5t-41.5 117.5zM161 208q0 -68 32 -106.5t92 -44.5 v441h-53q-29 -4 -50 -30t-21 -64v-196z" />
<glyph d="M504 390v-184q0 -88 -69.5 -151t-170.5 -63q-64 0 -109 40l-31 -46q-33 -45 -65 -45q-6 0 -8 3t0 8t4 9t6 10l65 96q-30 46 -30 103v186q0 86 69.5 149t169.5 63q61 0 105 -36l29 42q33 45 65 45q6 0 8 -3t0 -8t-4 -9t-6 -10l-61 -90q33 -49 33 -109zM403 351q0 18 -5 40 l-180 -266q38 -64 115 -70q29 4 49.5 29.5t20.5 65.5v201zM196 408v-193q0 -21 3 -40l179 264q-39 61 -111 66q-30 -3 -50.5 -29t-20.5 -68z" />
<glyph d="M107 3v509q0 16 32 36t54 20q15 0 15 -11v-88h148q81 0 127 -45t46 -114v-13q0 -86 -75 -140.5t-172 -54.5h-74v-54q0 -16 -32 -36t-54 -20q-15 0 -15 11zM208 163h144q30 5 53.5 33t23.5 63v12q0 65 -40.5 101.5t-105.5 36.5h-75v-246z" />
<glyph d="M230 663q0 5 3 10l133 145q4 4 10 4q16 0 36 -20t20 -34q0 -3 -4 -9l-152 -124q-6 -4 -10 -4q-12 0 -24 10.5t-12 21.5zM462 -2l-68 190h-200l-57 -140q-8 -20 -36 -38t-47 -18q-16 0 -11 11l209 494q13 31 38.5 51t46.5 20q14 0 22 -19l195 -499q7 -18 -25 -38t-55 -20 q-10 0 -12 6zM301 449l-82 -200h154z" />
<glyph d="M462 -2l-68 190h-200l-57 -140q-8 -20 -36 -38t-47 -18q-16 0 -11 11l209 494q13 31 38.5 51t46.5 20q14 0 22 -19l195 -499q7 -18 -25 -38t-55 -20q-10 0 -12 6zM301 449l-82 -200h154zM181 764q0 11 25.5 25.5t42.5 14.5q11 0 11 -8q0 -34 20 -62t55 -31q27 4 27 62 q0 12 25.5 26.5t42.5 14.5q11 0 11 -7q0 -55 -44.5 -98t-104.5 -43q-46 0 -78.5 31t-32.5 75z" />
<glyph d="M173 667l104 117q13 13 37.5 24.5t33.5 2.5l109 -112q6 -6 -10 -20.5t-37.5 -23.5t-28.5 -2l-86 88l-58 -65q-9 -12 -27 -19.5t-33 -7.5q-20 0 -4 18zM462 -2l-68 190h-200l-57 -140q-8 -20 -36 -38t-47 -18q-16 0 -11 11l209 494q13 31 38.5 51t46.5 20q14 0 22 -19 l195 -499q7 -18 -25 -38t-55 -20q-10 0 -12 6zM301 449l-82 -200h154z" />
<glyph d="M462 -2l-68 190h-200l-57 -140q-8 -20 -36 -38t-47 -18q-16 0 -11 11l209 494q13 31 38.5 51t46.5 20q14 0 22 -19l195 -499q7 -18 -25 -38t-55 -20q-10 0 -12 6zM301 449l-82 -200h154zM179 661v85q0 15 31 34t53 19q14 0 14 -10v-85q0 -16 -30.5 -34.5t-52.5 -19.5 q-15 0 -15 11zM347 663v86q0 15 31 34t53 19q14 0 14 -11v-85q0 -15 -31 -34t-52 -19q-15 0 -15 10z" />
<glyph d="M462 -2l-68 190h-200l-57 -140q-8 -20 -36 -38t-47 -18q-16 0 -11 11l209 494q13 31 38.5 51t46.5 20q14 0 22 -19l195 -499q7 -18 -25 -38t-55 -20q-10 0 -12 6zM191 767q0 15 20 35t35 20q7 0 10 -4l133 -145q4 -4 4 -9q0 -11 -12.5 -22t-23.5 -11q-7 0 -10 4l-153 124 q-3 3 -3 8zM301 449l-82 -200h154z" />
<glyph d="M462 -2l-68 190h-200l-57 -140q-8 -20 -36 -38t-47 -18q-16 0 -11 11l209 494q13 31 38.5 51t46.5 20q14 0 22 -19l195 -499q7 -18 -25 -38t-55 -20q-10 0 -12 6zM301 449l-82 -200h154zM137 701q0 15 28 34.5t55 19.5h251q17 0 17 -9q0 -15 -28.5 -35t-55.5 -20h-251 q-16 0 -16 10z" />
<glyph d="M335 -158q0 76 125 160l-66 186h-200l-57 -140q-8 -20 -36 -38t-47 -18q-16 0 -11 11l209 494q13 31 38.5 51t46.5 20q14 0 22 -19l195 -499q5 -13 -11 -27t-40 -24q-91 -69 -91 -125q0 -23 14 -40.5t42 -17.5q20 0 40 13q32 21 39 13q10 -13 -19 -37q-52 -46 -112 -46 q-33 0 -57 22.5t-24 60.5zM301 449l-82 -200h154z" />
<glyph d="M190 717q0 51 42.5 87.5t90.5 36.5q40 0 69 -26.5t29 -69.5q0 -45 -39.5 -84.5t-87.5 -39.5q-45 0 -74.5 27t-29.5 69zM255 740q3 -32 25 -52.5t48 -21.5q15 4 21 21t4 38q-2 30 -23 49.5t-48 21.5q-15 -4 -21.5 -21t-5.5 -35zM462 -2l-68 190h-200l-57 -140 q-8 -20 -36 -38t-47 -18q-16 0 -11 11l209 494q13 31 38.5 51t46.5 20q14 0 22 -19l195 -499q7 -18 -25 -38t-55 -20q-10 0 -12 6zM301 449l-82 -200h154z" />
<glyph d="M462 -2l-68 190h-200l-57 -140q-8 -20 -36 -38t-47 -18q-16 0 -11 11l209 494q13 31 38.5 51t46.5 20q14 0 22 -19l195 -499q7 -18 -25 -38t-55 -20q-10 0 -12 6zM301 449l-82 -200h154zM155 684q7 31 42.5 65t74.5 34q26 0 73 -30t55 -33q4 4 11.5 11t11.5 10.5t10 9 t10 8.5t9 6t9 4.5t7 1.5q13 0 9 -12q-7 -30 -40.5 -64.5t-77.5 -34.5q-25 0 -71.5 30.5t-55.5 33.5q-49 -51 -67 -51q-14 0 -10 11z" />
<glyph d="M94 4v357q0 85 70 146t171 61q77 0 124 -51t47 -123v-348q0 -15 -31.5 -34.5t-53.5 -19.5q-16 0 -16 12v235h-211v-192q0 -15 -31.5 -35t-53.5 -20q-15 0 -15 12zM194 300h211v56q0 63 -40 104.5t-98 44.5q-29 -3 -51 -29t-22 -63v-113zM230 663q0 5 3 10l133 145 q4 4 10 4q16 0 36 -20t20 -34q0 -3 -4 -9l-152 -124q-6 -4 -10 -4q-12 0 -24 10.5t-12 21.5z" />
<glyph d="M94 4v357q0 85 70 146t171 61q77 0 124 -51t47 -123v-348q0 -15 -31.5 -34.5t-53.5 -19.5q-16 0 -16 12v235h-211v-192q0 -15 -31.5 -35t-53.5 -20q-15 0 -15 12zM194 300h211v56q0 63 -40 104.5t-98 44.5q-29 -3 -51 -29t-22 -63v-113zM179 764q0 11 25.5 25.5 t42.5 14.5q11 0 11 -8q0 -34 20 -62t55 -31q27 4 27 62q0 12 25.5 26.5t42.5 14.5q11 0 11 -7q0 -55 -44.5 -98t-104.5 -43q-46 0 -78.5 31t-32.5 75z" />
<glyph d="M94 4v357q0 85 70 146t171 61q77 0 124 -51t47 -123v-348q0 -15 -31.5 -34.5t-53.5 -19.5q-16 0 -16 12v235h-211v-192q0 -15 -31.5 -35t-53.5 -20q-15 0 -15 12zM194 300h211v56q0 63 -40 104.5t-98 44.5q-29 -3 -51 -29t-22 -63v-113zM166 667l104 117q13 13 37.5 24.5 t33.5 2.5l109 -112q6 -6 -10 -20.5t-37.5 -23.5t-28.5 -2l-86 88l-58 -65q-9 -12 -27 -19.5t-33 -7.5q-20 0 -4 18z" />
<glyph d="M94 4v357q0 85 70 146t171 61q77 0 124 -51t47 -123v-348q0 -15 -31.5 -34.5t-53.5 -19.5q-16 0 -16 12v235h-211v-192q0 -15 -31.5 -35t-53.5 -20q-15 0 -15 12zM194 300h211v56q0 63 -40 104.5t-98 44.5q-29 -3 -51 -29t-22 -63v-113zM177 661v85q0 15 31 34t53 19 q14 0 14 -10v-85q0 -16 -30.5 -34.5t-52.5 -19.5q-15 0 -15 11zM345 663v86q0 15 31 34t53 19q14 0 14 -11v-85q0 -15 -31 -34t-52 -19q-15 0 -15 10z" />
<glyph d="M94 4v357q0 85 70 146t171 61q77 0 124 -51t47 -123v-348q0 -15 -31.5 -34.5t-53.5 -19.5q-16 0 -16 12v235h-211v-192q0 -15 -31.5 -35t-53.5 -20q-15 0 -15 12zM194 300h211v56q0 63 -40 104.5t-98 44.5q-29 -3 -51 -29t-22 -63v-113zM195 767q0 15 20 35t35 20 q7 0 10 -4l133 -145q4 -4 4 -9q0 -11 -12.5 -22t-23.5 -11q-7 0 -10 4l-153 124q-3 3 -3 8z" />
<glyph d="M94 4v357q0 85 70 146t171 61q77 0 124 -51t47 -123v-348q0 -15 -31.5 -34.5t-53.5 -19.5q-16 0 -16 12v235h-211v-192q0 -15 -31.5 -35t-53.5 -20q-15 0 -15 12zM194 300h211v56q0 63 -40 104.5t-98 44.5q-29 -3 -51 -29t-22 -63v-113zM131 701q0 15 28 34.5t55 19.5 h251q17 0 17 -9q0 -15 -28.5 -35t-55.5 -20h-251q-16 0 -16 10z" />
<glyph d="M286 -158q0 73 120 157q-1 1 -1 5v235h-211v-192q0 -15 -31.5 -35t-53.5 -20q-15 0 -15 12v357q0 85 70 146t171 61q77 0 124 -51t47 -123v-348q0 -10 -14.5 -22.5t-33.5 -21.5q-95 -71 -95 -128q0 -23 14 -40.5t42 -17.5q20 0 40 13q32 21 39 13q10 -13 -19 -37 q-52 -46 -112 -46q-33 0 -57 22.5t-24 60.5zM194 300h211v56q0 63 -40 104.5t-98 44.5q-29 -3 -51 -29t-22 -63v-113z" />
<glyph d="M190 717q0 51 42.5 87.5t90.5 36.5q40 0 69 -26.5t29 -69.5q0 -45 -39.5 -84.5t-87.5 -39.5q-45 0 -74.5 27t-29.5 69zM255 740q3 -32 25 -52.5t48 -21.5q15 4 21 21t4 38q-2 30 -23 49.5t-48 21.5q-15 -4 -21.5 -21t-5.5 -35zM94 4v357q0 85 70 146t171 61q77 0 124 -51 t47 -123v-348q0 -15 -31.5 -34.5t-53.5 -19.5q-16 0 -16 12v235h-211v-192q0 -15 -31.5 -35t-53.5 -20q-15 0 -15 12zM194 300h211v56q0 63 -40 104.5t-98 44.5q-29 -3 -51 -29t-22 -63v-113z" />
<glyph d="M94 4v357q0 85 70 146t171 61q77 0 124 -51t47 -123v-348q0 -15 -31.5 -34.5t-53.5 -19.5q-16 0 -16 12v235h-211v-192q0 -15 -31.5 -35t-53.5 -20q-15 0 -15 12zM194 300h211v56q0 63 -40 104.5t-98 44.5q-29 -3 -51 -29t-22 -63v-113zM149 684q7 31 42.5 65t74.5 34 q26 0 73 -30t55 -33q4 4 11.5 11t11.5 10.5t10 9t10 8.5t9 6t9 4.5t7 1.5q13 0 9 -12q-7 -30 -40.5 -64.5t-77.5 -34.5q-25 0 -71.5 30.5t-55.5 33.5q-49 -51 -67 -51q-14 0 -10 11z" />
<glyph d="M290 -8q-68 0 -121.5 45t-53.5 129v196q0 86 71 146t172 60q79 0 119 -43.5t40 -103.5q0 -17 -34.5 -39.5t-55.5 -22.5q-11 2 -11 10q0 55 -34.5 94.5t-95.5 42.5q-32 -3 -51 -31t-19 -67v-203q0 -64 41 -105t99 -44q81 6 81 115q0 15 37.5 37.5t60.5 23.5q15 0 15 -10 q0 -90 -70 -160t-190 -70zM245 663q0 5 3 10l133 145q4 4 10 4q16 0 36 -20t20 -34q0 -3 -4 -9l-152 -124q-6 -4 -10 -4q-12 0 -24 10.5t-12 21.5z" />
<glyph d="M290 -8q-68 0 -121.5 45t-53.5 129v196q0 86 71 146t172 60q79 0 119 -43.5t40 -103.5q0 -17 -34.5 -39.5t-55.5 -22.5q-11 2 -11 10q0 55 -34.5 94.5t-95.5 42.5q-32 -3 -51 -31t-19 -67v-203q0 -64 41 -105t99 -44q81 6 81 115q0 15 37.5 37.5t60.5 23.5q15 0 15 -10 q0 -90 -70 -160t-190 -70zM187 763q-6 6 10 20.5t38 23t29 1.5l86 -87l57 64q10 11 28 19.5t32 8.5q18 -1 3 -20l-103 -115q-11 -13 -36 -24.5t-34 -2.5z" />
<glyph d="M290 -8q-68 0 -121.5 45t-53.5 129v196q0 86 71 146t172 60q79 0 119 -43.5t40 -103.5q0 -17 -34.5 -39.5t-55.5 -22.5q-11 2 -11 10q0 55 -34.5 94.5t-95.5 42.5q-32 -3 -51 -31t-19 -67v-203q0 -64 41 -105t99 -44q81 6 81 115q0 15 37.5 37.5t60.5 23.5q15 0 15 -10 q0 -90 -70 -160t-190 -70zM213 -246q0 10 23 14q42 7 72 28t30 50q0 22 -13 34t-34 12q-7 0 -20 -3.5t-20 -3.5q-9 0 -9 6.5t7 13.5q36 39 99 39q32 0 52.5 -16t20.5 -48q0 -55 -61.5 -95.5t-127.5 -42.5q-19 -2 -19 12z" />
<glyph d="M186 667l104 117q13 13 37.5 24.5t33.5 2.5l109 -112q6 -6 -10 -20.5t-37.5 -23.5t-28.5 -2l-86 88l-58 -65q-9 -12 -27 -19.5t-33 -7.5q-20 0 -4 18zM290 -8q-68 0 -121.5 45t-53.5 129v196q0 86 71 146t172 60q79 0 119 -43.5t40 -103.5q0 -17 -34.5 -39.5t-55.5 -22.5 q-11 2 -11 10q0 55 -34.5 94.5t-95.5 42.5q-32 -3 -51 -31t-19 -67v-203q0 -64 41 -105t99 -44q81 6 81 115q0 15 37.5 37.5t60.5 23.5q15 0 15 -10q0 -90 -70 -160t-190 -70z" />
<glyph d="M259 664v83q0 20 41.5 44t69.5 24q19 0 19 -13v-84q0 -20 -41.5 -44t-69.5 -24q-19 0 -19 14zM290 -8q-68 0 -121.5 45t-53.5 129v196q0 86 71 146t172 60q79 0 119 -43.5t40 -103.5q0 -17 -34.5 -39.5t-55.5 -22.5q-11 2 -11 10q0 55 -34.5 94.5t-95.5 42.5 q-32 -3 -51 -31t-19 -67v-203q0 -64 41 -105t99 -44q81 6 81 115q0 15 37.5 37.5t60.5 23.5q15 0 15 -10q0 -90 -70 -160t-190 -70z" />
<glyph d="M29 9q0 12 20.5 28.5t43.5 20.5h20v441h-52q-15 0 -15 9q0 14 27 33t52 19h220q76 0 130 -52t54 -137v-160q0 -92 -74.5 -151.5t-173.5 -59.5h-237q-15 0 -15 9zM213 61h142q35 5 54 35.5t19 71.5v170q0 64 -42.5 112.5t-102.5 51.5h-70v-441zM144 763q-6 6 10 20.5 t38 23t29 1.5l86 -87l57 64q10 11 28 19.5t32 8.5q18 -1 3 -20l-103 -115q-11 -13 -36 -24.5t-34 -2.5z" />
<glyph d="M29 9q0 12 20.5 28.5t43.5 20.5h20v186h-85q-16 0 -16 8q0 15 27 34t53 19h21v194h-52q-15 0 -15 9q0 14 27 33t52 19h220q76 0 130 -52t54 -137v-160q0 -92 -74.5 -151.5t-173.5 -59.5h-237q-15 0 -15 9zM213 61h142q35 5 54 35.5t19 71.5v170q0 64 -42.5 112.5 t-102.5 51.5h-70v-197h101q16 0 16 -10q0 -14 -27 -32.5t-53 -18.5h-37v-183z" />
<glyph d="M106 9v496q0 16 29 35.5t53 19.5h157q75 0 129.5 -55t54.5 -140v-147q0 -93 -75 -155.5t-173 -62.5h-160q-15 0 -15 9zM206 63h149q33 5 53 38t20 74v157q0 65 -44 115.5t-106 50.5h-72v-435zM158 763q-6 6 10 20.5t38 23t29 1.5l86 -87l57 64q10 11 28 19.5t32 8.5 q18 -1 3 -20l-103 -115q-11 -13 -36 -24.5t-34 -2.5z" />
<glyph d="M106 9v235h-78q-16 0 -16 8q0 15 27 34t53 19h14v200q0 16 29 35.5t53 19.5h157q75 0 129.5 -55t54.5 -140v-147q0 -93 -75 -155.5t-173 -62.5h-160q-15 0 -15 9zM206 63h149q33 5 53 38t20 74v157q0 65 -44 115.5t-106 50.5h-72v-193h108q16 0 16 -10q0 -14 -27 -32.5 t-53 -18.5h-44v-181z" />
<glyph d="M459 0h-296q-15 0 -15 9v241h-70q-15 0 -15 9q0 14 26.5 33t52.5 19h6v194q0 16 29 35.5t53 19.5h293q15 0 15 -9q0 -14 -26.5 -33t-52.5 -19h-211v-188h196q16 0 16 -10q0 -14 -27 -32.5t-53 -18.5h-132v-189h275q16 0 16 -9q0 -14 -27 -33t-53 -19zM254 663q0 5 3 10 l133 145q4 4 10 4q16 0 36 -20t20 -34q0 -3 -4 -9l-152 -124q-6 -4 -10 -4q-12 0 -24 10.5t-12 21.5z" />
<glyph d="M459 0h-296q-15 0 -15 9v241h-70q-15 0 -15 9q0 14 26.5 33t52.5 19h6v194q0 16 29 35.5t53 19.5h293q15 0 15 -9q0 -14 -26.5 -33t-52.5 -19h-211v-188h196q16 0 16 -10q0 -14 -27 -32.5t-53 -18.5h-132v-189h275q16 0 16 -9q0 -14 -27 -33t-53 -19zM212 764 q0 11 25.5 25.5t42.5 14.5q11 0 11 -8q0 -34 20 -62t55 -31q27 4 27 62q0 12 25.5 26.5t42.5 14.5q11 0 11 -7q0 -55 -44.5 -98t-104.5 -43q-46 0 -78.5 31t-32.5 75z" />
<glyph d="M459 0h-296q-15 0 -15 9v241h-70q-15 0 -15 9q0 14 26.5 33t52.5 19h6v194q0 16 29 35.5t53 19.5h293q15 0 15 -9q0 -14 -26.5 -33t-52.5 -19h-211v-188h196q16 0 16 -10q0 -14 -27 -32.5t-53 -18.5h-132v-189h275q16 0 16 -9q0 -14 -27 -33t-53 -19zM197 763 q-6 6 10 20.5t38 23t29 1.5l86 -87l57 64q10 11 28 19.5t32 8.5q18 -1 3 -20l-103 -115q-11 -13 -36 -24.5t-34 -2.5z" />
<glyph d="M459 0h-296q-15 0 -15 9v241h-70q-15 0 -15 9q0 14 26.5 33t52.5 19h6v194q0 16 29 35.5t53 19.5h293q15 0 15 -9q0 -14 -26.5 -33t-52.5 -19h-211v-188h196q16 0 16 -10q0 -14 -27 -32.5t-53 -18.5h-132v-189h275q16 0 16 -9q0 -14 -27 -33t-53 -19zM195 667l104 117 q13 13 37.5 24.5t33.5 2.5l109 -112q6 -6 -10 -20.5t-37.5 -23.5t-28.5 -2l-86 88l-58 -65q-9 -12 -27 -19.5t-33 -7.5q-20 0 -4 18z" />
<glyph d="M459 0h-296q-15 0 -15 9v241h-70q-15 0 -15 9q0 14 26.5 33t52.5 19h6v194q0 16 29 35.5t53 19.5h293q15 0 15 -9q0 -14 -26.5 -33t-52.5 -19h-211v-188h196q16 0 16 -10q0 -14 -27 -32.5t-53 -18.5h-132v-189h275q16 0 16 -9q0 -14 -27 -33t-53 -19zM374 663v86 q0 15 31 34t53 19q14 0 14 -11v-85q0 -15 -31 -34t-52 -19q-15 0 -15 10zM206 661v85q0 15 31 34t53 19q14 0 14 -10v-85q0 -16 -30.5 -34.5t-52.5 -19.5q-15 0 -15 11z" />
<glyph d="M459 0h-296q-15 0 -15 9v241h-70q-15 0 -15 9q0 14 26.5 33t52.5 19h6v194q0 16 29 35.5t53 19.5h293q15 0 15 -9q0 -14 -26.5 -33t-52.5 -19h-211v-188h196q16 0 16 -10q0 -14 -27 -32.5t-53 -18.5h-132v-189h275q16 0 16 -9q0 -14 -27 -33t-53 -19zM278 664v83 q0 20 41.5 44t69.5 24q19 0 19 -13v-84q0 -20 -41.5 -44t-69.5 -24q-19 0 -19 14z" />
<glyph d="M459 0h-296q-15 0 -15 9v241h-70q-15 0 -15 9q0 14 26.5 33t52.5 19h6v194q0 16 29 35.5t53 19.5h293q15 0 15 -9q0 -14 -26.5 -33t-52.5 -19h-211v-188h196q16 0 16 -10q0 -14 -27 -32.5t-53 -18.5h-132v-189h275q16 0 16 -9q0 -14 -27 -33t-53 -19zM202 767q0 15 20 35 t35 20q7 0 10 -4l133 -145q4 -4 4 -9q0 -11 -12.5 -22t-23.5 -11q-7 0 -10 4l-153 124q-3 3 -3 8z" />
<glyph d="M459 0h-296q-15 0 -15 9v241h-70q-15 0 -15 9q0 14 26.5 33t52.5 19h6v194q0 16 29 35.5t53 19.5h293q15 0 15 -9q0 -14 -26.5 -33t-52.5 -19h-211v-188h196q16 0 16 -10q0 -14 -27 -32.5t-53 -18.5h-132v-189h275q16 0 16 -9q0 -14 -27 -33t-53 -19zM173 701 q0 15 28 34.5t55 19.5h251q17 0 17 -9q0 -15 -28.5 -35t-55.5 -20h-251q-16 0 -16 10z" />
<glyph d="M315 -158q0 76 122 158h-274q-15 0 -15 9v241h-70q-15 0 -15 9q0 14 26.5 33t52.5 19h6v194q0 16 29 35.5t53 19.5h293q15 0 15 -9q0 -14 -26.5 -33t-52.5 -19h-211v-188h196q16 0 16 -10q0 -14 -27 -32.5t-53 -18.5h-132v-189h275q16 0 16 -9t-12 -21t-29 -21 q-106 -76 -106 -136q0 -23 14 -40.5t42 -17.5q20 0 40 13q32 21 39 13q10 -13 -19 -37q-52 -46 -112 -46q-33 0 -57 22.5t-24 60.5z" />
<glyph d="M126 9v496q0 16 29 35.5t53 19.5h306q15 0 15 -9q0 -14 -26.5 -33t-52.5 -19h-224v-188h209q16 0 16 -10q0 -14 -26.5 -32.5t-52.5 -18.5h-146v-189h289q15 0 15 -9q0 -14 -26.5 -33t-52.5 -19h-310q-15 0 -15 9zM244 663q0 5 3 10l133 145q4 4 10 4q16 0 36 -20t20 -34 q0 -3 -4 -9l-152 -124q-6 -4 -10 -4q-12 0 -24 10.5t-12 21.5z" />
<glyph d="M126 9v496q0 16 29 35.5t53 19.5h306q15 0 15 -9q0 -14 -26.5 -33t-52.5 -19h-224v-188h209q16 0 16 -10q0 -14 -26.5 -32.5t-52.5 -18.5h-146v-189h289q15 0 15 -9q0 -14 -26.5 -33t-52.5 -19h-310q-15 0 -15 9zM197 764q0 11 25.5 25.5t42.5 14.5q11 0 11 -8 q0 -34 20 -62t55 -31q27 4 27 62q0 12 25.5 26.5t42.5 14.5q11 0 11 -7q0 -55 -44.5 -98t-104.5 -43q-46 0 -78.5 31t-32.5 75z" />
<glyph d="M126 9v496q0 16 29 35.5t53 19.5h306q15 0 15 -9q0 -14 -26.5 -33t-52.5 -19h-224v-188h209q16 0 16 -10q0 -14 -26.5 -32.5t-52.5 -18.5h-146v-189h289q15 0 15 -9q0 -14 -26.5 -33t-52.5 -19h-310q-15 0 -15 9zM183 763q-6 6 10 20.5t38 23t29 1.5l86 -87l57 64 q10 11 28 19.5t32 8.5q18 -1 3 -20l-103 -115q-11 -13 -36 -24.5t-34 -2.5z" />
<glyph d="M126 9v496q0 16 29 35.5t53 19.5h306q15 0 15 -9q0 -14 -26.5 -33t-52.5 -19h-224v-188h209q16 0 16 -10q0 -14 -26.5 -32.5t-52.5 -18.5h-146v-189h289q15 0 15 -9q0 -14 -26.5 -33t-52.5 -19h-310q-15 0 -15 9zM187 667l104 117q13 13 37.5 24.5t33.5 2.5l109 -112 q6 -6 -10 -20.5t-37.5 -23.5t-28.5 -2l-86 88l-58 -65q-9 -12 -27 -19.5t-33 -7.5q-20 0 -4 18z" />
<glyph d="M126 9v496q0 16 29 35.5t53 19.5h306q15 0 15 -9q0 -14 -26.5 -33t-52.5 -19h-224v-188h209q16 0 16 -10q0 -14 -26.5 -32.5t-52.5 -18.5h-146v-189h289q15 0 15 -9q0 -14 -26.5 -33t-52.5 -19h-310q-15 0 -15 9zM195 661v85q0 15 31 34t53 19q14 0 14 -10v-85 q0 -16 -30.5 -34.5t-52.5 -19.5q-15 0 -15 11zM363 663v86q0 15 31 34t53 19q14 0 14 -11v-85q0 -15 -31 -34t-52 -19q-15 0 -15 10z" />
<glyph d="M126 9v496q0 16 29 35.5t53 19.5h306q15 0 15 -9q0 -14 -26.5 -33t-52.5 -19h-224v-188h209q16 0 16 -10q0 -14 -26.5 -32.5t-52.5 -18.5h-146v-189h289q15 0 15 -9q0 -14 -26.5 -33t-52.5 -19h-310q-15 0 -15 9zM264 664v83q0 20 41.5 44t69.5 24q19 0 19 -13v-84 q0 -20 -41.5 -44t-69.5 -24q-19 0 -19 14z" />
<glyph d="M126 9v496q0 16 29 35.5t53 19.5h306q15 0 15 -9q0 -14 -26.5 -33t-52.5 -19h-224v-188h209q16 0 16 -10q0 -14 -26.5 -32.5t-52.5 -18.5h-146v-189h289q15 0 15 -9q0 -14 -26.5 -33t-52.5 -19h-310q-15 0 -15 9zM202 767q0 15 20 35t35 20q7 0 10 -4l133 -145q4 -4 4 -9 q0 -11 -12.5 -22t-23.5 -11q-7 0 -10 4l-153 124q-3 3 -3 8z" />
<glyph d="M126 9v496q0 16 29 35.5t53 19.5h306q15 0 15 -9q0 -14 -26.5 -33t-52.5 -19h-224v-188h209q16 0 16 -10q0 -14 -26.5 -32.5t-52.5 -18.5h-146v-189h289q15 0 15 -9q0 -14 -26.5 -33t-52.5 -19h-310q-15 0 -15 9zM152 701q0 15 28 34.5t55 19.5h251q17 0 17 -9 q0 -15 -28.5 -35t-55.5 -20h-251q-16 0 -16 10z" />
<glyph d="M306 -158q0 76 122 158h-287q-15 0 -15 9v496q0 16 29 35.5t53 19.5h306q15 0 15 -9q0 -14 -26.5 -33t-52.5 -19h-224v-188h209q16 0 16 -10q0 -14 -26.5 -32.5t-52.5 -18.5h-146v-189h289q15 0 15 -9t-12 -21.5t-29 -20.5q-106 -78 -106 -136q0 -23 14 -40.5t42 -17.5 q20 0 40 13q32 21 39 13q10 -13 -19 -37q-52 -46 -112 -46q-33 0 -57 22.5t-24 60.5z" />
<glyph d="M268 -8q-67 0 -116.5 44.5t-49.5 129.5v196q0 86 71 146t172 60q80 0 119.5 -42.5t39.5 -104.5q0 -17 -34.5 -39.5t-55.5 -22.5q-11 0 -11 10q0 56 -34 95t-97 42q-31 -3 -50.5 -31t-19.5 -67v-204q0 -64 40 -105t96 -44q41 4 66 31t25 73v41l-37 -28q-39 -29 -58 -15 q-16 13 12 34l110 82q54 41 69 26q3 -3 3 -8l1 -103q1 -80 -74 -138t-187 -58zM188 764q0 11 25.5 25.5t42.5 14.5q11 0 11 -8q0 -34 20 -62t55 -31q27 4 27 62q0 12 25.5 26.5t42.5 14.5q11 0 11 -7q0 -55 -44.5 -98t-104.5 -43q-46 0 -78.5 31t-32.5 75z" />
<glyph d="M268 -8q-67 0 -116.5 44.5t-49.5 129.5v196q0 86 71 146t172 60q80 0 119.5 -42.5t39.5 -104.5q0 -17 -34.5 -39.5t-55.5 -22.5q-11 0 -11 10q0 56 -34 95t-97 42q-31 -3 -50.5 -31t-19.5 -67v-204q0 -64 40 -105t96 -44q41 4 66 31t25 73v41l-37 -28q-39 -29 -58 -15 q-16 13 12 34l110 82q54 41 69 26q3 -3 3 -8l1 -103q1 -80 -74 -138t-187 -58zM178 667l104 117q13 13 37.5 24.5t33.5 2.5l109 -112q6 -6 -10 -20.5t-37.5 -23.5t-28.5 -2l-86 88l-58 -65q-9 -12 -27 -19.5t-33 -7.5q-20 0 -4 18z" />
<glyph d="M262 -133q-2 16 27.5 36.5t56.5 27t34 -4.5q9 -52 -20 -102.5t-77 -79.5q-29 -17 -40 -7q-7 6 3 22q25 37 16 108zM268 -8q-67 0 -116.5 44.5t-49.5 129.5v196q0 86 71 146t172 60q80 0 119.5 -42.5t39.5 -104.5q0 -17 -34.5 -39.5t-55.5 -22.5q-11 0 -11 10q0 56 -34 95 t-97 42q-31 -3 -50.5 -31t-19.5 -67v-204q0 -64 40 -105t96 -44q41 4 66 31t25 73v41l-37 -28q-39 -29 -58 -15q-16 13 12 34l110 82q54 41 69 26q3 -3 3 -8l1 -103q1 -80 -74 -138t-187 -58z" />
<glyph d="M268 -8q-67 0 -116.5 44.5t-49.5 129.5v196q0 86 71 146t172 60q80 0 119.5 -42.5t39.5 -104.5q0 -17 -34.5 -39.5t-55.5 -22.5q-11 0 -11 10q0 56 -34 95t-97 42q-31 -3 -50.5 -31t-19.5 -67v-204q0 -64 40 -105t96 -44q41 4 66 31t25 73v41l-37 -28q-39 -29 -58 -15 q-16 13 12 34l110 82q54 41 69 26q3 -3 3 -8l1 -103q1 -80 -74 -138t-187 -58zM249 664v83q0 20 41.5 44t69.5 24q19 0 19 -13v-84q0 -20 -41.5 -44t-69.5 -24q-19 0 -19 14z" />
<glyph d="M271 -8q-72 0 -122 44.5t-50 129.5v196q0 86 71 146t172 60q80 0 119.5 -42.5t39.5 -104.5q0 -17 -34.5 -39.5t-55.5 -22.5q-11 0 -11 10q0 56 -34 95t-97 42q-29 -3 -49.5 -32t-20.5 -66v-204q0 -64 39.5 -105t95.5 -44q36 3 62 48.5t14 101.5l-6 25q-4 16 30 37t53 21 q11 0 12 -8l46 -231q3 -16 -30.5 -36.5t-52.5 -20.5q-11 0 -12 8l-14 70q-61 -78 -165 -78zM183 764q0 11 25.5 25.5t42.5 14.5q11 0 11 -8q0 -34 20 -62t55 -31q27 4 27 62q0 12 25.5 26.5t42.5 14.5q11 0 11 -7q0 -55 -44.5 -98t-104.5 -43q-46 0 -78.5 31t-32.5 75z" />
<glyph d="M271 -8q-72 0 -122 44.5t-50 129.5v196q0 86 71 146t172 60q80 0 119.5 -42.5t39.5 -104.5q0 -17 -34.5 -39.5t-55.5 -22.5q-11 0 -11 10q0 56 -34 95t-97 42q-29 -3 -49.5 -32t-20.5 -66v-204q0 -64 39.5 -105t95.5 -44q36 3 62 48.5t14 101.5l-6 25q-4 16 30 37t53 21 q11 0 12 -8l46 -231q3 -16 -30.5 -36.5t-52.5 -20.5q-11 0 -12 8l-14 70q-61 -78 -165 -78zM174 667l104 117q13 13 37.5 24.5t33.5 2.5l109 -112q6 -6 -10 -20.5t-37.5 -23.5t-28.5 -2l-86 88l-58 -65q-9 -12 -27 -19.5t-33 -7.5q-20 0 -4 18z" />
<glyph d="M271 -8q-72 0 -122 44.5t-50 129.5v196q0 86 71 146t172 60q80 0 119.5 -42.5t39.5 -104.5q0 -17 -34.5 -39.5t-55.5 -22.5q-11 0 -11 10q0 56 -34 95t-97 42q-29 -3 -49.5 -32t-20.5 -66v-204q0 -64 39.5 -105t95.5 -44q36 3 62 48.5t14 101.5l-6 25q-4 16 30 37t53 21 q11 0 12 -8l46 -231q3 -16 -30.5 -36.5t-52.5 -20.5q-11 0 -12 8l-14 70q-61 -78 -165 -78zM254 -133q-2 16 27.5 36.5t56.5 27t34 -4.5q9 -52 -20 -102.5t-77 -79.5q-29 -17 -40 -7q-7 6 3 22q25 37 16 108z" />
<glyph d="M271 -8q-72 0 -122 44.5t-50 129.5v196q0 86 71 146t172 60q80 0 119.5 -42.5t39.5 -104.5q0 -17 -34.5 -39.5t-55.5 -22.5q-11 0 -11 10q0 56 -34 95t-97 42q-29 -3 -49.5 -32t-20.5 -66v-204q0 -64 39.5 -105t95.5 -44q36 3 62 48.5t14 101.5l-6 25q-4 16 30 37t53 21 q11 0 12 -8l46 -231q3 -16 -30.5 -36.5t-52.5 -20.5q-11 0 -12 8l-14 70q-61 -78 -165 -78zM248 664v83q0 20 41.5 44t69.5 24q19 0 19 -13v-84q0 -20 -41.5 -44t-69.5 -24q-19 0 -19 14z" />
<glyph d="M95 3v391h-62q-16 0 -16 9q0 14 26 33t52 20v57q0 16 31.5 35.5t53.5 19.5q15 0 15 -11v-101h209v57q0 16 31.5 35.5t53.5 19.5q15 0 15 -11v-101h63q16 0 16 -10q0 -14 -26.5 -32.5t-52.5 -19.5v-347q0 -16 -31.5 -35.5t-53.5 -19.5q-15 0 -15 11v247h-209v-203 q0 -16 -31 -35.5t-53 -19.5q-16 0 -16 11zM195 311h209v83h-209v-83z" />
<glyph d="M170 667l104 117q13 13 37.5 24.5t33.5 2.5l109 -112q6 -6 -10 -20.5t-37.5 -23.5t-28.5 -2l-86 88l-58 -65q-9 -12 -27 -19.5t-33 -7.5q-20 0 -4 18zM95 3v510q0 16 31.5 35.5t53.5 19.5q15 0 15 -11v-246h209v202q0 16 31.5 35.5t53.5 19.5q15 0 15 -11v-510 q0 -16 -31.5 -35.5t-53.5 -19.5q-15 0 -15 11v247h-209v-203q0 -16 -31 -35.5t-53 -19.5q-16 0 -16 11z" />
<glyph d="M132 3v247h-104q-16 0 -16 9q0 13 22.5 30t46.5 20h51v204q0 16 31.5 35.5t54.5 19.5q15 0 15 -11v-246h137v202q0 16 31.5 35.5t54.5 19.5q15 0 15 -11v-246h103q16 0 16 -10q0 -13 -21.5 -29.5t-45.5 -20.5h-52v-204q0 -16 -31.5 -35.5t-54.5 -19.5q-15 0 -15 11v247 h-137v-203q0 -16 -31.5 -35.5t-54.5 -19.5q-15 0 -15 11zM166 667l104 117q13 13 37.5 24.5t33.5 2.5l109 -112q6 -6 -10 -20.5t-37.5 -23.5t-28.5 -2l-86 88l-58 -65q-9 -12 -27 -19.5t-33 -7.5q-20 0 -4 18z" />
<glyph d="M132 3v247h-104q-16 0 -16 9q0 13 22.5 30t46.5 20h51v85h-99q-16 0 -16 9q0 15 27 34t54 19h34v57q0 16 31.5 35.5t54.5 19.5q15 0 15 -11v-101h137v57q0 16 31.5 35.5t54.5 19.5q15 0 15 -11v-101h96q16 0 16 -10q0 -14 -27.5 -33t-53.5 -19h-31v-83h103q16 0 16 -10 q0 -13 -21.5 -29.5t-45.5 -20.5h-52v-204q0 -16 -31.5 -35.5t-54.5 -19.5q-15 0 -15 11v247h-137v-203q0 -16 -31.5 -35.5t-54.5 -19.5q-15 0 -15 11zM233 311h137v83h-137v-83z" />
<glyph d="M78 9q0 14 26.5 33t52.5 19h95v438h-137q-16 0 -16 9q0 14 27 33t53 19h314q15 0 15 -9q0 -14 -26.5 -33t-52.5 -19h-76v-438h152q15 0 15 -9q0 -14 -26.5 -33t-52.5 -19h-348q-15 0 -15 9z" />
<glyph d="M230 663q0 5 3 10l133 145q4 4 10 4q16 0 36 -20t20 -34q0 -3 -4 -9l-152 -124q-6 -4 -10 -4q-12 0 -24 10.5t-12 21.5zM78 9q0 14 26.5 33t52.5 19h95v438h-137q-16 0 -16 9q0 14 27 33t53 19h314q15 0 15 -9q0 -14 -26.5 -33t-52.5 -19h-76v-438h152q15 0 15 -9 q0 -14 -26.5 -33t-52.5 -19h-348q-15 0 -15 9z" />
<glyph d="M78 9q0 14 26.5 33t52.5 19h95v438h-137q-16 0 -16 9q0 14 27 33t53 19h314q15 0 15 -9q0 -14 -26.5 -33t-52.5 -19h-76v-438h152q15 0 15 -9q0 -14 -26.5 -33t-52.5 -19h-348q-15 0 -15 9zM174 764q0 11 25.5 25.5t42.5 14.5q11 0 11 -8q0 -34 20 -62t55 -31q27 4 27 62 q0 12 25.5 26.5t42.5 14.5q11 0 11 -7q0 -55 -44.5 -98t-104.5 -43q-46 0 -78.5 31t-32.5 75z" />
<glyph d="M166 667l104 117q13 13 37.5 24.5t33.5 2.5l109 -112q6 -6 -10 -20.5t-37.5 -23.5t-28.5 -2l-86 88l-58 -65q-9 -12 -27 -19.5t-33 -7.5q-20 0 -4 18zM78 9q0 14 26.5 33t52.5 19h95v438h-137q-16 0 -16 9q0 14 27 33t53 19h314q15 0 15 -9q0 -14 -26.5 -33t-52.5 -19 h-76v-438h152q15 0 15 -9q0 -14 -26.5 -33t-52.5 -19h-348q-15 0 -15 9z" />
<glyph d="M78 9q0 14 26.5 33t52.5 19h95v438h-137q-16 0 -16 9q0 14 27 33t53 19h314q15 0 15 -9q0 -14 -26.5 -33t-52.5 -19h-76v-438h152q15 0 15 -9q0 -14 -26.5 -33t-52.5 -19h-348q-15 0 -15 9zM176 661v85q0 15 31 34t53 19q14 0 14 -10v-85q0 -16 -30.5 -34.5t-52.5 -19.5 q-15 0 -15 11zM344 663v86q0 15 31 34t53 19q14 0 14 -11v-85q0 -15 -31 -34t-52 -19q-15 0 -15 10z" />
<glyph d="M78 9q0 14 26.5 33t52.5 19h95v438h-137q-16 0 -16 9q0 14 27 33t53 19h314q15 0 15 -9q0 -14 -26.5 -33t-52.5 -19h-76v-438h152q15 0 15 -9q0 -14 -26.5 -33t-52.5 -19h-348q-15 0 -15 9zM186 767q0 15 20 35t35 20q7 0 10 -4l133 -145q4 -4 4 -9q0 -11 -12.5 -22 t-23.5 -11q-7 0 -10 4l-153 124q-3 3 -3 8z" />
<glyph d="M78 9q0 14 26.5 33t52.5 19h95v438h-137q-16 0 -16 9q0 14 27 33t53 19h314q15 0 15 -9q0 -14 -26.5 -33t-52.5 -19h-76v-438h152q15 0 15 -9q0 -14 -26.5 -33t-52.5 -19h-348q-15 0 -15 9zM128 701q0 15 28 34.5t55 19.5h251q17 0 17 -9q0 -15 -28.5 -35t-55.5 -20h-251 q-16 0 -16 10z" />
<glyph d="M78 9q0 14 26.5 33t52.5 19h95v438h-137q-16 0 -16 9q0 14 27 33t53 19h314q15 0 15 -9q0 -14 -26.5 -33t-52.5 -19h-76v-438h152q15 0 15 -9q0 -14 -26.5 -33t-52.5 -19h-57q-92 -70 -92 -126q0 -23 14 -40.5t42 -17.5q20 0 40 13q32 21 39 13q10 -13 -19 -37 q-52 -46 -112 -46q-33 0 -57 22.5t-24 60.5q0 76 122 158h-244q-15 0 -15 9z" />
<glyph d="M78 9q0 14 26.5 33t52.5 19h95v438h-137q-16 0 -16 9q0 14 27 33t53 19h314q15 0 15 -9q0 -14 -26.5 -33t-52.5 -19h-76v-438h152q15 0 15 -9q0 -14 -26.5 -33t-52.5 -19h-348q-15 0 -15 9zM146 684q7 31 42.5 65t74.5 34q26 0 73 -30t55 -33q4 4 11.5 11t11.5 10.5t10 9 t10 8.5t9 6t9 4.5t7 1.5q13 0 9 -12q-7 -30 -40.5 -64.5t-77.5 -34.5q-25 0 -71.5 30.5t-55.5 33.5q-49 -51 -67 -51q-14 0 -10 11z" />
<glyph d="M264 667l104 117q13 13 37.5 24.5t33.5 2.5l109 -112q6 -6 -10 -20.5t-37.5 -23.5t-28.5 -2l-86 88l-58 -65q-9 -12 -27 -19.5t-33 -7.5q-20 0 -4 18zM239 -8q-67 0 -121 53t-54 127q0 14 32.5 33.5t53.5 19.5q14 0 14 -11q0 -59 44 -108.5t102 -50.5q31 3 51 30.5 t20 65.5v362q0 16 31.5 35.5t54.5 19.5q15 0 15 -11v-352q0 -85 -70.5 -149t-172.5 -64z" />
<glyph d="M263 -133q-2 16 27.5 36.5t56.5 27t34 -4.5q9 -52 -20 -102.5t-77 -79.5q-29 -17 -40 -7q-7 6 3 22q25 37 16 108zM221 335l196 197q36 36 75 36q12 0 13 -7.5t-8 -17.5l-208 -210l282 -279q3 -3 3 -8q0 -15 -27 -34.5t-47 -19.5q-8 0 -15 7l-262 267h-2v-218 q0 -16 -32 -36t-54 -20q-15 0 -15 11v510q0 16 31.5 35.5t54.5 19.5q15 0 15 -11v-222z" />
<glyph d="M133 10l13 503q1 17 32.5 36t53.5 19q15 0 15 -10l-14 -497h301q16 0 16 -9q0 -14 -26.5 -33t-52.5 -19h-323q-15 0 -15 10zM181 663q0 5 3 10l133 145q4 4 10 4q16 0 36 -20t20 -34q0 -3 -4 -9l-152 -124q-6 -4 -10 -4q-12 0 -24 10.5t-12 21.5z" />
<glyph d="M133 10l13 503q1 17 32.5 36t53.5 19q15 0 15 -10l-14 -497h301q16 0 16 -9q0 -14 -26.5 -33t-52.5 -19h-323q-15 0 -15 10zM313 431l4 166q0 17 39 17q41 -1 47 -17q1 -3 0 -6l-45 -163q-4 -14 -15 -18.5t-20.5 1.5t-9.5 20z" />
<glyph d="M259 -133q-2 16 27.5 36.5t56.5 27t34 -4.5q9 -52 -20 -102.5t-77 -79.5q-29 -17 -40 -7q-7 6 3 22q25 37 16 108zM133 10l13 503q1 17 32.5 36t53.5 19q15 0 15 -10l-14 -497h301q16 0 16 -9q0 -14 -26.5 -33t-52.5 -19h-323q-15 0 -15 10z" />
<glyph d="M466 258v83q0 20 41.5 44t69.5 24q19 0 19 -13v-84q0 -20 -41.5 -44t-69.5 -24q-19 0 -19 14zM133 10l13 503q1 17 32.5 36t53.5 19q15 0 15 -10l-14 -497h301q16 0 16 -9q0 -14 -26.5 -33t-52.5 -19h-323q-15 0 -15 10z" />
<glyph d="M133 10l5 198l-60 -32q-14 -7 -28.5 -8t-19.5 10q-5 20 38 42l71 38l7 255q1 17 32.5 36t53.5 19q15 0 15 -10l-7 -246l126 68q14 7 28 8.5t20 -9.5q5 -20 -37 -43l-139 -74l-5 -201h301q16 0 16 -9q0 -14 -26.5 -33t-52.5 -19h-323q-15 0 -15 10z" />
<glyph d="M230 663q0 5 3 10l133 145q4 4 10 4q16 0 36 -20t20 -34q0 -3 -4 -9l-152 -124q-6 -4 -10 -4q-12 0 -24 10.5t-12 21.5zM421 117l-7 396q0 16 28.5 35.5t48.5 19.5q14 0 14 -11v-508q0 -17 -31 -37t-52 -20q-10 0 -12 6l-231 441l6 -391q1 -16 -27.5 -36t-49.5 -20 q-13 0 -13 11v509q0 16 30.5 36t51.5 20q11 0 12 -6z" />
<glyph d="M171 763q-6 6 10 20.5t38 23t29 1.5l86 -87l57 64q10 11 28 19.5t32 8.5q18 -1 3 -20l-103 -115q-11 -13 -36 -24.5t-34 -2.5zM421 117l-7 396q0 16 28.5 35.5t48.5 19.5q14 0 14 -11v-508q0 -17 -31 -37t-52 -20q-10 0 -12 6l-231 441l6 -391q1 -16 -27.5 -36t-49.5 -20 q-13 0 -13 11v509q0 16 30.5 36t51.5 20q11 0 12 -6z" />
<glyph d="M234 -133q-2 16 27.5 36.5t56.5 27t34 -4.5q9 -52 -20 -102.5t-77 -79.5q-29 -17 -40 -7q-7 6 3 22q25 37 16 108zM421 117l-7 396q0 16 28.5 35.5t48.5 19.5q14 0 14 -11v-508q0 -17 -31 -37t-52 -20q-10 0 -12 6l-231 441l6 -391q1 -16 -27.5 -36t-49.5 -20 q-13 0 -13 11v509q0 16 30.5 36t51.5 20q11 0 12 -6z" />
<glyph d="M421 117l-7 396q0 16 28.5 35.5t48.5 19.5q14 0 14 -11v-508q0 -17 -31 -37t-52 -20q-10 0 -12 6l-231 441l6 -391q1 -16 -27.5 -36t-49.5 -20q-13 0 -13 11v509q0 16 30.5 36t51.5 20q11 0 12 -6zM141 684q7 31 42.5 65t74.5 34q26 0 73 -30t55 -33q4 4 11.5 11 t11.5 10.5t10 9t10 8.5t9 6t9 4.5t7 1.5q13 0 9 -12q-7 -30 -40.5 -64.5t-77.5 -34.5q-25 0 -71.5 30.5t-55.5 33.5q-49 -51 -67 -51q-14 0 -10 11z" />
<glyph d="M504 390v-184q0 -88 -69.5 -151t-170.5 -63q-73 0 -120.5 52t-47.5 126v186q0 86 69.5 149t169.5 63q76 0 122.5 -52.5t46.5 -125.5zM196 408v-193q0 -68 38 -111.5t99 -48.5q29 4 49.5 29.5t20.5 65.5v201q0 64 -39 107.5t-97 46.5q-30 -3 -50.5 -29t-20.5 -68zM227 663 q0 5 3 10l133 145q4 4 10 4q16 0 36 -20t20 -34q0 -3 -4 -9l-152 -124q-6 -4 -10 -4q-12 0 -24 10.5t-12 21.5z" />
<glyph d="M504 390v-184q0 -88 -69.5 -151t-170.5 -63q-73 0 -120.5 52t-47.5 126v186q0 86 69.5 149t169.5 63q76 0 122.5 -52.5t46.5 -125.5zM196 408v-193q0 -68 38 -111.5t99 -48.5q29 4 49.5 29.5t20.5 65.5v201q0 64 -39 107.5t-97 46.5q-30 -3 -50.5 -29t-20.5 -68zM177 764 q0 11 25.5 25.5t42.5 14.5q11 0 11 -8q0 -34 20 -62t55 -31q27 4 27 62q0 12 25.5 26.5t42.5 14.5q11 0 11 -7q0 -55 -44.5 -98t-104.5 -43q-46 0 -78.5 31t-32.5 75z" />
<glyph d="M504 390v-184q0 -88 -69.5 -151t-170.5 -63q-73 0 -120.5 52t-47.5 126v186q0 86 69.5 149t169.5 63q76 0 122.5 -52.5t46.5 -125.5zM196 408v-193q0 -68 38 -111.5t99 -48.5q29 4 49.5 29.5t20.5 65.5v201q0 64 -39 107.5t-97 46.5q-30 -3 -50.5 -29t-20.5 -68zM164 667 l104 117q13 13 37.5 24.5t33.5 2.5l109 -112q6 -6 -10 -20.5t-37.5 -23.5t-28.5 -2l-86 88l-58 -65q-9 -12 -27 -19.5t-33 -7.5q-20 0 -4 18z" />
<glyph d="M504 390v-184q0 -88 -69.5 -151t-170.5 -63q-73 0 -120.5 52t-47.5 126v186q0 86 69.5 149t169.5 63q76 0 122.5 -52.5t46.5 -125.5zM196 408v-193q0 -68 38 -111.5t99 -48.5q29 4 49.5 29.5t20.5 65.5v201q0 64 -39 107.5t-97 46.5q-30 -3 -50.5 -29t-20.5 -68zM177 661 v85q0 15 31 34t53 19q14 0 14 -10v-85q0 -16 -30.5 -34.5t-52.5 -19.5q-15 0 -15 11zM345 663v86q0 15 31 34t53 19q14 0 14 -11v-85q0 -15 -31 -34t-52 -19q-15 0 -15 10z" />
<glyph d="M504 390v-184q0 -88 -69.5 -151t-170.5 -63q-73 0 -120.5 52t-47.5 126v186q0 86 69.5 149t169.5 63q76 0 122.5 -52.5t46.5 -125.5zM196 408v-193q0 -68 38 -111.5t99 -48.5q29 4 49.5 29.5t20.5 65.5v201q0 64 -39 107.5t-97 46.5q-30 -3 -50.5 -29t-20.5 -68zM184 767 q0 15 20 35t35 20q7 0 10 -4l133 -145q4 -4 4 -9q0 -11 -12.5 -22t-23.5 -11q-7 0 -10 4l-153 124q-3 3 -3 8z" />
<glyph d="M504 390v-184q0 -88 -69.5 -151t-170.5 -63q-73 0 -120.5 52t-47.5 126v186q0 86 69.5 149t169.5 63q76 0 122.5 -52.5t46.5 -125.5zM196 408v-193q0 -68 38 -111.5t99 -48.5q29 4 49.5 29.5t20.5 65.5v201q0 64 -39 107.5t-97 46.5q-30 -3 -50.5 -29t-20.5 -68zM189 667 l89 151q9 9 26.5 4t32.5 -20t8 -24l-112 -141q-10 -13 -31.5 1t-12.5 29zM308 668l113 148q10 8 27.5 1t30.5 -23t5 -25l-136 -134q-12 -12 -31 4t-9 29z" />
<glyph d="M504 390v-184q0 -88 -69.5 -151t-170.5 -63q-73 0 -120.5 52t-47.5 126v186q0 86 69.5 149t169.5 63q76 0 122.5 -52.5t46.5 -125.5zM196 408v-193q0 -68 38 -111.5t99 -48.5q29 4 49.5 29.5t20.5 65.5v201q0 64 -39 107.5t-97 46.5q-30 -3 -50.5 -29t-20.5 -68zM132 701 q0 15 28 34.5t55 19.5h251q17 0 17 -9q0 -15 -28.5 -35t-55.5 -20h-251q-16 0 -16 10z" />
<glyph d="M504 390v-184q0 -88 -69.5 -151t-170.5 -63q-73 0 -120.5 52t-47.5 126v186q0 86 69.5 149t169.5 63q76 0 122.5 -52.5t46.5 -125.5zM196 408v-193q0 -68 38 -111.5t99 -48.5q29 4 49.5 29.5t20.5 65.5v201q0 64 -39 107.5t-97 46.5q-30 -3 -50.5 -29t-20.5 -68zM144 684 q7 31 42.5 65t74.5 34q26 0 73 -30t55 -33q4 4 11.5 11t11.5 10.5t10 9t10 8.5t9 6t9 4.5t7 1.5q13 0 9 -12q-7 -30 -40.5 -64.5t-77.5 -34.5q-25 0 -71.5 30.5t-55.5 33.5q-49 -51 -67 -51q-14 0 -10 11z" />
<glyph d="M213 267h-2v-219q0 -16 -32 -36t-54 -20q-15 0 -15 11v501q0 18 29 37t54 19h149q81 0 120 -38.5t39 -91.5q0 -60 -48 -104t-114 -56l221 -216q14 -14 -18.5 -38t-51.5 -24q-9 0 -15 7zM211 319h123q68 9 68 79q0 48 -32.5 75t-91.5 27h-67v-181zM224 663q0 5 3 10 l133 145q4 4 10 4q16 0 36 -20t20 -34q0 -3 -4 -9l-152 -124q-6 -4 -10 -4q-12 0 -24 10.5t-12 21.5z" />
<glyph d="M213 267h-2v-219q0 -16 -32 -36t-54 -20q-15 0 -15 11v501q0 18 29 37t54 19h149q81 0 120 -38.5t39 -91.5q0 -60 -48 -104t-114 -56l221 -216q14 -14 -18.5 -38t-51.5 -24q-9 0 -15 7zM211 319h123q68 9 68 79q0 48 -32.5 75t-91.5 27h-67v-181zM150 763q-6 6 10 20.5 t38 23t29 1.5l86 -87l57 64q10 11 28 19.5t32 8.5q18 -1 3 -20l-103 -115q-11 -13 -36 -24.5t-34 -2.5z" />
<glyph d="M213 267h-2v-219q0 -16 -32 -36t-54 -20q-15 0 -15 11v501q0 18 29 37t54 19h149q81 0 120 -38.5t39 -91.5q0 -60 -48 -104t-114 -56l221 -216q14 -14 -18.5 -38t-51.5 -24q-9 0 -15 7zM211 319h123q68 9 68 79q0 48 -32.5 75t-91.5 27h-67v-181zM250 -133 q-2 16 27.5 36.5t56.5 27t34 -4.5q9 -52 -20 -102.5t-77 -79.5q-29 -17 -40 -7q-7 6 3 22q25 37 16 108z" />
<glyph d="M269 -8q-84 0 -141 49t-62 115q-1 16 30 34t53 18q13 0 13 -9q0 -52 45 -99.5t122 -48.5q94 3 94 81q0 37 -18 57.5t-60 37.5l-138 59q-101 43 -101 127q0 63 62.5 109t146.5 46q73 0 121 -41.5t48 -98.5q0 -15 -30 -33t-51 -18q-13 0 -14 10q-1 53 -36.5 87t-91.5 36 q-59 -6 -59 -66q0 -31 17 -50.5t52 -34.5l150 -62q46 -20 74 -52t28 -72q0 -60 -39.5 -102.5t-95 -60.5t-119.5 -18zM225 663q0 5 3 10l133 145q4 4 10 4q16 0 36 -20t20 -34q0 -3 -4 -9l-152 -124q-6 -4 -10 -4q-12 0 -24 10.5t-12 21.5z" />
<glyph d="M269 -8q-84 0 -141 49t-62 115q-1 16 30 34t53 18q13 0 13 -9q0 -52 45 -99.5t122 -48.5q94 3 94 81q0 37 -18 57.5t-60 37.5l-138 59q-101 43 -101 127q0 63 62.5 109t146.5 46q73 0 121 -41.5t48 -98.5q0 -15 -30 -33t-51 -18q-13 0 -14 10q-1 53 -36.5 87t-91.5 36 q-59 -6 -59 -66q0 -31 17 -50.5t52 -34.5l150 -62q46 -20 74 -52t28 -72q0 -60 -39.5 -102.5t-95 -60.5t-119.5 -18zM157 763q-6 6 10 20.5t38 23t29 1.5l86 -87l57 64q10 11 28 19.5t32 8.5q18 -1 3 -20l-103 -115q-11 -13 -36 -24.5t-34 -2.5z" />
<glyph d="M269 -8q-84 0 -141 49t-62 115q-1 16 30 34t53 18q13 0 13 -9q0 -52 45 -99.5t122 -48.5q94 3 94 81q0 37 -18 57.5t-60 37.5l-138 59q-101 43 -101 127q0 63 62.5 109t146.5 46q73 0 121 -41.5t48 -98.5q0 -15 -30 -33t-51 -18q-13 0 -14 10q-1 53 -36.5 87t-91.5 36 q-59 -6 -59 -66q0 -31 17 -50.5t52 -34.5l150 -62q46 -20 74 -52t28 -72q0 -60 -39.5 -102.5t-95 -60.5t-119.5 -18zM194 -246q0 10 23 14q42 7 72 28t30 50q0 22 -13 34t-34 12q-7 0 -20 -3.5t-20 -3.5q-9 0 -9 6.5t7 13.5q36 39 99 39q32 0 52.5 -16t20.5 -48 q0 -55 -61.5 -95.5t-127.5 -42.5q-19 -2 -19 12z" />
<glyph d="M175 667l104 117q13 13 37.5 24.5t33.5 2.5l109 -112q6 -6 -10 -20.5t-37.5 -23.5t-28.5 -2l-86 88l-58 -65q-9 -12 -27 -19.5t-33 -7.5q-20 0 -4 18zM269 -8q-84 0 -141 49t-62 115q-1 16 30 34t53 18q13 0 13 -9q0 -52 45 -99.5t122 -48.5q94 3 94 81q0 37 -18 57.5 t-60 37.5l-138 59q-101 43 -101 127q0 63 62.5 109t146.5 46q73 0 121 -41.5t48 -98.5q0 -15 -30 -33t-51 -18q-13 0 -14 10q-1 53 -36.5 87t-91.5 36q-59 -6 -59 -66q0 -31 17 -50.5t52 -34.5l150 -62q46 -20 74 -52t28 -72q0 -60 -39.5 -102.5t-95 -60.5t-119.5 -18z" />
<glyph d="M253 -133q-2 16 27.5 36.5t56.5 27t34 -4.5q9 -52 -20 -102.5t-77 -79.5q-29 -17 -40 -7q-7 6 3 22q25 37 16 108zM269 -8q-84 0 -141 49t-62 115q-1 16 30 34t53 18q13 0 13 -9q0 -52 45 -99.5t122 -48.5q94 3 94 81q0 37 -18 57.5t-60 37.5l-138 59q-101 43 -101 127 q0 63 62.5 109t146.5 46q73 0 121 -41.5t48 -98.5q0 -15 -30 -33t-51 -18q-13 0 -14 10q-1 53 -36.5 87t-91.5 36q-59 -6 -59 -66q0 -31 17 -50.5t52 -34.5l150 -62q46 -20 74 -52t28 -72q0 -60 -39.5 -102.5t-95 -60.5t-119.5 -18z" />
</font>
</defs>
</svg>
