<svg id="Layer_1" data-name="Layer 1" xmlns="http://www.w3.org/2000/svg" viewBox="0 0 23 25"><title>ARB_Website Icons</title><path d="M8.64,13.24.32,3c-.21-.28-.1-.66.32-1.14A6.2,6.2,0,0,1,2.36.58,4.14,4.14,0,0,1,4.24,0,1,1,0,0,1,5,.32l7.15,9.11L18.12,2A6.45,6.45,0,0,1,19.55.64,3.09,3.09,0,0,1,21.35,0,.61.61,0,0,1,22,.69a1.12,1.12,0,0,1-.32.74l-7.84,9.85L22.78,22c.21.25.11.61-.32,1.09a6.15,6.15,0,0,1-1.72,1.3,4.13,4.13,0,0,1-1.88.58.91.91,0,0,1-.74-.32L10.39,15,4.14,23a6.22,6.22,0,0,1-1.48,1.33A3.3,3.3,0,0,1,.85,25c-.5,0-.74-.18-.74-.53a2.16,2.16,0,0,1,.48-1.11Z"/></svg>